<svg width="135" height="40" viewBox="0 0 135 40" fill="none" xmlns="http://www.w3.org/2000/svg">
<path d="M134.032 35.2679C134.032 37.3839 132.318 39.0979 130.198 39.0979H4.72889C2.60989 39.0979 0.889893 37.3839 0.889893 35.2679V4.72489C0.889893 2.60989 2.60989 0.889893 4.72889 0.889893H130.197C132.318 0.889893 134.031 2.60989 134.031 4.72489L134.032 35.2679Z" fill="white"/>
<path d="M130.198 39.989H4.729C2.122 39.989 0 37.872 0 35.268V4.726C0 2.12 2.122 0 4.729 0H130.197C132.801 0 134.926 2.12 134.926 4.726V35.268C134.928 37.872 132.803 39.989 130.198 39.989Z" fill="#A6A6A6"/>
<path d="M134.032 35.2679C134.032 37.3839 132.318 39.0979 130.198 39.0979H4.72889C2.60989 39.0979 0.889893 37.3839 0.889893 35.2679V4.72489C0.889893 2.60989 2.60989 0.889893 4.72889 0.889893H130.197C132.318 0.889893 134.031 2.60989 134.031 4.72489L134.032 35.2679Z" fill="black"/>
<path d="M30.1281 19.784C30.0991 16.561 32.7671 14.993 32.8891 14.92C31.3781 12.717 29.0361 12.416 28.2131 12.392C26.2461 12.185 24.3381 13.569 23.3361 13.569C22.3141 13.569 20.7711 12.412 19.1081 12.446C16.9681 12.479 14.9661 13.718 13.8681 15.642C11.6021 19.565 13.2921 25.33 15.4631 28.501C16.5491 30.055 17.8181 31.788 19.4791 31.727C21.1041 31.661 21.7111 30.692 23.6721 30.692C25.6151 30.692 26.1851 31.727 27.8791 31.688C29.6231 31.661 30.7211 30.128 31.7691 28.561C33.0241 26.782 33.5281 25.028 33.5481 24.938C33.5081 24.924 30.1621 23.646 30.1281 19.784Z" fill="white"/>
<path d="M26.928 10.306C27.802 9.21304 28.4 7.72604 28.234 6.21704C26.969 6.27304 25.387 7.09204 24.476 8.16104C23.67 9.10304 22.95 10.647 23.136 12.099C24.557 12.205 26.016 11.382 26.928 10.306Z" fill="white"/>
<path d="M130.198 0H62.9929L89.3159 39.989H130.198C132.802 39.989 134.927 37.872 134.927 35.265V4.726C134.928 2.12 132.803 0 130.198 0Z" fill="url(#paint0_linear_318_687)"/>
<path d="M53.6649 31.504H51.3939L50.1499 27.595H45.8259L44.6409 31.504H42.4299L46.7149 18.196H49.3609L53.6649 31.504ZM49.7749 25.955L48.6499 22.48C48.5309 22.125 48.3069 21.289 47.9789 19.973H47.9389C47.8069 20.539 47.5959 21.375 47.3069 22.48L46.2009 25.955H49.7749Z" fill="white"/>
<path d="M64.6628 26.588C64.6628 28.22 64.2198 29.51 63.3328 30.457C62.5388 31.3 61.5518 31.721 60.3748 31.721C59.1038 31.721 58.1898 31.268 57.6348 30.36V35.395H55.5028V25.062C55.5028 24.037 55.4758 22.986 55.4238 21.908H57.2988L57.4178 23.429H57.4578C58.1688 22.283 59.2478 21.71 60.6958 21.71C61.8278 21.71 62.7728 22.157 63.5288 23.052C64.2838 23.949 64.6628 25.127 64.6628 26.588ZM62.4908 26.666C62.4908 25.732 62.2808 24.962 61.8588 24.355C61.3978 23.724 60.7788 23.408 60.0028 23.408C59.4768 23.408 58.9988 23.584 58.5718 23.931C58.1438 24.281 57.8638 24.738 57.7328 25.304C57.6668 25.568 57.6338 25.783 57.6338 25.953V27.554C57.6338 28.251 57.8478 28.84 58.2758 29.322C58.7038 29.802 59.2598 30.043 59.9438 30.043C60.7468 30.043 61.3718 29.732 61.8188 29.115C62.2668 28.496 62.4908 27.68 62.4908 26.666Z" fill="white"/>
<path d="M75.7 26.588C75.7 28.22 75.257 29.51 74.37 30.457C73.575 31.3 72.589 31.721 71.411 31.721C70.14 31.721 69.226 31.268 68.671 30.36V35.395H66.539V25.062C66.539 24.037 66.512 22.986 66.46 21.908H68.335L68.454 23.429H68.494C69.204 22.283 70.283 21.71 71.732 21.71C72.863 21.71 73.808 22.157 74.566 23.052C75.32 23.949 75.7 25.127 75.7 26.588ZM73.527 26.666C73.527 25.732 73.316 24.962 72.894 24.355C72.433 23.724 71.816 23.408 71.04 23.408C70.514 23.408 70.036 23.584 69.607 23.931C69.179 24.281 68.9 24.738 68.769 25.304C68.704 25.568 68.669 25.783 68.669 25.953V27.554C68.669 28.251 68.884 28.84 69.31 29.322C69.738 29.801 70.294 30.043 70.98 30.043C71.784 30.043 72.409 29.732 72.855 29.115C73.303 28.496 73.527 27.68 73.527 26.666Z" fill="white"/>
<path d="M88.0399 27.771C88.0399 28.904 87.6439 29.825 86.8569 30.536C85.9909 31.312 84.7819 31.701 83.2319 31.701C81.7999 31.701 80.6519 31.425 79.7859 30.872L80.2789 29.095C81.2139 29.649 82.2409 29.925 83.3589 29.925C84.1629 29.925 84.7879 29.743 85.2339 29.382C85.6809 29.02 85.9069 28.536 85.9069 27.932C85.9069 27.391 85.7199 26.938 85.3529 26.569C84.9839 26.201 84.3739 25.858 83.5169 25.543C81.1869 24.674 80.0209 23.403 80.0209 21.731C80.0209 20.639 80.4329 19.745 81.2549 19.046C82.0769 18.348 83.1669 17.999 84.5229 17.999C85.7339 17.999 86.7429 18.21 87.5439 18.631L87.0089 20.369C86.2549 19.961 85.4039 19.757 84.4519 19.757C83.6999 19.757 83.1099 19.942 82.6879 20.31C82.3329 20.639 82.1529 21.04 82.1529 21.516C82.1529 22.041 82.3579 22.477 82.7659 22.819C83.1199 23.134 83.7659 23.477 84.6999 23.845C85.8459 24.307 86.6879 24.845 87.2269 25.463C87.7699 26.081 88.0399 26.852 88.0399 27.771Z" fill="white"/>
<path d="M95.1069 23.5081H92.7569V28.1671C92.7569 29.3521 93.1709 29.9431 94.0009 29.9431C94.3819 29.9431 94.6979 29.9111 94.9479 29.8441L95.0069 31.4631C94.5869 31.6201 94.0339 31.6991 93.3489 31.6991C92.5069 31.6991 91.8489 31.4421 91.3739 30.9281C90.9009 30.4141 90.6629 29.5531 90.6629 28.3411V23.5041H89.2629V21.9041H90.6629V20.1471L92.7569 19.5151V21.9041H95.1069V23.5081Z" fill="white"/>
<path d="M105.689 26.6271C105.689 28.1021 105.267 29.3131 104.425 30.2601C103.544 31.2351 102.372 31.7211 100.911 31.7211C99.501 31.7211 98.38 31.2541 97.544 30.3211C96.708 29.3861 96.29 28.2081 96.29 26.7871C96.29 25.3001 96.722 24.0821 97.583 23.1351C98.446 22.1871 99.608 21.7131 101.069 21.7131C102.477 21.7131 103.608 22.1811 104.464 23.1151C105.282 24.0211 105.689 25.1911 105.689 26.6271ZM103.479 26.6761C103.479 25.7971 103.289 25.0431 102.908 24.4121C102.461 23.6501 101.821 23.2691 100.992 23.2691C100.138 23.2691 99.483 23.6501 99.037 24.4121C98.655 25.0431 98.465 25.8101 98.465 26.7161C98.465 27.5961 98.655 28.3521 99.037 28.9811C99.498 29.7431 100.141 30.1241 100.974 30.1241C101.789 30.1241 102.428 29.7351 102.89 28.9621C103.282 28.3161 103.479 27.5571 103.479 26.6761Z" fill="white"/>
<path d="M112.622 23.783C112.411 23.744 112.185 23.724 111.95 23.724C111.2 23.724 110.62 24.006 110.212 24.574C109.858 25.074 109.68 25.706 109.68 26.469V31.504H107.548V24.93C107.548 23.825 107.527 22.817 107.486 21.909H109.343L109.421 23.745H109.48C109.706 23.114 110.06 22.605 110.546 22.224C111.021 21.881 111.534 21.71 112.087 21.71C112.284 21.71 112.462 21.724 112.62 21.749L112.622 23.783Z" fill="white"/>
<path d="M122.157 26.2521C122.157 26.6341 122.132 26.9561 122.079 27.2191H115.683C115.707 28.1671 116.017 28.8931 116.611 29.3931C117.15 29.8391 117.847 30.0631 118.703 30.0631C119.65 30.0631 120.514 29.9131 121.291 29.6101L121.625 31.0891C120.717 31.4851 119.645 31.6821 118.408 31.6821C116.92 31.6821 115.752 31.2441 114.902 30.3701C114.054 29.4951 113.629 28.3191 113.629 26.8461C113.629 25.4001 114.024 24.1951 114.815 23.2341C115.643 22.2081 116.762 21.6951 118.17 21.6951C119.553 21.6951 120.6 22.2081 121.311 23.2341C121.874 24.0471 122.157 25.0551 122.157 26.2521ZM120.124 25.6991C120.139 25.0661 119.999 24.5211 119.71 24.0601C119.341 23.4661 118.773 23.1701 118.012 23.1701C117.315 23.1701 116.747 23.4591 116.315 24.0391C115.96 24.5001 115.749 25.0541 115.684 25.6971L120.124 25.6991Z" fill="white"/>
<path d="M48.7471 13.4331H47.6301L47.0191 11.5121H44.8941L44.3111 13.4331H43.2241L45.3301 6.89209H46.6301L48.7471 13.4331ZM46.8351 10.7061L46.2821 8.99809C46.2241 8.82309 46.1171 8.41609 45.9521 7.76609H45.9321C45.8641 8.04709 45.7671 8.45509 45.6211 8.99809L45.0781 10.7061H46.8351Z" fill="white"/>
<path d="M54.0132 8.71704L52.2272 13.433H51.2082L49.4802 8.71704H50.6062L51.4122 11.211C51.5482 11.628 51.6642 12.026 51.7512 12.404H51.7802C51.8582 12.065 51.9742 11.667 52.1192 11.211L52.9152 8.71704H54.0132Z" fill="white"/>
<path d="M57.815 13.4329L57.737 12.8899H57.708C57.388 13.3269 56.922 13.5399 56.33 13.5399C55.486 13.5399 54.884 12.9479 54.884 12.1519C54.884 10.9879 55.893 10.3859 57.64 10.3859V10.2989C57.64 9.67787 57.31 9.36687 56.66 9.36687C56.194 9.36687 55.786 9.48387 55.428 9.71687L55.215 9.02787C55.652 8.75587 56.195 8.61987 56.836 8.61987C58.068 8.61987 58.69 9.26987 58.69 10.5709V12.3079C58.69 12.7839 58.71 13.1529 58.758 13.4339L57.815 13.4329ZM57.669 11.0839C56.504 11.0839 55.922 11.3659 55.922 12.0349C55.922 12.5299 56.223 12.7719 56.64 12.7719C57.174 12.7719 57.669 12.3649 57.669 11.8119V11.0839Z" fill="white"/>
<path d="M61.0241 7.93999C60.6751 7.93999 60.4031 7.66799 60.4031 7.30899C60.4031 6.94999 60.6841 6.68799 61.0441 6.68799C61.4031 6.68799 61.6941 6.94999 61.6841 7.30899C61.6841 7.68799 61.4131 7.93999 61.0241 7.93999ZM61.5681 13.433H60.5201V8.71699H61.5681V13.433Z" fill="white"/>
<path d="M64.4782 13.433H63.4302V6.55298H64.4782V13.433Z" fill="white"/>
<path d="M68.9322 13.4329L68.8542 12.8899H68.8252C68.5052 13.3269 68.0392 13.5399 67.4472 13.5399C66.6032 13.5399 66.0012 12.9479 66.0012 12.1519C66.0012 10.9879 67.0102 10.3859 68.7572 10.3859V10.2989C68.7572 9.6779 68.4272 9.3669 67.7772 9.3669C67.3112 9.3669 66.9032 9.4839 66.5452 9.7169L66.3312 9.0269C66.7682 8.7549 67.3112 8.6189 67.9522 8.6189C69.1842 8.6189 69.8062 9.2689 69.8062 10.5699V12.3069C69.8062 12.7829 69.8272 13.1519 69.8732 13.4329H68.9322ZM68.7862 11.0839C67.6212 11.0839 67.0392 11.3659 67.0392 12.0349C67.0392 12.5299 67.3402 12.7719 67.7572 12.7719C68.2912 12.7719 68.7862 12.3649 68.7862 11.8119V11.0839Z" fill="white"/>
<path d="M74.0522 13.54C73.3832 13.54 72.8892 13.258 72.5692 12.705H72.5482L72.4882 13.433H71.5952C71.6242 13.055 71.6342 12.627 71.6342 12.162V6.55298H72.6832V9.40698H72.7032C73.0142 8.88298 73.5172 8.62098 74.2072 8.62098C75.3432 8.62098 76.1392 9.59198 76.1392 11.008C76.1392 12.472 75.2552 13.54 74.0522 13.54ZM73.8392 9.44398C73.2362 9.44398 72.6842 9.96798 72.6842 10.696V11.521C72.6842 12.171 73.1802 12.705 73.8212 12.705C74.6062 12.705 75.0732 12.065 75.0732 11.046C75.0722 10.095 74.5862 9.44398 73.8392 9.44398Z" fill="white"/>
<path d="M78.7362 13.433H77.6892V6.55298H78.7362V13.433Z" fill="white"/>
<path d="M84.4412 11.3269H81.2952C81.3162 12.2199 81.9062 12.7239 82.7802 12.7239C83.2462 12.7239 83.6732 12.6459 84.0512 12.5009L84.2142 13.2289C83.7682 13.4229 83.2442 13.5199 82.6332 13.5199C81.1572 13.5199 80.2842 12.5879 80.2842 11.1429C80.2842 9.69686 81.1782 8.60986 82.5152 8.60986C83.7182 8.60986 84.4762 9.50286 84.4762 10.8519C84.4802 11.0359 84.4712 11.2009 84.4412 11.3269ZM83.4802 10.5799C83.4802 9.85186 83.1112 9.33786 82.4412 9.33786C81.8392 9.33786 81.3652 9.86186 81.2952 10.5799H83.4802Z" fill="white"/>
<path d="M90.7932 13.5399C89.4152 13.5399 88.5222 12.5109 88.5222 11.1139C88.5222 9.65787 89.4342 8.61987 90.8722 8.61987C92.2292 8.61987 93.1432 9.59987 93.1432 11.0369C93.1432 12.5109 92.2012 13.5399 90.7932 13.5399ZM90.8332 9.38587C90.0762 9.38587 89.5912 10.0939 89.5912 11.0839C89.5912 12.0549 90.0862 12.7629 90.8232 12.7629C91.5602 12.7629 92.0542 12.0059 92.0542 11.0639C92.0552 10.1039 91.5702 9.38587 90.8332 9.38587Z" fill="white"/>
<path d="M98.777 13.4329H97.73V10.7249C97.73 9.8909 97.41 9.4729 96.779 9.4729C96.158 9.4729 95.73 10.0069 95.73 10.6279V13.4329H94.683V10.0649C94.683 9.6479 94.672 9.2009 94.644 8.7159H95.566L95.615 9.4439H95.644C95.924 8.9399 96.498 8.6189 97.138 8.6189C98.127 8.6189 98.777 9.3759 98.777 10.6079V13.4329Z" fill="white"/>
<path d="M105.634 9.50299H104.481V11.793C104.481 12.376 104.684 12.667 105.091 12.667C105.276 12.667 105.432 12.647 105.557 12.618L105.586 13.414C105.382 13.492 105.109 13.531 104.772 13.531C103.946 13.531 103.453 13.075 103.453 11.881V9.50299H102.765V8.71699H103.453V7.85299L104.481 7.54199V8.71599H105.634V9.50299Z" fill="white"/>
<path d="M111.184 13.433H110.135V10.745C110.135 9.90098 109.815 9.47398 109.184 9.47398C108.641 9.47398 108.137 9.84298 108.137 10.59V13.433H107.088V6.55298H108.137V9.38598H108.157C108.487 8.87198 108.963 8.61898 109.574 8.61898C110.573 8.61898 111.184 9.39498 111.184 10.628V13.433Z" fill="white"/>
<path d="M116.539 11.3269H113.394C113.414 12.2199 114.004 12.7239 114.878 12.7239C115.345 12.7239 115.771 12.6459 116.149 12.5009L116.313 13.2289C115.867 13.4229 115.342 13.5199 114.731 13.5199C113.255 13.5199 112.382 12.5879 112.382 11.1429C112.382 9.69686 113.276 8.60986 114.613 8.60986C115.816 8.60986 116.574 9.50286 116.574 10.8519C116.578 11.0359 116.568 11.2009 116.539 11.3269ZM115.578 10.5799C115.578 9.85186 115.21 9.33786 114.54 9.33786C113.937 9.33786 113.463 9.86186 113.394 10.5799H115.578Z" fill="white"/>
<defs>
<linearGradient id="paint0_linear_318_687" x1="98.9608" y1="40.0972" x2="98.9608" y2="4.0513" gradientUnits="userSpaceOnUse">
<stop stop-color="#1A1A1A" stop-opacity="0.1"/>
<stop offset="0.1235" stop-color="#212121" stop-opacity="0.1506"/>
<stop offset="0.3085" stop-color="#353535" stop-opacity="0.2265"/>
<stop offset="0.5321" stop-color="#575757" stop-opacity="0.3181"/>
<stop offset="0.7834" stop-color="#858585" stop-opacity="0.4212"/>
<stop offset="1" stop-color="#B3B3B3" stop-opacity="0.51"/>
</linearGradient>
</defs>
</svg>
