<svg width="136" height="41" viewBox="0 0 136 41" fill="none" xmlns="http://www.w3.org/2000/svg">
<path d="M130.335 40.5366H5.03589C2.28056 40.5366 0.0239258 38.3062 0.0239258 35.583V5.86108C0.0239258 3.13781 2.28056 0.907433 5.03589 0.907433H130.335C133.09 0.907433 135.347 3.13781 135.347 5.86108V35.583C135.347 38.3062 133.09 40.5366 130.335 40.5366Z" fill="black"/>
<path d="M130.205 1H63L89.323 40.989H130.205C132.809 40.989 134.934 38.872 134.934 36.265V5.726C134.935 3.12 132.81 1 130.205 1Z" fill="url(#paint0_linear_332_1785)"/>
<path d="M130.335 1.70125C132.655 1.70125 134.544 3.56754 134.544 5.86108V35.583C134.544 37.8765 132.655 39.7428 130.335 39.7428H5.03589C2.71535 39.7428 0.827092 37.8765 0.827092 35.583V5.86108C0.827092 3.56754 2.71535 1.70125 5.03589 1.70125H130.335ZM130.335 0.907433H5.03589C2.28056 0.907433 0.0239258 3.13781 0.0239258 5.86108V35.583C0.0239258 38.3062 2.28056 40.5366 5.03589 40.5366H130.335C133.09 40.5366 135.347 38.3062 135.347 35.583V5.86108C135.347 3.13781 133.09 0.907433 130.335 0.907433Z" fill="#A6A6A6"/>
<path d="M47.5551 11.0562C47.5551 11.8834 47.3045 12.546 46.8108 13.0401C46.2432 13.6259 45.504 13.9206 44.598 13.9206C43.7322 13.9206 42.993 13.6209 42.3865 13.0302C41.7788 12.4308 41.4756 11.6952 41.4756 10.8147C41.4756 9.93417 41.7788 9.19855 42.3865 8.60411C42.993 8.00844 43.7322 7.70874 44.598 7.70874C45.0291 7.70874 45.44 7.79667 45.8322 7.96014C46.2232 8.12485 46.5414 8.34776 46.772 8.62269L46.2482 9.1453C45.846 8.67594 45.2985 8.44436 44.598 8.44436C43.9665 8.44436 43.419 8.66232 42.9541 9.10195C42.4943 9.54283 42.2637 10.1137 42.2637 10.8147C42.2637 11.5156 42.4943 12.0915 42.9541 12.5324C43.419 12.967 43.9665 13.19 44.598 13.19C45.2684 13.19 45.8322 12.967 46.277 12.5274C46.5702 12.2364 46.7369 11.8351 46.7807 11.3224H44.598V10.6066H47.51C47.5451 10.7614 47.5551 10.9113 47.5551 11.0562Z" fill="white" stroke="white" stroke-width="0.199309" stroke-miterlimit="10"/>
<path d="M52.1747 8.5744H49.4394V10.4568H51.9053V11.1726H49.4394V13.055H52.1747V13.7844H48.665V7.84497H52.1747V8.5744Z" fill="white" stroke="white" stroke-width="0.199309" stroke-miterlimit="10"/>
<path d="M55.435 13.7844H54.6607V8.5744H52.9829V7.84497H57.114V8.5744H55.435V13.7844Z" fill="white" stroke="white" stroke-width="0.199309" stroke-miterlimit="10"/>
<path d="M60.1035 13.7844V7.84497H60.8766V13.7844H60.1035Z" fill="white" stroke="white" stroke-width="0.199309" stroke-miterlimit="10"/>
<path d="M64.3037 13.7844H63.5356V8.5744H61.8516V7.84497H65.9877V8.5744H64.3037V13.7844Z" fill="white" stroke="white" stroke-width="0.199309" stroke-miterlimit="10"/>
<path d="M73.8086 13.0203C73.2159 13.6209 72.4817 13.9206 71.6058 13.9206C70.725 13.9206 69.9907 13.6209 69.3981 13.0203C68.8067 12.4209 68.5122 11.6853 68.5122 10.8147C68.5122 9.94407 68.8067 9.20846 69.3981 8.60907C69.9907 8.00844 70.725 7.70874 71.6058 7.70874C72.4767 7.70874 73.2109 8.00844 73.8036 8.61402C74.4 9.21836 74.6945 9.94903 74.6945 10.8147C74.6945 11.6853 74.4 12.4209 73.8086 13.0203ZM69.9707 12.5224C70.4168 12.967 70.9593 13.19 71.6058 13.19C72.2474 13.19 72.7949 12.967 73.236 12.5224C73.6808 12.0779 73.9063 11.507 73.9063 10.8147C73.9063 10.1224 73.6808 9.5515 73.236 9.10691C72.7949 8.66232 72.2474 8.4394 71.6058 8.4394C70.9593 8.4394 70.4168 8.66232 69.9707 9.10691C69.5259 9.5515 69.3003 10.1224 69.3003 10.8147C69.3003 11.507 69.5259 12.0779 69.9707 12.5224Z" fill="white" stroke="white" stroke-width="0.199309" stroke-miterlimit="10"/>
<path d="M75.7808 13.7844V7.84497H76.7205L79.6425 12.4642H79.6763L79.6425 11.3224V7.84497H80.4156V13.7844H79.6086L76.5488 8.93725H76.515L76.5488 10.084V13.7844H75.7808Z" fill="white" stroke="white" stroke-width="0.199309" stroke-miterlimit="10"/>
<path d="M68.3219 22.4582C65.9676 22.4582 64.0442 24.2291 64.0442 26.6725C64.0442 29.0961 65.9676 30.8856 68.3219 30.8856C70.6813 30.8856 72.6047 29.0961 72.6047 26.6725C72.6047 24.2291 70.6813 22.4582 68.3219 22.4582ZM68.3219 29.2261C67.0301 29.2261 65.9187 28.1722 65.9187 26.6725C65.9187 25.153 67.0301 24.1177 68.3219 24.1177C69.6138 24.1177 70.7302 25.153 70.7302 26.6725C70.7302 28.1722 69.6138 29.2261 68.3219 29.2261ZM58.9884 22.4582C56.629 22.4582 54.7107 24.2291 54.7107 26.6725C54.7107 29.0961 56.629 30.8856 58.9884 30.8856C61.3465 30.8856 63.2661 29.0961 63.2661 26.6725C63.2661 24.2291 61.3465 22.4582 58.9884 22.4582ZM58.9884 29.2261C57.6953 29.2261 56.5802 28.1722 56.5802 26.6725C56.5802 25.153 57.6953 24.1177 58.9884 24.1177C60.2802 24.1177 61.3916 25.153 61.3916 26.6725C61.3916 28.1722 60.2802 29.2261 58.9884 29.2261ZM47.8819 23.7499V25.5406H52.2085C52.0819 26.5412 51.7436 27.2769 51.2249 27.7896C50.5934 28.4088 49.6098 29.0961 47.8819 29.0961C45.2193 29.0961 43.1343 26.9722 43.1343 24.3406C43.1343 21.709 45.2193 19.5851 47.8819 19.5851C49.3216 19.5851 50.3691 20.1411 51.1422 20.8619L52.419 19.5999C51.3376 18.5795 49.8992 17.7956 47.8819 17.7956C44.2307 17.7956 41.1621 20.7319 41.1621 24.3406C41.1621 27.9493 44.2307 30.8856 47.8819 30.8856C49.8554 30.8856 51.3376 30.2466 52.5029 29.0478C53.697 27.8676 54.0692 26.2081 54.0692 24.8682C54.0692 24.452 54.0341 24.0694 53.9714 23.7499H47.8819ZM93.2978 25.1381C92.9457 24.1957 91.8594 22.4582 89.6466 22.4582C87.4538 22.4582 85.6282 24.166 85.6282 26.6725C85.6282 29.0329 87.435 30.8856 89.8571 30.8856C91.8155 30.8856 92.9457 29.7054 93.4106 29.0181L91.9571 28.0608C91.4722 28.7617 90.8119 29.2261 89.8571 29.2261C88.9086 29.2261 88.2282 28.7964 87.7921 27.9493L93.4945 25.6174L93.2978 25.1381ZM87.4839 26.5412C87.435 24.9164 88.7607 24.0842 89.7105 24.0842C90.4548 24.0842 91.0863 24.452 91.2968 24.9784L87.4839 26.5412ZM82.8491 30.6292H84.7236V18.2451H82.8491V30.6292ZM79.7793 23.3969H79.7166C79.2956 22.904 78.4925 22.4582 77.475 22.4582C75.3399 22.4582 73.3878 24.3109 73.3878 26.6861C73.3878 29.0478 75.3399 30.8856 77.475 30.8856C78.4925 30.8856 79.2956 30.4361 79.7166 29.9283H79.7793V30.5326C79.7793 32.1438 78.9084 33.0095 77.5038 33.0095C76.3586 33.0095 75.6482 32.1921 75.355 31.5048L73.7248 32.1773C74.1947 33.2943 75.4389 34.6689 77.5038 34.6689C79.7016 34.6689 81.556 33.3909 81.556 30.2813V22.7146H79.7793V23.3969ZM77.6354 29.2261C76.3436 29.2261 75.2622 28.1574 75.2622 26.6861C75.2622 25.2013 76.3436 24.1177 77.6354 24.1177C78.9084 24.1177 79.9121 25.2013 79.9121 26.6861C79.9121 28.1574 78.9084 29.2261 77.6354 29.2261ZM102.074 18.2451H97.5905V30.6292H99.46V25.9369H102.074C104.15 25.9369 106.186 24.452 106.186 22.0904C106.186 19.73 104.145 18.2451 102.074 18.2451ZM102.123 24.2143H99.46V19.9678H102.123C103.518 19.9678 104.315 21.1133 104.315 22.0904C104.315 23.0489 103.518 24.2143 102.123 24.2143ZM113.679 22.4347C112.328 22.4347 110.924 23.0242 110.346 24.3307L112.005 25.018C112.362 24.3307 113.019 24.1078 113.713 24.1078C114.683 24.1078 115.666 24.6836 115.681 25.7004V25.8304C115.343 25.6372 114.619 25.3511 113.728 25.3511C111.941 25.3511 110.12 26.3233 110.12 28.1376C110.12 29.797 111.584 30.8658 113.229 30.8658C114.487 30.8658 115.181 30.3048 115.617 29.6521H115.681V30.6094H117.487V25.8589C117.487 23.6632 115.828 22.4347 113.679 22.4347ZM113.453 29.2212C112.842 29.2212 111.99 28.9215 111.99 28.1722C111.99 27.2137 113.052 26.8459 113.972 26.8459C114.795 26.8459 115.181 27.0255 115.681 27.262C115.535 28.4088 114.536 29.2212 113.453 29.2212ZM124.065 22.7059L121.916 28.0744H121.852L119.631 22.7059H117.615L120.953 30.2082L119.048 34.3829H121.001L126.145 22.7059H124.065ZM107.213 30.6292H109.088V18.2451H107.213V30.6292Z" fill="white"/>
<path d="M10.4839 8.37623C10.1894 8.68088 10.019 9.1552 10.019 9.76945V31.6794C10.019 32.2937 10.1894 32.768 10.4839 33.0727L10.5566 33.1395L22.9787 20.8669V20.5771L10.5566 8.30441L10.4839 8.37623Z" fill="url(#paint1_linear_332_1785)"/>
<path d="M27.1146 24.9598L22.9785 20.8669V20.5771L27.1196 16.4841L27.2124 16.5374L32.1166 19.2953C33.5162 20.078 33.5162 21.366 32.1166 22.1536L27.2124 24.9066L27.1146 24.9598Z" fill="url(#paint2_linear_332_1785)"/>
<path d="M27.2126 24.9066L22.9787 20.722L10.4839 33.0727C10.9487 33.5557 11.7068 33.6139 12.5689 33.1309L27.2126 24.9066Z" fill="url(#paint3_linear_332_1785)"/>
<path d="M27.2126 16.5373L12.5689 8.31303C11.7068 7.835 10.9487 7.89321 10.4839 8.37619L22.9787 20.7219L27.2126 16.5373Z" fill="url(#paint4_linear_332_1785)"/>
<defs>
<linearGradient id="paint0_linear_332_1785" x1="98.9679" y1="41.0972" x2="98.9679" y2="5.0513" gradientUnits="userSpaceOnUse">
<stop stop-color="#1A1A1A" stop-opacity="0.1"/>
<stop offset="0.1235" stop-color="#212121" stop-opacity="0.1506"/>
<stop offset="0.3085" stop-color="#353535" stop-opacity="0.2265"/>
<stop offset="0.5321" stop-color="#575757" stop-opacity="0.3181"/>
<stop offset="0.7834" stop-color="#858585" stop-opacity="0.4212"/>
<stop offset="1" stop-color="#B3B3B3" stop-opacity="0.51"/>
</linearGradient>
<linearGradient id="paint1_linear_332_1785" x1="21.8758" y1="31.9076" x2="5.2501" y2="15.0862" gradientUnits="userSpaceOnUse">
<stop stop-color="#00A0FF"/>
<stop offset="0.0066" stop-color="#00A1FF"/>
<stop offset="0.2601" stop-color="#00BEFF"/>
<stop offset="0.5122" stop-color="#00D2FF"/>
<stop offset="0.7604" stop-color="#00DFFF"/>
<stop offset="1" stop-color="#00E3FF"/>
</linearGradient>
<linearGradient id="paint2_linear_332_1785" x1="33.9391" y1="20.7206" x2="9.68429" y2="20.7206" gradientUnits="userSpaceOnUse">
<stop stop-color="#FFE000"/>
<stop offset="0.4087" stop-color="#FFBD00"/>
<stop offset="0.7754" stop-color="#FFA500"/>
<stop offset="1" stop-color="#FF9C00"/>
</linearGradient>
<linearGradient id="paint3_linear_332_1785" x1="24.9103" y1="18.4472" x2="2.36454" y2="-4.364" gradientUnits="userSpaceOnUse">
<stop stop-color="#FF3A44"/>
<stop offset="1" stop-color="#C31162"/>
</linearGradient>
<linearGradient id="paint4_linear_332_1785" x1="7.33868" y1="40.362" x2="17.4064" y2="30.1758" gradientUnits="userSpaceOnUse">
<stop stop-color="#32A071"/>
<stop offset="0.0685" stop-color="#2DA771"/>
<stop offset="0.4762" stop-color="#15CF74"/>
<stop offset="0.8009" stop-color="#06E775"/>
<stop offset="1" stop-color="#00F076"/>
</linearGradient>
</defs>
</svg>
