<?xml version="1.0" encoding="utf-8"?>
<!-- Generator: Adobe Illustrator 26.0.0, SVG Export Plug-In . SVG Version: 6.00 Build 0)  -->
<svg version="1.1" id="Layer_1" xmlns="http://www.w3.org/2000/svg" xmlns:xlink="http://www.w3.org/1999/xlink" x="0px" y="0px"
	 viewBox="0 0 700.3 315.6" style="enable-background:new 0 0 700.3 315.6;" xml:space="preserve">
<style type="text/css">
	.st0{fill:#070808;}
	.st1{fill:#D43330;}
	.st2{fill:#5CBA4F;}
	.st3{fill:#E72326;}
	.st4{fill:#FFFFFF;}
</style>
<rect id="XMLID_1427_" x="-42.4" y="-148.2" class="st0" width="792" height="612"/>
<g id="XMLID_1385_">
	<g id="XMLID_1420_">
		<g id="XMLID_2248_">
			<circle id="XMLID_2253_" class="st4" cx="330.5" cy="64.8" r="2.3"/>
			<circle id="XMLID_2252_" class="st4" cx="326.8" cy="68.5" r="2.3"/>
			<circle id="XMLID_2251_" class="st4" cx="323.1" cy="72.1" r="2.3"/>
			<circle id="XMLID_2250_" class="st4" cx="319.4" cy="75.8" r="2.3"/>
			<circle id="XMLID_2249_" class="st4" cx="315.7" cy="79.5" r="2.3"/>
		</g>
		<g id="XMLID_2242_">
			<circle id="XMLID_2247_" class="st4" cx="334.2" cy="75.8" r="2.3"/>
			<circle id="XMLID_2246_" class="st4" cx="330.5" cy="79.5" r="2.3"/>
			<circle id="XMLID_2245_" class="st4" cx="326.8" cy="83.2" r="2.3"/>
			<circle id="XMLID_2244_" class="st4" cx="323.1" cy="86.9" r="2.3"/>
			<circle id="XMLID_2243_" class="st4" cx="319.4" cy="90.6" r="2.3"/>
		</g>
		<g id="XMLID_2234_">
			<circle id="XMLID_2241_" class="st4" cx="348.9" cy="75.8" r="2.3"/>
			<circle id="XMLID_2240_" class="st4" cx="345.2" cy="79.5" r="2.3"/>
			<circle id="XMLID_2239_" class="st4" cx="341.5" cy="83.2" r="2.3"/>
			<circle id="XMLID_2238_" class="st4" cx="337.9" cy="86.9" r="2.3"/>
			<circle id="XMLID_2237_" class="st4" cx="334.2" cy="90.6" r="2.3"/>
			<circle id="XMLID_2236_" class="st4" cx="330.5" cy="94.3" r="2.3"/>
			<circle id="XMLID_2235_" class="st4" cx="326.8" cy="98" r="2.3"/>
		</g>
		<g id="XMLID_2219_">
			<circle id="XMLID_2233_" class="st4" cx="358.9" cy="79.2" r="2.3"/>
			<circle id="XMLID_2232_" class="st4" cx="355.2" cy="82.9" r="2.3"/>
			<circle id="XMLID_2231_" class="st4" cx="351.5" cy="86.6" r="2.3"/>
			<circle id="XMLID_2230_" class="st4" cx="347.8" cy="90.3" r="2.3"/>
			<circle id="XMLID_2229_" class="st4" cx="344.1" cy="94" r="2.3"/>
			<circle id="XMLID_2228_" class="st4" cx="340.4" cy="97.6" r="2.3"/>
			<circle id="XMLID_2227_" class="st4" cx="336.7" cy="101.3" r="2.3"/>
			<circle id="XMLID_2226_" class="st4" cx="333.1" cy="105" r="2.3"/>
			<circle id="XMLID_2225_" class="st4" cx="329.4" cy="108.7" r="2.3"/>
			<circle id="XMLID_2224_" class="st4" cx="325.7" cy="112.4" r="2.3"/>
			<circle id="XMLID_2223_" class="st4" cx="322" cy="116.1" r="2.3"/>
			<circle id="XMLID_2222_" class="st4" cx="318.3" cy="119.8" r="2.3"/>
			<circle id="XMLID_2221_" class="st4" cx="314.6" cy="123.5" r="2.3"/>
			<circle id="XMLID_2220_" class="st4" cx="310.9" cy="127.2" r="2.3"/>
		</g>
		<g id="XMLID_2203_">
			<circle id="XMLID_2218_" class="st4" cx="366.2" cy="86.6" r="2.3"/>
			<circle id="XMLID_2217_" class="st4" cx="362.6" cy="90.3" r="2.3"/>
			<circle id="XMLID_2216_" class="st4" cx="358.9" cy="94" r="2.3"/>
			<circle id="XMLID_2215_" class="st4" cx="355.2" cy="97.6" r="2.3"/>
			<circle id="XMLID_2214_" class="st4" cx="351.5" cy="101.3" r="2.3"/>
			<circle id="XMLID_2213_" class="st4" cx="347.8" cy="105" r="2.3"/>
			<circle id="XMLID_2212_" class="st4" cx="344.1" cy="108.7" r="2.3"/>
			<circle id="XMLID_2211_" class="st4" cx="340.4" cy="112.4" r="2.3"/>
			<circle id="XMLID_2210_" class="st4" cx="336.7" cy="116.1" r="2.3"/>
			<circle id="XMLID_2209_" class="st4" cx="333.1" cy="119.8" r="2.3"/>
			<circle id="XMLID_2208_" class="st4" cx="329.4" cy="123.5" r="2.3"/>
			<circle id="XMLID_2207_" class="st4" cx="325.7" cy="127.2" r="2.3"/>
			<circle id="XMLID_2206_" class="st4" cx="322" cy="130.8" r="2.3"/>
			<circle id="XMLID_2205_" class="st4" cx="318.3" cy="134.5" r="2.3"/>
			<circle id="XMLID_2204_" class="st4" cx="314.6" cy="138.2" r="2.3"/>
		</g>
		<g id="XMLID_2187_">
			<circle id="XMLID_2202_" class="st4" cx="368.2" cy="98.4" r="2.3"/>
			<circle id="XMLID_2201_" class="st4" cx="364.5" cy="102.1" r="2.3"/>
			<circle id="XMLID_2200_" class="st4" cx="360.8" cy="105.8" r="2.3"/>
			<circle id="XMLID_2199_" class="st4" cx="357.2" cy="109.5" r="2.3"/>
			<circle id="XMLID_2198_" class="st4" cx="353.5" cy="113.2" r="2.3"/>
			<circle id="XMLID_2197_" class="st4" cx="349.8" cy="116.9" r="2.3"/>
			<circle id="XMLID_2196_" class="st4" cx="346.1" cy="120.6" r="2.3"/>
			<circle id="XMLID_2195_" class="st4" cx="342.4" cy="124.3" r="2.3"/>
			<circle id="XMLID_2194_" class="st4" cx="338.7" cy="127.9" r="2.3"/>
			<circle id="XMLID_2193_" class="st4" cx="335" cy="131.6" r="2.3"/>
			<circle id="XMLID_2192_" class="st4" cx="331.3" cy="135.3" r="2.3"/>
			<circle id="XMLID_2191_" class="st4" cx="327.6" cy="139" r="2.3"/>
			<circle id="XMLID_2190_" class="st4" cx="324" cy="142.7" r="2.3"/>
			<circle id="XMLID_2189_" class="st4" cx="320.3" cy="146.4" r="2.3"/>
			<circle id="XMLID_2188_" class="st4" cx="316.6" cy="150.1" r="2.3"/>
		</g>
		<g id="XMLID_2173_">
			<circle id="XMLID_2186_" class="st4" cx="374.8" cy="105.8" r="2.3"/>
			<circle id="XMLID_2185_" class="st4" cx="371.1" cy="109.5" r="2.3"/>
			<circle id="XMLID_2184_" class="st4" cx="367.4" cy="113.2" r="2.3"/>
			<circle id="XMLID_2183_" class="st4" cx="363.7" cy="116.9" r="2.3"/>
			<circle id="XMLID_2182_" class="st4" cx="360" cy="120.6" r="2.3"/>
			<circle id="XMLID_2181_" class="st4" cx="356.3" cy="124.3" r="2.3"/>
			<circle id="XMLID_2180_" class="st4" cx="352.7" cy="127.9" r="2.3"/>
			<circle id="XMLID_2179_" class="st4" cx="349" cy="131.6" r="2.3"/>
			<circle id="XMLID_2178_" class="st4" cx="345.3" cy="135.3" r="2.3"/>
			<circle id="XMLID_2177_" class="st4" cx="341.6" cy="139" r="2.3"/>
			<circle id="XMLID_2176_" class="st4" cx="337.9" cy="142.7" r="2.3"/>
			<circle id="XMLID_2175_" class="st4" cx="334.2" cy="146.4" r="2.3"/>
			<circle id="XMLID_2174_" class="st4" cx="330.5" cy="150.1" r="2.3"/>
		</g>
		<g id="XMLID_2169_">
			<circle id="XMLID_2172_" class="st4" cx="379.2" cy="87.5" r="2.3"/>
			<circle id="XMLID_2171_" class="st4" cx="375.5" cy="91.2" r="2.3"/>
			<circle id="XMLID_2170_" class="st4" cx="371.8" cy="94.9" r="2.3"/>
		</g>
		<g id="XMLID_2161_">
			<circle id="XMLID_2168_" class="st4" cx="400.5" cy="80.1" r="2.3"/>
			<circle id="XMLID_2167_" class="st4" cx="396.8" cy="83.8" r="2.3"/>
			<circle id="XMLID_2166_" class="st4" cx="393.1" cy="87.5" r="2.3"/>
			<circle id="XMLID_2165_" class="st4" cx="389.4" cy="91.2" r="2.3"/>
			<circle id="XMLID_2164_" class="st4" cx="385.7" cy="94.9" r="2.3"/>
			<circle id="XMLID_2163_" class="st4" cx="382" cy="98.6" r="2.3"/>
			<circle id="XMLID_2162_" class="st4" cx="378.3" cy="102.3" r="2.3"/>
		</g>
		<g id="XMLID_2137_">
			<g id="XMLID_2147_">
				<circle id="XMLID_2160_" class="st4" cx="382.5" cy="113.2" r="2.3"/>
				<circle id="XMLID_2159_" class="st4" cx="378.8" cy="116.9" r="2.3"/>
				<circle id="XMLID_2158_" class="st4" cx="375.1" cy="120.6" r="2.3"/>
				<circle id="XMLID_2157_" class="st4" cx="371.4" cy="124.3" r="2.3"/>
				<circle id="XMLID_2156_" class="st4" cx="367.7" cy="127.9" r="2.3"/>
				<circle id="XMLID_2155_" class="st4" cx="364" cy="131.6" r="2.3"/>
				<circle id="XMLID_2154_" class="st4" cx="360.3" cy="135.3" r="2.3"/>
				<circle id="XMLID_2153_" class="st4" cx="356.7" cy="139" r="2.3"/>
				<circle id="XMLID_2152_" class="st4" cx="353" cy="142.7" r="2.3"/>
				<circle id="XMLID_2151_" class="st4" cx="349.3" cy="146.4" r="2.3"/>
				<circle id="XMLID_2150_" class="st4" cx="345.6" cy="150.1" r="2.3"/>
				<circle id="XMLID_2149_" class="st4" cx="341.9" cy="153.8" r="2.3"/>
				<circle id="XMLID_2148_" class="st4" cx="338.2" cy="157.4" r="2.3"/>
			</g>
			<g id="XMLID_2138_">
				<circle id="XMLID_2146_" class="st4" cx="411.8" cy="83.8" r="2.3"/>
				<circle id="XMLID_2145_" class="st4" cx="408.2" cy="87.5" r="2.3"/>
				<circle id="XMLID_2144_" class="st4" cx="404.5" cy="91.2" r="2.3"/>
				<circle id="XMLID_2143_" class="st4" cx="400.8" cy="94.9" r="2.3"/>
				<circle id="XMLID_2142_" class="st4" cx="397.1" cy="98.6" r="2.3"/>
				<circle id="XMLID_2141_" class="st4" cx="393.4" cy="102.3" r="2.3"/>
				<circle id="XMLID_2140_" class="st4" cx="389.7" cy="105.9" r="2.3"/>
				<circle id="XMLID_2139_" class="st4" cx="386" cy="109.6" r="2.3"/>
			</g>
		</g>
		<g id="XMLID_2118_">
			<g id="XMLID_2124_">
				<circle id="XMLID_2136_" class="st4" cx="389.4" cy="119.2" r="2.3"/>
				<circle id="XMLID_2135_" class="st4" cx="385.7" cy="122.8" r="2.3"/>
				<circle id="XMLID_2134_" class="st4" cx="382" cy="126.5" r="2.3"/>
				<circle id="XMLID_2133_" class="st4" cx="378.3" cy="130.2" r="2.3"/>
				<circle id="XMLID_2132_" class="st4" cx="374.6" cy="133.9" r="2.3"/>
				<circle id="XMLID_2131_" class="st4" cx="370.9" cy="137.6" r="2.3"/>
				<circle id="XMLID_2130_" class="st4" cx="367.2" cy="141.3" r="2.3"/>
				<circle id="XMLID_2129_" class="st4" cx="363.5" cy="145" r="2.3"/>
				<circle id="XMLID_2128_" class="st4" cx="359.9" cy="148.7" r="2.3"/>
				<circle id="XMLID_2127_" class="st4" cx="356.2" cy="152.3" r="2.3"/>
				<circle id="XMLID_2126_" class="st4" cx="352.5" cy="156" r="2.3"/>
				<circle id="XMLID_2125_" class="st4" cx="348.8" cy="159.7" r="2.3"/>
			</g>
			<g id="XMLID_2119_">
				<circle id="XMLID_2123_" class="st4" cx="404" cy="104.5" r="2.3"/>
				<circle id="XMLID_2122_" class="st4" cx="400.3" cy="108.2" r="2.3"/>
				<circle id="XMLID_2121_" class="st4" cx="396.6" cy="111.9" r="2.3"/>
				<circle id="XMLID_2120_" class="st4" cx="392.9" cy="115.6" r="2.3"/>
			</g>
		</g>
		<g id="XMLID_2103_">
			<circle id="XMLID_2117_" class="st4" cx="405.9" cy="117.9" r="2.3"/>
			<circle id="XMLID_2116_" class="st4" cx="402.2" cy="121.6" r="2.3"/>
			<circle id="XMLID_2115_" class="st4" cx="398.5" cy="125.3" r="2.3"/>
			<circle id="XMLID_2114_" class="st4" cx="394.8" cy="129" r="2.3"/>
			<circle id="XMLID_2113_" class="st4" cx="391.1" cy="132.7" r="2.3"/>
			<circle id="XMLID_2112_" class="st4" cx="387.4" cy="136.4" r="2.3"/>
			<circle id="XMLID_2111_" class="st4" cx="383.8" cy="140.1" r="2.3"/>
			<circle id="XMLID_2110_" class="st4" cx="380.1" cy="143.8" r="2.3"/>
			<circle id="XMLID_2109_" class="st4" cx="376.4" cy="147.4" r="2.3"/>
			<circle id="XMLID_2108_" class="st4" cx="372.7" cy="151.1" r="2.3"/>
			<circle id="XMLID_2107_" class="st4" cx="369" cy="154.8" r="2.3"/>
			<circle id="XMLID_2106_" class="st4" cx="365.3" cy="158.5" r="2.3"/>
			<circle id="XMLID_2105_" class="st4" cx="361.6" cy="162.2" r="2.3"/>
			<circle id="XMLID_2104_" class="st4" cx="357.9" cy="165.9" r="2.3"/>
		</g>
		<g id="XMLID_2089_">
			<circle id="XMLID_2102_" class="st4" cx="406.8" cy="131.3" r="2.3"/>
			<circle id="XMLID_2101_" class="st4" cx="403.1" cy="135" r="2.3"/>
			<circle id="XMLID_2100_" class="st4" cx="399.4" cy="138.7" r="2.3"/>
			<circle id="XMLID_2099_" class="st4" cx="395.7" cy="142.3" r="2.3"/>
			<circle id="XMLID_2098_" class="st4" cx="392.1" cy="146" r="2.3"/>
			<circle id="XMLID_2097_" class="st4" cx="388.4" cy="149.7" r="2.3"/>
			<circle id="XMLID_2096_" class="st4" cx="384.7" cy="153.4" r="2.3"/>
			<circle id="XMLID_2095_" class="st4" cx="381" cy="157.1" r="2.3"/>
			<circle id="XMLID_2094_" class="st4" cx="377.3" cy="160.8" r="2.3"/>
			<circle id="XMLID_2093_" class="st4" cx="373.6" cy="164.5" r="2.3"/>
			<circle id="XMLID_2092_" class="st4" cx="369.9" cy="168.2" r="2.3"/>
			<circle id="XMLID_2091_" class="st4" cx="366.2" cy="171.8" r="2.3"/>
			<circle id="XMLID_2090_" class="st4" cx="362.6" cy="175.5" r="2.3"/>
		</g>
		<g id="XMLID_2077_">
			<circle id="XMLID_2088_" class="st4" cx="408.2" cy="143.3" r="2.3"/>
			<circle id="XMLID_2087_" class="st4" cx="404.5" cy="146.9" r="2.3"/>
			<circle id="XMLID_2086_" class="st4" cx="400.8" cy="150.6" r="2.3"/>
			<circle id="XMLID_2085_" class="st4" cx="397.1" cy="154.3" r="2.3"/>
			<circle id="XMLID_2084_" class="st4" cx="393.4" cy="158" r="2.3"/>
			<circle id="XMLID_2083_" class="st4" cx="389.7" cy="161.7" r="2.3"/>
			<circle id="XMLID_2082_" class="st4" cx="386" cy="165.4" r="2.3"/>
			<circle id="XMLID_2081_" class="st4" cx="382.3" cy="169.1" r="2.3"/>
			<circle id="XMLID_2080_" class="st4" cx="378.7" cy="172.8" r="2.3"/>
			<circle id="XMLID_2079_" class="st4" cx="375" cy="176.4" r="2.3"/>
			<circle id="XMLID_2078_" class="st4" cx="371.3" cy="180.1" r="2.3"/>
		</g>
		<g id="XMLID_1421_">
			<circle id="XMLID_2076_" class="st4" cx="419.2" cy="146.9" r="2.3"/>
			<circle id="XMLID_2075_" class="st4" cx="415.5" cy="150.6" r="2.3"/>
			<circle id="XMLID_2074_" class="st4" cx="411.8" cy="154.3" r="2.3"/>
			<circle id="XMLID_2073_" class="st4" cx="408.2" cy="158" r="2.3"/>
			<circle id="XMLID_1426_" class="st4" cx="393.4" cy="172.8" r="2.3"/>
			<circle id="XMLID_1425_" class="st4" cx="389.7" cy="176.4" r="2.3"/>
			<circle id="XMLID_1424_" class="st4" cx="386" cy="180.1" r="2.3"/>
			<circle id="XMLID_1423_" class="st4" cx="382.3" cy="183.8" r="2.3"/>
			<circle id="XMLID_1422_" class="st4" cx="378.7" cy="187.5" r="2.3"/>
		</g>
	</g>
	<path id="XMLID_1419_" class="st4" d="M616.6,208.9c-0.2-1.6,0.2-2.4,1.9-2.3c1.3,0.1,2.2,0.2,2.1,1.8c-0.1,1.4,0,2.7-2,2.7
		C617.2,211,616.3,210.3,616.6,208.9z"/>
	<path id="XMLID_1418_" class="st4" d="M574.4,206.6c1.8-0.3,2,0.9,2,2.2c0,1.4-0.5,2-2,2.1c-1.7,0-2.1-0.7-2.1-2.2
		C572.3,207.1,572.8,206.3,574.4,206.6z"/>
	<g id="XMLID_1403_">
		<circle id="XMLID_1417_" class="st4" cx="383.8" cy="213.8" r="2.3"/>
		<circle id="XMLID_1416_" class="st4" cx="383.8" cy="219" r="2.3"/>
		<circle id="XMLID_1415_" class="st4" cx="383.8" cy="224.3" r="2.3"/>
		<circle id="XMLID_1414_" class="st4" cx="383.8" cy="229.5" r="2.3"/>
		<circle id="XMLID_1413_" class="st4" cx="383.8" cy="234.7" r="2.3"/>
		<circle id="XMLID_1412_" class="st4" cx="383.8" cy="239.9" r="2.3"/>
		<circle id="XMLID_1411_" class="st4" cx="383.8" cy="245.1" r="2.3"/>
		<circle id="XMLID_1410_" class="st4" cx="383.8" cy="250.3" r="2.3"/>
		<circle id="XMLID_1409_" class="st4" cx="383.8" cy="255.6" r="2.3"/>
		<circle id="XMLID_1408_" class="st4" cx="383.8" cy="260.8" r="2.3"/>
		<circle id="XMLID_1407_" class="st4" cx="383.8" cy="266" r="2.3"/>
		<circle id="XMLID_1406_" class="st4" cx="383.8" cy="271.2" r="2.3"/>
		<circle id="XMLID_1405_" class="st4" cx="383.8" cy="276.4" r="2.3"/>
		<circle id="XMLID_1404_" class="st4" cx="383.8" cy="281.6" r="2.3"/>
	</g>
	<g id="XMLID_1402_">
		<path class="st4" d="M399.4,239.2v-23.6h4.3v4.3c0.5-1.1,1.2-2,2.2-2.7c0.9-0.7,2-1.2,3.1-1.5c1.1-0.3,2.3-0.3,3.5,0
			c1.2,0.2,2.3,0.8,3.3,1.6c0.7,0.5,1.3,1.2,1.8,1.8c0.5,0.7,0.9,1.4,1.3,2.2c0.7-1.6,1.6-2.9,2.7-3.8c1.1-0.9,2.3-1.5,3.6-1.8
			c1.3-0.3,2.6-0.2,3.9,0.1c1.3,0.3,2.5,1,3.6,2c1.1,1,1.9,2.2,2.6,3.7c0.7,1.5,1,3.3,1,5.3v12.3H432v-12.9c0-0.9-0.1-1.8-0.4-2.6
			c-0.3-0.8-0.7-1.6-1.2-2.3c-0.5-0.7-1.2-1.2-1.9-1.6c-0.8-0.4-1.6-0.6-2.6-0.6c-0.9,0-1.8,0.2-2.5,0.6c-0.7,0.4-1.4,0.9-1.9,1.6
			c-0.5,0.7-0.9,1.4-1.2,2.3c-0.3,0.8-0.4,1.7-0.4,2.6v12.9h-4.3v-12.9c-0.1-1.8-0.5-3.2-1.2-4.3c-0.7-1.1-1.4-1.8-2.3-2.3
			c-0.9-0.4-1.8-0.6-2.8-0.5c-1,0.1-1.9,0.5-2.8,1c-0.8,0.6-1.5,1.4-2.1,2.4c-0.6,1-0.8,2.2-0.8,3.6v12.9H399.4z"/>
		<path class="st4" d="M459.6,215.6c1.6,0,3.2,0.3,4.6,0.9c1.4,0.6,2.7,1.5,3.8,2.5c1.1,1.1,1.9,2.3,2.5,3.8c0.6,1.4,0.9,3,0.9,4.6
			c0,1.6-0.3,3.1-0.9,4.6c-0.6,1.4-1.5,2.7-2.5,3.7c-1.1,1.1-2.3,1.9-3.8,2.5c-1.4,0.6-3,0.9-4.6,0.9h-1.2c-1.6,0-3.2-0.3-4.6-0.9
			c-1.4-0.6-2.7-1.4-3.8-2.5c-1.1-1.1-1.9-2.3-2.5-3.7c-0.6-1.4-0.9-3-0.9-4.6c0-1.6,0.3-3.2,0.9-4.6c0.6-1.4,1.5-2.7,2.5-3.8
			c1.1-1.1,2.3-1.9,3.8-2.5c1.4-0.6,3-0.9,4.6-0.9H459.6z M467.3,227.4c0-1.2-0.2-2.3-0.7-3.3c-0.4-1-1-2-1.8-2.7
			c-0.8-0.8-1.6-1.4-2.6-1.8s-2.1-0.7-3.2-0.7c-1.1,0-2.2,0.2-3.2,0.7s-1.9,1.1-2.6,1.8c-0.7,0.8-1.3,1.7-1.8,2.7
			c-0.4,1-0.7,2.2-0.7,3.3c0,1.2,0.2,2.4,0.7,3.4c0.4,1.1,1,2,1.8,2.8c0.7,0.8,1.6,1.4,2.6,1.8c1,0.4,2.1,0.7,3.2,0.7
			c1.1,0,2.2-0.2,3.2-0.7c1-0.4,1.9-1.1,2.6-1.8c0.8-0.8,1.3-1.7,1.8-2.8C467,229.7,467.3,228.6,467.3,227.4z"/>
		<path class="st4" d="M482.2,239.2v-23.6h4.3v4.3c0.4-0.6,0.8-1.1,1.3-1.7c0.5-0.5,1.1-1,1.7-1.4c0.6-0.4,1.3-0.7,2-1
			c0.7-0.2,1.5-0.4,2.2-0.4h1c1.4,0,2.7,0.3,3.8,1c1.1,0.7,2,1.6,2.8,2.7s1.3,2.3,1.7,3.6c0.4,1.3,0.6,2.6,0.6,3.9v12.3h-4.3v-12.9
			c0-0.9-0.2-1.8-0.5-2.6c-0.3-0.8-0.8-1.6-1.3-2.3s-1.2-1.2-2-1.6c-0.8-0.4-1.6-0.6-2.6-0.6c-1,0-1.8,0.2-2.6,0.6
			c-0.8,0.4-1.5,0.9-2.1,1.6s-1,1.4-1.3,2.3c-0.3,0.8-0.5,1.7-0.5,2.6v12.9H482.2z"/>
		<path class="st4" d="M518.5,229.1c0.1,0.9,0.4,1.8,0.9,2.6c0.5,0.8,1.1,1.5,1.8,2.1c0.7,0.6,1.5,1.1,2.4,1.4
			c0.9,0.3,1.8,0.5,2.8,0.5c0.7,0,1.4-0.1,2.1-0.3c0.7-0.2,1.4-0.5,2-0.8c0.6-0.3,1.2-0.8,1.7-1.2c0.5-0.5,0.9-1,1.3-1.6h4.5
			c-0.4,1.1-1,2.1-1.7,3c-0.7,0.9-1.6,1.7-2.5,2.4c-1,0.7-2,1.2-3.1,1.5c-1.1,0.4-2.3,0.5-3.6,0.5h-1.3c-1.6,0-3.1-0.3-4.5-0.9
			c-1.4-0.6-2.7-1.5-3.7-2.5s-1.9-2.3-2.5-3.7c-0.6-1.4-0.9-3-0.9-4.6s0.3-3.1,0.9-4.6c0.6-1.4,1.5-2.7,2.5-3.8
			c1.1-1.1,2.3-1.9,3.7-2.5c1.4-0.6,2.9-0.9,4.5-0.9h1.3c1.6,0,3.1,0.3,4.6,0.9c1.4,0.6,2.7,1.5,3.7,2.5c1.1,1.1,1.9,2.3,2.5,3.8
			c0.6,1.4,0.9,3,0.9,4.6c0,0.3,0,0.5,0,0.8c0,0.3,0,0.5-0.1,0.8H518.5z M534.2,225.8c-0.1-0.9-0.4-1.8-0.8-2.6
			c-0.5-0.8-1.1-1.5-1.8-2.1c-0.7-0.6-1.5-1.1-2.4-1.4c-0.9-0.3-1.8-0.5-2.8-0.5s-1.9,0.2-2.8,0.5c-0.9,0.3-1.7,0.8-2.4,1.4
			c-0.7,0.6-1.3,1.3-1.8,2.1c-0.5,0.8-0.8,1.6-0.9,2.6H534.2z"/>
		<path class="st4" d="M551.3,235.5c-0.2-0.3-0.4-0.7-0.6-1c-0.2-0.3-0.3-0.7-0.4-1.1c-0.1-0.5-0.2-0.9-0.2-1.2c0-0.3,0-0.7,0-1.1
			v-11.6h-2.6v-3.7h2.6v-6.8h4.2v6.8h6.4v3.7h-6.4v10.9c0,0.6,0.1,1.2,0.2,1.8c0.1,0.6,0.4,1.1,0.7,1.5c0.3,0.4,0.8,0.8,1.3,1
			s1.3,0.4,2.2,0.4h3.3v4.1h-4.4c-0.3,0-0.7,0-1.1-0.1c-0.4-0.1-0.7-0.2-1.1-0.3c-0.8-0.3-1.6-0.8-2.3-1.3
			C552.3,236.9,551.8,236.3,551.3,235.5z"/>
		<path class="st4" d="M574.4,206.3c0.8,0,1.4,0.3,1.9,0.8c0.5,0.5,0.8,1.1,0.8,1.9c0,0.7-0.3,1.3-0.8,1.8c-0.5,0.5-1.2,0.8-1.9,0.8
			c-0.8,0-1.4-0.3-1.9-0.8c-0.5-0.5-0.8-1.1-0.8-1.8c0-0.8,0.3-1.4,0.8-1.9C573.1,206.5,573.7,206.3,574.4,206.3z M572.4,215.6h4.1
			v23.6h-4.1V215.6z"/>
		<path class="st4" d="M587.3,219.8v-4.1H608v4.3l-14.9,15.2H608v4.1h-20.7v-4.1l14.9-15.3H587.3z"/>
		<path class="st4" d="M620.9,206.3c0.8,0,1.4,0.3,1.9,0.8c0.5,0.5,0.8,1.1,0.8,1.9c0,0.7-0.3,1.3-0.8,1.8c-0.5,0.5-1.2,0.8-1.9,0.8
			c-0.8,0-1.4-0.3-1.9-0.8c-0.5-0.5-0.8-1.1-0.8-1.8c0-0.8,0.3-1.4,0.8-1.9C619.5,206.5,620.1,206.3,620.9,206.3z M618.8,215.6h4.1
			v23.6h-4.1V215.6z"/>
		<path class="st4" d="M634.6,239.2v-23.6h4.3v4.3c0.4-0.6,0.8-1.1,1.3-1.7c0.5-0.5,1.1-1,1.7-1.4c0.6-0.4,1.3-0.7,2-1
			c0.7-0.2,1.5-0.4,2.2-0.4h1c1.4,0,2.7,0.3,3.8,1c1.1,0.7,2,1.6,2.8,2.7s1.3,2.3,1.7,3.6c0.4,1.3,0.6,2.6,0.6,3.9v12.3h-4.3v-12.9
			c0-0.9-0.2-1.8-0.5-2.6c-0.3-0.8-0.8-1.6-1.3-2.3s-1.2-1.2-2-1.6c-0.8-0.4-1.6-0.6-2.6-0.6c-1,0-1.8,0.2-2.6,0.6
			c-0.8,0.4-1.5,0.9-2.1,1.6s-1,1.4-1.3,2.3c-0.3,0.8-0.5,1.7-0.5,2.6v12.9H634.6z"/>
		<path class="st4" d="M691.1,215.7v22.6c0,1.7-0.3,3.3-1,4.8c-0.6,1.5-1.5,2.7-2.6,3.8c-1.1,1.1-2.4,2-3.9,2.6
			c-1.5,0.6-3.1,0.9-4.7,0.9c-1.2,0-2.5-0.2-3.7-0.6s-2.4-0.9-3.4-1.7c-1.1-0.7-2-1.6-2.8-2.7c-0.8-1.1-1.4-2.3-1.9-3.6h4.4
			c0.7,1.3,1.7,2.4,2.9,3.2c1.2,0.8,2.6,1.2,4.2,1.2h0.4c1.1,0,2.1-0.2,3.1-0.6c1-0.4,1.8-1,2.5-1.7s1.3-1.6,1.7-2.5
			c0.4-1,0.6-2,0.6-3.1v-4.3c-1.1,1.6-2.3,2.8-3.7,3.8c-1.4,1-3.1,1.4-5.2,1.4H677c-1.4,0-2.8-0.3-4.1-0.9c-1.3-0.6-2.4-1.5-3.4-2.5
			c-1-1.1-1.7-2.3-2.3-3.7c-0.5-1.4-0.8-2.9-0.8-4.5c0-1.6,0.3-3.1,0.8-4.6c0.5-1.4,1.3-2.7,2.3-3.8c1-1.1,2.1-1.9,3.4-2.5
			c1.3-0.6,2.7-0.9,4.1-0.9h1.1c2.1,0,3.8,0.5,5.2,1.5c1.4,1,2.6,2.3,3.7,3.8v-5.3H691.1z M686.3,226.8c0-1-0.2-2-0.6-2.9
			s-0.9-1.7-1.6-2.3c-0.7-0.7-1.5-1.2-2.4-1.6c-0.9-0.4-1.9-0.6-2.9-0.6c-1,0-2,0.2-2.9,0.6c-0.9,0.4-1.7,0.9-2.3,1.6
			c-0.7,0.7-1.2,1.4-1.6,2.3c-0.4,0.9-0.6,1.9-0.6,2.9v1.3c0,1,0.2,2,0.6,2.9c0.4,0.9,0.9,1.7,1.6,2.4s1.4,1.2,2.3,1.6
			c0.9,0.4,1.9,0.6,2.9,0.6c1,0,2-0.2,2.9-0.6s1.7-0.9,2.4-1.6c0.7-0.7,1.2-1.5,1.6-2.4s0.6-1.9,0.6-2.9V226.8z"/>
		<path class="st4" d="M401.6,275.5c-0.2-0.3-0.4-0.7-0.6-1c-0.2-0.3-0.3-0.7-0.4-1.1c-0.1-0.5-0.2-0.9-0.2-1.2c0-0.3,0-0.7,0-1.1
			v-11.6h-2.6v-3.7h2.6v-6.8h4.2v6.8h6.4v3.7h-6.4v10.9c0,0.6,0.1,1.2,0.2,1.8c0.1,0.6,0.4,1.1,0.7,1.5c0.3,0.4,0.8,0.8,1.3,1
			s1.3,0.4,2.2,0.4h3.3v4.1h-4.4c-0.3,0-0.7,0-1.1-0.1c-0.4-0.1-0.7-0.2-1.1-0.3c-0.8-0.3-1.6-0.8-2.3-1.3
			C402.6,276.9,402.1,276.3,401.6,275.5z"/>
		<path class="st4" d="M445.3,255.7v23.5h-4.2V274c-1.1,1.6-2.3,2.8-3.7,3.8c-1.4,1-3.1,1.4-5.1,1.4h-1.2c-1.4,0-2.8-0.3-4.1-0.9
			c-1.3-0.6-2.4-1.4-3.4-2.5c-1-1.1-1.7-2.3-2.3-3.7c-0.6-1.4-0.8-3-0.8-4.6c0-1.6,0.3-3.1,0.8-4.6c0.6-1.4,1.3-2.7,2.3-3.8
			c1-1.1,2.1-1.9,3.4-2.5c1.3-0.6,2.6-0.9,4.1-0.9h1.2c2,0,3.7,0.5,5.1,1.5c1.4,1,2.6,2.3,3.7,3.8v-5.3H445.3z M440.6,266.8
			c0-1-0.2-2-0.6-2.9c-0.4-0.9-0.9-1.7-1.6-2.3c-0.7-0.7-1.5-1.2-2.4-1.6s-1.9-0.6-2.9-0.6c-1,0-2,0.2-2.9,0.6
			c-0.9,0.4-1.7,0.9-2.3,1.6s-1.2,1.4-1.6,2.3c-0.4,0.9-0.6,1.9-0.6,2.9v1.3c0,1,0.2,2,0.6,2.9c0.4,0.9,0.9,1.7,1.6,2.4
			c0.7,0.7,1.4,1.2,2.3,1.6c0.9,0.4,1.9,0.6,2.9,0.6c1,0,2-0.2,2.9-0.6c0.9-0.4,1.7-0.9,2.4-1.6c0.7-0.7,1.2-1.5,1.6-2.4
			s0.6-1.9,0.6-2.9V266.8z"/>
		<path class="st4" d="M457.3,279.2v-34.1h4.1v34.1H457.3z"/>
		<path class="st4" d="M476.8,269.1c0.1,0.9,0.4,1.8,0.9,2.6c0.5,0.8,1.1,1.5,1.8,2.1c0.7,0.6,1.5,1.1,2.4,1.4
			c0.9,0.3,1.8,0.5,2.8,0.5c0.7,0,1.4-0.1,2.1-0.3c0.7-0.2,1.4-0.5,2-0.8c0.6-0.3,1.2-0.8,1.7-1.2c0.5-0.5,0.9-1,1.3-1.6h4.5
			c-0.4,1.1-1,2.1-1.7,3c-0.7,0.9-1.6,1.7-2.5,2.4c-1,0.7-2,1.2-3.1,1.5c-1.1,0.4-2.3,0.5-3.6,0.5H484c-1.6,0-3.1-0.3-4.5-0.9
			c-1.4-0.6-2.7-1.5-3.7-2.5s-1.9-2.3-2.5-3.7c-0.6-1.4-0.9-3-0.9-4.6s0.3-3.1,0.9-4.6c0.6-1.4,1.5-2.7,2.5-3.8
			c1.1-1.1,2.3-1.9,3.7-2.5c1.4-0.6,2.9-0.9,4.5-0.9h1.3c1.6,0,3.1,0.3,4.6,0.9c1.4,0.6,2.7,1.5,3.7,2.5c1.1,1.1,1.9,2.3,2.5,3.8
			c0.6,1.4,0.9,3,0.9,4.6c0,0.3,0,0.5,0,0.8c0,0.3,0,0.5-0.1,0.8H476.8z M492.5,265.8c-0.1-0.9-0.4-1.8-0.8-2.6
			c-0.5-0.8-1.1-1.5-1.8-2.1c-0.7-0.6-1.5-1.1-2.4-1.4c-0.9-0.3-1.8-0.5-2.8-0.5s-1.9,0.2-2.8,0.5c-0.9,0.3-1.7,0.8-2.4,1.4
			c-0.7,0.6-1.3,1.3-1.8,2.1c-0.5,0.8-0.8,1.6-0.9,2.6H492.5z"/>
		<path class="st4" d="M507.8,279.2v-23.6h4.3v4.3c0.4-0.6,0.8-1.1,1.3-1.7c0.5-0.5,1.1-1,1.7-1.4c0.6-0.4,1.3-0.7,2-1
			c0.7-0.2,1.5-0.4,2.2-0.4h1c1.4,0,2.7,0.3,3.8,1c1.1,0.7,2,1.6,2.8,2.7s1.3,2.3,1.7,3.6c0.4,1.3,0.6,2.6,0.6,3.9v12.3h-4.3v-12.9
			c0-0.9-0.2-1.8-0.5-2.6c-0.3-0.8-0.8-1.6-1.3-2.3s-1.2-1.2-2-1.6c-0.8-0.4-1.6-0.6-2.6-0.6c-1,0-1.8,0.2-2.6,0.6
			c-0.8,0.4-1.5,0.9-2.1,1.6s-1,1.4-1.3,2.3c-0.3,0.8-0.5,1.7-0.5,2.6v12.9H507.8z"/>
		<path class="st4" d="M542.3,275.5c-0.2-0.3-0.4-0.7-0.6-1c-0.2-0.3-0.3-0.7-0.4-1.1c-0.1-0.5-0.2-0.9-0.2-1.2c0-0.3,0-0.7,0-1.1
			v-11.6h-2.6v-3.7h2.6v-6.8h4.2v6.8h6.4v3.7h-6.4v10.9c0,0.6,0.1,1.2,0.2,1.8c0.1,0.6,0.4,1.1,0.7,1.5c0.3,0.4,0.8,0.8,1.3,1
			s1.3,0.4,2.2,0.4h3.3v4.1h-4.4c-0.3,0-0.7,0-1.1-0.1c-0.4-0.1-0.7-0.2-1.1-0.3c-0.8-0.3-1.6-0.8-2.3-1.3
			C543.4,276.9,542.8,276.3,542.3,275.5z"/>
		<path class="st4" d="M573.2,275.4c0.6,0,1.3,0,2.1-0.1c0.7-0.1,1.4-0.2,2-0.4c0.9-0.3,1.6-0.7,2-1.2c0.4-0.5,0.6-1,0.5-1.5
			c-0.1-0.5-0.3-1-0.8-1.4c-0.5-0.4-1.2-0.8-2-1.1c-1-0.3-2.1-0.5-3.2-0.6s-2.2-0.3-3.3-0.5c-0.7-0.1-1.4-0.3-2-0.5
			c-0.7-0.2-1.3-0.5-2-0.8c-0.7-0.3-1.3-0.7-1.8-1.2c-0.5-0.5-0.9-1-1.3-1.6c-0.3-0.6-0.5-1.2-0.6-1.9c-0.1-0.7,0-1.4,0.3-2.1
			c0.3-0.9,0.9-1.7,1.7-2.3c0.8-0.6,1.6-1.1,2.5-1.5c0.8-0.3,1.7-0.5,2.6-0.7c0.9-0.2,1.8-0.3,2.7-0.3c0.9,0,1.8,0.1,2.8,0.2
			c1,0.1,1.9,0.4,2.8,0.7c0.9,0.3,1.8,0.8,2.5,1.3c0.8,0.5,1.4,1.2,1.8,2l-3.6,1.9c-0.3-0.5-0.8-1-1.4-1.4s-1.2-0.6-1.8-0.8
			c-0.5-0.1-1.2-0.2-2-0.3c-0.8,0-1.6,0-2.5,0.1c-0.8,0.1-1.6,0.3-2.3,0.6s-1.3,0.7-1.7,1.2c-0.2,0.3-0.3,0.6-0.3,0.9
			c0,0.3,0.1,0.6,0.3,0.9c0.2,0.3,0.5,0.5,0.8,0.7c0.4,0.2,0.9,0.4,1.4,0.6c0.5,0.2,1,0.3,1.5,0.4c1.3,0.2,2.6,0.4,3.9,0.5
			c1.3,0.1,2.6,0.4,3.8,0.8c1.7,0.6,3,1.4,3.8,2.6c0.9,1.1,1.3,2.3,1.4,3.6c0,1.3-0.3,2.5-1.2,3.6c-0.8,1.2-2.1,2.1-3.7,2.7
			c-0.9,0.3-1.9,0.5-2.9,0.6c-1,0.1-2,0.2-2.9,0.2c-1,0-2.2-0.1-3.5-0.3c-1.3-0.2-2.4-0.6-3.5-1.2c-1.1-0.5-2-1.2-2.8-2.1
			s-1.1-1.9-1.1-3.2h4c0,0.5,0.3,1,0.9,1.4s1.2,0.7,2,1c0.8,0.2,1.5,0.4,2.3,0.5C572.2,275.3,572.8,275.4,573.2,275.4z"/>
	</g>
	<g id="XMLID_1401_">
		<path class="st4" d="M154.7,277.8v-63.5h11v25h21.6v-25h11v63.5h-11V250h-21.6v27.8H154.7z"/>
		<path class="st4" d="M211,277.8v-63.5h40.4V225H222v14.1h27.4v10.7H222v17.3h30.5v10.7H211z"/>
		<path class="st4" d="M263.4,277.8v-63h11v52.3h27.4v10.7H263.4z"/>
		<path class="st4" d="M360,277.8h-12l-4.8-14.4h-21.8l-4.5,14.4h-11.7l21.2-63.5h11.6L360,277.8z M339.8,252.7l-7.5-23.6l-7.4,23.6
			H339.8z"/>
	</g>
	<g id="XMLID_1386_">
		<path id="XMLID_1400_" class="st4" d="M111,315.6c1.4-1.9-0.2-3.6-0.2-5.3c-0.3-9.6-0.6-19.1-1.2-28.7
			c-1.2-21.6-2.5-43.1-4.2-64.7c-1.1-13.2-1.7-26.5-2.7-39.7c-1.2-16-2.4-31.9-3.9-47.9c-0.6-6.3-0.6-12.6-2-18.9
			c-3-13-9-24.2-18.2-33.8C71.5,69.2,63,64,53.8,59.9c-13.2-5.9-26.2-12-39.3-18.1c-4.8-2.2-9.7-4.4-14.4-7c2.6,0.5,5.3,0.7,7.9,1.5
			c11.6,3.3,23.5,5.9,35.4,7.9c24.3,4,48.7,5.9,73.4,4.1c18.7-1.4,37-4.3,55.1-9.1c14.4-3.8,28.5-8.7,42.2-14.5
			c8.8-3.7,17.4-7.9,26.1-11.9c-4.5,3.9-9.5,7.1-14.4,10.2c-10.9,6.9-21.4,14.3-32,21.7c-11.9,8.3-23.9,16.6-35.6,25.3
			c-12,9-20,20.9-24.4,35.3c-2.2,7.1-2.6,14.5-3.5,21.8c-2,16.2-4,32.3-5.9,48.5c-1.6,13.3-3,26.5-4.4,39.8c-2,18.7-4,37.5-5.7,56.3
			c-0.9,10.5-2,20.9-2.3,31.5c-0.1,3.4-0.3,6.8-1.3,10.1C110.4,313.9,110.3,314.6,111,315.6z"/>
		<path id="XMLID_1399_" class="st4" d="M112.5,0c10.4,0,18.5,8.1,18.6,18.4c0.1,10.6-8.1,18.8-18.8,18.8
			c-10.2,0-18.4-8.4-18.4-18.7C93.9,8.3,102.2,0,112.5,0z"/>
		<g id="XMLID_1393_">
			<path id="XMLID_1396_" class="st4" d="M221.1,78.7h29.2v90.5h-29.2v-4.7c-6.7,4.5-14.8,6.9-23.1,6.9c-24.7,0-44.8-21.3-44.8-47.5
				c0-26.2,20.1-47.3,44.8-47.3c8.3,0,16.4,2.4,23.1,6.9V78.7z M220.9,114.2c-3.7-6.7-10.1-10.8-17.4-10.8
				c-10.8,0-19.7,9.1-19.7,20.5c0,11.4,8.9,20.7,19.7,20.7c7.3,0,13.8-4.3,17.4-10.8V114.2z"/>
			<path id="XMLID_1394_" class="st4" d="M270.2,51.9l29-21.1v138.3h-29V51.9z"/>
		</g>
		<path id="XMLID_1391_" class="st4" d="M482.8,78.8c28.6,0,30.8,24.1,30.8,42.4v50.1h-29.2v-40.4c0-8.1,2-25.4-10.1-25.4
			c-6.3,0-10.3,3.7-15.4,9.1v56.6h-29V80.6h29v11.2C464.7,82.8,471,78.8,482.8,78.8z"/>
		<path id="XMLID_1390_" class="st4" d="M583.4,149.7c-1-2.5-1.8-5-2.5-7.6h-6.3c-9.1,0-13.8,0.2-13.8-7.3v-25.4h20.3
			c1.7-6.2,4.3-12.1,7.7-17.4c2.7-4.2,5.9-8,9.5-11.4h-37.4V47.5L531.6,69v11.6h-11.6v28.8h11.6v28.4c0,28.4,14,33.5,37.7,33.5h28.5
			C591.7,165.3,586.7,157.9,583.4,149.7z"/>
		<path id="XMLID_1387_" class="st4" d="M657.8,80.8H687v90.5h-29.2v-4.7c-6.7,4.5-14.8,6.9-23.1,6.9c-24.7,0-44.8-21.3-44.8-47.5
			c0-26.2,20.1-47.3,44.8-47.3c8.3,0,16.4,2.4,23.1,6.9V80.8z M657.6,116.3c-3.7-6.7-10.1-10.8-17.4-10.8
			c-10.8,0-19.7,9.1-19.7,20.5c0,11.4,8.9,20.7,19.7,20.7c7.3,0,13.8-4.3,17.4-10.8V116.3z"/>
	</g>
</g>
</svg>
