<?xml version="1.0" encoding="utf-8"?>
<!-- Generator: Adobe Illustrator 26.0.0, SVG Export Plug-In . SVG Version: 6.00 Build 0)  -->
<svg version="1.1" id="Layer_1" xmlns="http://www.w3.org/2000/svg" xmlns:xlink="http://www.w3.org/1999/xlink" x="0px" y="0px"
	 viewBox="0 0 686.9 315.6" style="enable-background:new 0 0 686.9 315.6;" xml:space="preserve">
<style type="text/css">
	.st0{fill:#080808;}
	.st1{fill:#E72226;}
	.st2{fill:#5CBA4F;}
	.st3{enable-background:new    ;}
</style>
<g id="XMLID_1_">
	<g id="XMLID_2_">
		<g id="XMLID_3_">
			<circle id="XMLID_8_" class="st0" cx="330.3" cy="64.7" r="2.3"/>
			<circle id="XMLID_9_" class="st0" cx="326.7" cy="68.4" r="2.3"/>
			<circle id="XMLID_10_" class="st0" cx="323" cy="72.1" r="2.3"/>
			<circle id="XMLID_11_" class="st0" cx="319.3" cy="75.8" r="2.3"/>
			<circle id="XMLID_12_" class="st0" cx="315.6" cy="79.5" r="2.3"/>
		</g>
		<g id="XMLID_20_">
			<circle id="XMLID_29_" class="st0" cx="334" cy="75.8" r="2.3"/>
			<circle id="XMLID_28_" class="st0" cx="330.3" cy="79.5" r="2.3"/>
			<circle id="XMLID_27_" class="st0" cx="326.7" cy="83.2" r="2.3"/>
			<circle id="XMLID_26_" class="st0" cx="323" cy="86.9" r="2.3"/>
			<circle id="XMLID_25_" class="st0" cx="319.3" cy="90.6" r="2.3"/>
		</g>
		<g id="XMLID_36_">
			<circle id="XMLID_47_" class="st0" cx="348.8" cy="75.8" r="2.3"/>
			<circle id="XMLID_46_" class="st0" cx="345.1" cy="79.5" r="2.3"/>
			<circle id="XMLID_45_" class="st0" cx="341.4" cy="83.2" r="2.3"/>
			<circle id="XMLID_44_" class="st0" cx="337.7" cy="86.9" r="2.3"/>
			<circle id="XMLID_43_" class="st0" cx="334" cy="90.6" r="2.3"/>
			<circle id="XMLID_42_" class="st0" cx="330.3" cy="94.2" r="2.3"/>
			<circle id="XMLID_41_" class="st0" cx="326.7" cy="97.9" r="2.3"/>
		</g>
		<g id="XMLID_52_">
			<circle id="XMLID_67_" class="st0" cx="358.7" cy="79.2" r="2.3"/>
			<circle id="XMLID_66_" class="st0" cx="355" cy="82.9" r="2.3"/>
			<circle id="XMLID_65_" class="st0" cx="351.4" cy="86.6" r="2.3"/>
			<circle id="XMLID_64_" class="st0" cx="347.7" cy="90.3" r="2.3"/>
			<circle id="XMLID_63_" class="st0" cx="344" cy="93.9" r="2.3"/>
			<circle id="XMLID_62_" class="st0" cx="340.3" cy="97.6" r="2.3"/>
			<circle id="XMLID_61_" class="st0" cx="336.6" cy="101.3" r="2.3"/>
			<circle id="XMLID_60_" class="st0" cx="332.9" cy="105" r="2.3"/>
			<circle id="XMLID_59_" class="st0" cx="329.2" cy="108.7" r="2.3"/>
			<circle id="XMLID_58_" class="st0" cx="325.5" cy="112.4" r="2.3"/>
			<circle id="XMLID_57_" class="st0" cx="321.9" cy="116.1" r="2.3"/>
			<circle id="XMLID_56_" class="st0" cx="318.2" cy="119.8" r="2.3"/>
			<circle id="XMLID_55_" class="st0" cx="314.5" cy="123.4" r="2.3"/>
			<circle id="XMLID_54_" class="st0" cx="310.8" cy="127.1" r="2.3"/>
		</g>
		<g id="XMLID_68_">
			<circle id="XMLID_83_" class="st0" cx="366.1" cy="86.6" r="2.3"/>
			<circle id="XMLID_82_" class="st0" cx="362.4" cy="90.3" r="2.3"/>
			<circle id="XMLID_81_" class="st0" cx="358.7" cy="93.9" r="2.3"/>
			<circle id="XMLID_80_" class="st0" cx="355" cy="97.6" r="2.3"/>
			<circle id="XMLID_79_" class="st0" cx="351.4" cy="101.3" r="2.3"/>
			<circle id="XMLID_78_" class="st0" cx="347.7" cy="105" r="2.3"/>
			<circle id="XMLID_77_" class="st0" cx="344" cy="108.7" r="2.3"/>
			<circle id="XMLID_76_" class="st0" cx="340.3" cy="112.4" r="2.3"/>
			<circle id="XMLID_75_" class="st0" cx="336.6" cy="116.1" r="2.3"/>
			<circle id="XMLID_74_" class="st0" cx="332.9" cy="119.8" r="2.3"/>
			<circle id="XMLID_73_" class="st0" cx="329.2" cy="123.4" r="2.3"/>
			<circle id="XMLID_72_" class="st0" cx="325.5" cy="127.1" r="2.3"/>
			<circle id="XMLID_71_" class="st0" cx="321.9" cy="130.8" r="2.3"/>
			<circle id="XMLID_70_" class="st0" cx="318.2" cy="134.5" r="2.3"/>
			<circle id="XMLID_69_" class="st0" cx="314.5" cy="138.2" r="2.3"/>
		</g>
		<g id="XMLID_84_">
			<circle id="XMLID_99_" class="st1" cx="368.1" cy="98.4" r="2.3"/>
			<circle id="XMLID_98_" class="st1" cx="364.4" cy="102.1" r="2.3"/>
			<circle id="XMLID_97_" class="st1" cx="360.7" cy="105.8" r="2.3"/>
			<circle id="XMLID_96_" class="st1" cx="357" cy="109.5" r="2.3"/>
			<circle id="XMLID_95_" class="st1" cx="353.3" cy="113.2" r="2.3"/>
			<circle id="XMLID_94_" class="st1" cx="349.6" cy="116.9" r="2.3"/>
			<circle id="XMLID_93_" class="st1" cx="346" cy="120.6" r="2.3"/>
			<circle id="XMLID_92_" class="st1" cx="342.3" cy="124.2" r="2.3"/>
			<circle id="XMLID_91_" class="st1" cx="338.6" cy="127.9" r="2.3"/>
			<circle id="XMLID_90_" class="st1" cx="334.9" cy="131.6" r="2.3"/>
			<circle id="XMLID_89_" class="st1" cx="331.2" cy="135.3" r="2.3"/>
			<circle id="XMLID_88_" class="st1" cx="327.5" cy="139" r="2.3"/>
			<circle id="XMLID_87_" class="st1" cx="323.8" cy="142.7" r="2.3"/>
			<circle id="XMLID_86_" class="st1" cx="320.1" cy="146.4" r="2.3"/>
			<circle id="XMLID_85_" class="st1" cx="316.5" cy="150.1" r="2.3"/>
		</g>
		<g id="XMLID_100_">
			<circle id="XMLID_115_" class="st1" cx="374.6" cy="105.8" r="2.3"/>
			<circle id="XMLID_114_" class="st1" cx="371" cy="109.5" r="2.3"/>
			<circle id="XMLID_113_" class="st1" cx="367.3" cy="113.2" r="2.3"/>
			<circle id="XMLID_112_" class="st1" cx="363.6" cy="116.9" r="2.3"/>
			<circle id="XMLID_111_" class="st1" cx="359.9" cy="120.6" r="2.3"/>
			<circle id="XMLID_110_" class="st1" cx="356.2" cy="124.2" r="2.3"/>
			<circle id="XMLID_109_" class="st1" cx="352.5" cy="127.9" r="2.3"/>
			<circle id="XMLID_108_" class="st1" cx="348.8" cy="131.6" r="2.3"/>
			<circle id="XMLID_107_" class="st1" cx="345.1" cy="135.3" r="2.3"/>
			<circle id="XMLID_106_" class="st1" cx="341.5" cy="139" r="2.3"/>
			<circle id="XMLID_105_" class="st1" cx="337.8" cy="142.7" r="2.3"/>
			<circle id="XMLID_104_" class="st1" cx="334.1" cy="146.4" r="2.3"/>
			<circle id="XMLID_103_" class="st1" cx="330.4" cy="150.1" r="2.3"/>
		</g>
		<g id="XMLID_260_">
			<circle id="XMLID_263_" class="st1" cx="379" cy="87.5" r="2.3"/>
			<circle id="XMLID_262_" class="st1" cx="375.3" cy="91.2" r="2.3"/>
			<circle id="XMLID_261_" class="st1" cx="371.6" cy="94.9" r="2.3"/>
		</g>
		<g id="XMLID_244_">
			<circle id="XMLID_251_" class="st1" cx="400.3" cy="80.1" r="2.3"/>
			<circle id="XMLID_250_" class="st1" cx="396.6" cy="83.8" r="2.3"/>
			<circle id="XMLID_249_" class="st1" cx="393" cy="87.5" r="2.3"/>
			<circle id="XMLID_248_" class="st1" cx="389.3" cy="91.2" r="2.3"/>
			<circle id="XMLID_247_" class="st1" cx="385.6" cy="94.9" r="2.3"/>
			<circle id="XMLID_246_" class="st1" cx="381.9" cy="98.6" r="2.3"/>
			<circle id="XMLID_245_" class="st1" cx="378.2" cy="102.2" r="2.3"/>
		</g>
		<g id="XMLID_276_">
			<g id="XMLID_116_">
				<circle id="XMLID_131_" class="st1" cx="382.3" cy="113.2" r="2.3"/>
				<circle id="XMLID_130_" class="st1" cx="378.7" cy="116.9" r="2.3"/>
				<circle id="XMLID_129_" class="st1" cx="375" cy="120.6" r="2.3"/>
				<circle id="XMLID_128_" class="st1" cx="371.3" cy="124.2" r="2.3"/>
				<circle id="XMLID_127_" class="st1" cx="367.6" cy="127.9" r="2.3"/>
				<circle id="XMLID_126_" class="st1" cx="363.9" cy="131.6" r="2.3"/>
				<circle id="XMLID_125_" class="st1" cx="360.2" cy="135.3" r="2.3"/>
				<circle id="XMLID_124_" class="st1" cx="356.5" cy="139" r="2.3"/>
				<circle id="XMLID_123_" class="st1" cx="352.8" cy="142.7" r="2.3"/>
				<circle id="XMLID_122_" class="st1" cx="349.2" cy="146.4" r="2.3"/>
				<circle id="XMLID_121_" class="st1" cx="345.5" cy="150.1" r="2.3"/>
				<circle id="XMLID_120_" class="st1" cx="341.8" cy="153.7" r="2.3"/>
				<circle id="XMLID_119_" class="st1" cx="338.1" cy="157.4" r="2.3"/>
			</g>
			<g id="XMLID_228_">
				<circle id="XMLID_236_" class="st1" cx="411.7" cy="83.8" r="2.3"/>
				<circle id="XMLID_235_" class="st1" cx="408" cy="87.5" r="2.3"/>
				<circle id="XMLID_234_" class="st1" cx="404.3" cy="91.2" r="2.3"/>
				<circle id="XMLID_233_" class="st1" cx="400.7" cy="94.9" r="2.3"/>
				<circle id="XMLID_232_" class="st1" cx="397" cy="98.6" r="2.3"/>
				<circle id="XMLID_231_" class="st1" cx="393.3" cy="102.2" r="2.3"/>
				<circle id="XMLID_230_" class="st1" cx="389.6" cy="105.9" r="2.3"/>
				<circle id="XMLID_229_" class="st1" cx="385.9" cy="109.6" r="2.3"/>
			</g>
		</g>
		<g id="XMLID_19_">
			<g id="XMLID_132_">
				<circle id="XMLID_147_" class="st1" cx="389.2" cy="119.1" r="2.3"/>
				<circle id="XMLID_146_" class="st1" cx="385.5" cy="122.8" r="2.3"/>
				<circle id="XMLID_145_" class="st1" cx="381.8" cy="126.5" r="2.3"/>
				<circle id="XMLID_144_" class="st1" cx="378.2" cy="130.2" r="2.3"/>
				<circle id="XMLID_143_" class="st1" cx="374.5" cy="133.9" r="2.3"/>
				<circle id="XMLID_142_" class="st1" cx="370.8" cy="137.6" r="2.3"/>
				<circle id="XMLID_141_" class="st1" cx="367.1" cy="141.3" r="2.3"/>
				<circle id="XMLID_140_" class="st1" cx="363.4" cy="145" r="2.3"/>
				<circle id="XMLID_139_" class="st1" cx="359.7" cy="148.6" r="2.3"/>
				<circle id="XMLID_138_" class="st1" cx="356" cy="152.3" r="2.3"/>
				<circle id="XMLID_137_" class="st1" cx="352.3" cy="156" r="2.3"/>
				<circle id="XMLID_136_" class="st1" cx="348.7" cy="159.7" r="2.3"/>
			</g>
			<g id="XMLID_212_">
				<circle id="XMLID_216_" class="st1" cx="403.8" cy="104.5" r="2.3"/>
				<circle id="XMLID_215_" class="st1" cx="400.2" cy="108.2" r="2.3"/>
				<circle id="XMLID_214_" class="st1" cx="396.5" cy="111.9" r="2.3"/>
				<circle id="XMLID_213_" class="st1" cx="392.8" cy="115.6" r="2.3"/>
			</g>
		</g>
		<g id="XMLID_148_">
			<circle id="XMLID_163_" class="st2" cx="405.8" cy="117.9" r="2.3"/>
			<circle id="XMLID_162_" class="st2" cx="402.1" cy="121.6" r="2.3"/>
			<circle id="XMLID_161_" class="st2" cx="398.4" cy="125.3" r="2.3"/>
			<circle id="XMLID_160_" class="st2" cx="394.7" cy="129" r="2.3"/>
			<circle id="XMLID_159_" class="st2" cx="391" cy="132.7" r="2.3"/>
			<circle id="XMLID_158_" class="st2" cx="387.3" cy="136.4" r="2.3"/>
			<circle id="XMLID_157_" class="st2" cx="383.6" cy="140" r="2.3"/>
			<circle id="XMLID_156_" class="st2" cx="379.9" cy="143.7" r="2.3"/>
			<circle id="XMLID_155_" class="st2" cx="376.3" cy="147.4" r="2.3"/>
			<circle id="XMLID_154_" class="st2" cx="372.6" cy="151.1" r="2.3"/>
			<circle id="XMLID_153_" class="st2" cx="368.9" cy="154.8" r="2.3"/>
			<circle id="XMLID_152_" class="st2" cx="365.2" cy="158.5" r="2.3"/>
			<circle id="XMLID_151_" class="st2" cx="361.5" cy="162.2" r="2.3"/>
			<circle id="XMLID_150_" class="st2" cx="357.8" cy="165.9" r="2.3"/>
		</g>
		<g id="XMLID_164_">
			<circle id="XMLID_178_" class="st2" cx="406.7" cy="131.3" r="2.3"/>
			<circle id="XMLID_177_" class="st2" cx="403" cy="134.9" r="2.3"/>
			<circle id="XMLID_176_" class="st2" cx="399.3" cy="138.6" r="2.3"/>
			<circle id="XMLID_175_" class="st2" cx="395.6" cy="142.3" r="2.3"/>
			<circle id="XMLID_174_" class="st2" cx="391.9" cy="146" r="2.3"/>
			<circle id="XMLID_173_" class="st2" cx="388.2" cy="149.7" r="2.3"/>
			<circle id="XMLID_172_" class="st2" cx="384.6" cy="153.4" r="2.3"/>
			<circle id="XMLID_171_" class="st2" cx="380.9" cy="157.1" r="2.3"/>
			<circle id="XMLID_170_" class="st2" cx="377.2" cy="160.8" r="2.3"/>
			<circle id="XMLID_169_" class="st2" cx="373.5" cy="164.4" r="2.3"/>
			<circle id="XMLID_168_" class="st2" cx="369.8" cy="168.1" r="2.3"/>
			<circle id="XMLID_167_" class="st2" cx="366.1" cy="171.8" r="2.3"/>
			<circle id="XMLID_166_" class="st2" cx="362.4" cy="175.5" r="2.3"/>
		</g>
		<g id="XMLID_180_">
			<circle id="XMLID_193_" class="st2" cx="408" cy="143.2" r="2.3"/>
			<circle id="XMLID_192_" class="st2" cx="404.3" cy="146.9" r="2.3"/>
			<circle id="XMLID_191_" class="st2" cx="400.7" cy="150.6" r="2.3"/>
			<circle id="XMLID_190_" class="st2" cx="397" cy="154.3" r="2.3"/>
			<circle id="XMLID_189_" class="st2" cx="393.3" cy="158" r="2.3"/>
			<circle id="XMLID_188_" class="st2" cx="389.6" cy="161.7" r="2.3"/>
			<circle id="XMLID_187_" class="st2" cx="385.9" cy="165.4" r="2.3"/>
			<circle id="XMLID_186_" class="st2" cx="382.2" cy="169" r="2.3"/>
			<circle id="XMLID_185_" class="st2" cx="378.5" cy="172.7" r="2.3"/>
			<circle id="XMLID_184_" class="st2" cx="374.8" cy="176.4" r="2.3"/>
			<circle id="XMLID_183_" class="st2" cx="371.2" cy="180.1" r="2.3"/>
		</g>
		<g id="XMLID_196_">
			<circle id="XMLID_210_" class="st2" cx="419.1" cy="146.9" r="2.3"/>
			<circle id="XMLID_209_" class="st2" cx="415.4" cy="150.6" r="2.3"/>
			<circle id="XMLID_208_" class="st2" cx="411.7" cy="154.3" r="2.3"/>
			<circle id="XMLID_207_" class="st2" cx="408" cy="158" r="2.3"/>
			<circle id="XMLID_203_" class="st2" cx="393.3" cy="172.7" r="2.3"/>
			<circle id="XMLID_202_" class="st2" cx="389.6" cy="176.4" r="2.3"/>
			<circle id="XMLID_201_" class="st2" cx="385.9" cy="180.1" r="2.3"/>
			<circle id="XMLID_200_" class="st2" cx="382.2" cy="183.8" r="2.3"/>
			<circle id="XMLID_199_" class="st2" cx="378.5" cy="187.5" r="2.3"/>
		</g>
	</g>
	<path id="XMLID_409_" class="st2" d="M616.5,208.8c-0.2-1.6,0.2-2.4,1.9-2.3c1.3,0.1,2.2,0.2,2.1,1.8c-0.1,1.4,0,2.7-2,2.7
		C617,210.9,616.2,210.3,616.5,208.8z"/>
	<path id="XMLID_408_" class="st2" d="M574.3,206.6c1.8-0.3,2,0.9,2,2.2c0,1.4-0.5,2-2,2.1c-1.7,0-2.1-0.7-2.1-2.2
		C572.2,207.1,572.7,206.3,574.3,206.6z"/>
	<g id="XMLID_4_">
		<circle id="XMLID_31_" class="st2" cx="383.6" cy="213.8" r="2.3"/>
		<circle id="XMLID_30_" class="st2" cx="383.6" cy="219" r="2.3"/>
		<circle id="XMLID_24_" class="st2" cx="383.6" cy="224.2" r="2.3"/>
		<circle id="XMLID_23_" class="st2" cx="383.6" cy="229.5" r="2.3"/>
		<circle id="XMLID_22_" class="st2" cx="383.6" cy="234.7" r="2.3"/>
		<circle id="XMLID_21_" class="st2" cx="383.6" cy="239.9" r="2.3"/>
		<circle id="XMLID_17_" class="st2" cx="383.6" cy="245.1" r="2.3"/>
		<circle id="XMLID_16_" class="st2" cx="383.6" cy="250.3" r="2.3"/>
		<circle id="XMLID_15_" class="st2" cx="383.6" cy="255.5" r="2.3"/>
		<circle id="XMLID_14_" class="st2" cx="383.6" cy="260.7" r="2.3"/>
		<circle id="XMLID_13_" class="st2" cx="383.6" cy="266" r="2.3"/>
		<circle id="XMLID_7_" class="st2" cx="383.6" cy="271.2" r="2.3"/>
		<circle id="XMLID_6_" class="st2" cx="383.6" cy="276.4" r="2.3"/>
		<circle id="XMLID_5_" class="st2" cx="383.6" cy="281.6" r="2.3"/>
	</g>
	<g class="st3">
		<path class="st2" d="M399.3,239.2v-22.5h3.4v3.2c0.7-1.1,1.6-2,2.8-2.7c1.2-0.7,2.5-1,4-1c1.7,0,3,0.3,4.1,1s1.8,1.7,2.3,2.9
			c1.8-2.6,4.1-3.9,7-3.9c2.2,0,4,0.6,5.2,1.9c1.2,1.2,1.8,3.1,1.8,5.7v15.5h-3.8v-14.2c0-1.5-0.1-2.6-0.4-3.3
			c-0.2-0.7-0.7-1.2-1.3-1.6c-0.7-0.4-1.4-0.6-2.3-0.6c-1.6,0-2.9,0.5-3.9,1.6s-1.6,2.7-1.6,5.1v13.1h-3.9v-14.6
			c0-1.7-0.3-3-0.9-3.8s-1.6-1.3-3.1-1.3c-1.1,0-2.1,0.3-3,0.8c-0.9,0.6-1.6,1.4-2,2.5s-0.6,2.7-0.6,4.7v11.7h-3.8V239.2z"/>
		<path class="st2" d="M440.1,227.9c0-4.2,1.2-7.3,3.5-9.3c1.9-1.7,4.3-2.5,7.1-2.5c3.1,0,5.6,1,7.6,3s2.9,4.8,2.9,8.4
			c0,2.9-0.4,5.2-1.3,6.8s-2.1,3-3.8,3.9s-3.5,1.4-5.4,1.4c-3.2,0-5.7-1-7.6-3C441.1,234.7,440.1,231.7,440.1,227.9z M444,227.9
			c0,2.9,0.6,5,1.9,6.5c1.3,1.4,2.8,2.2,4.8,2.2c1.9,0,3.5-0.7,4.7-2.2c1.3-1.4,1.9-3.6,1.9-6.6c0-2.8-0.6-4.9-1.9-6.3
			s-2.8-2.2-4.7-2.2c-1.9,0-3.5,0.7-4.8,2.1C444.6,222.9,444,225.1,444,227.9z"/>
		<path class="st2" d="M471.7,239.2v-22.5h3.4v3.2c1.7-2.5,4-3.7,7.2-3.7c1.4,0,2.6,0.2,3.7,0.7c1.1,0.5,2,1.1,2.6,1.9
			s1,1.7,1.2,2.8c0.1,0.7,0.2,1.9,0.2,3.7v13.8h-3.8v-13.7c0-1.6-0.1-2.7-0.4-3.5s-0.8-1.4-1.6-1.8c-0.8-0.5-1.6-0.7-2.7-0.7
			c-1.6,0-3,0.5-4.2,1.5s-1.8,3-1.8,5.9v12.3h-3.8V239.2z"/>
		<path class="st2" d="M517.2,231.9l3.9,0.5c-0.6,2.3-1.8,4.1-3.5,5.4c-1.7,1.3-3.8,1.9-6.4,1.9c-3.3,0-5.9-1-7.8-3
			c-1.9-2-2.9-4.9-2.9-8.5c0-3.8,1-6.7,2.9-8.8c2-2.1,4.5-3.1,7.6-3.1c3,0,5.5,1,7.4,3.1c1.9,2,2.9,4.9,2.9,8.7c0,0.2,0,0.6,0,1
			h-16.8c0.1,2.5,0.8,4.4,2.1,5.7c1.3,1.3,2.8,2,4.7,2c1.4,0,2.6-0.4,3.6-1.1C515.8,234.7,516.6,233.6,517.2,231.9z M504.7,225.8
			h12.6c-0.2-1.9-0.7-3.3-1.4-4.3c-1.2-1.5-2.8-2.2-4.7-2.2c-1.8,0-3.2,0.6-4.4,1.8C505.5,222.2,504.8,223.8,504.7,225.8z"/>
		<path class="st2" d="M540.3,235.8l0.6,3.4c-1.1,0.2-2,0.3-2.9,0.3c-1.4,0-2.5-0.2-3.2-0.7c-0.8-0.4-1.3-1-1.6-1.7
			c-0.3-0.7-0.5-2.2-0.5-4.5v-13h-2.8v-3h2.8V211l3.8-2.3v7.9h3.8v3h-3.8v13.2c0,1.1,0.1,1.8,0.2,2.1c0.1,0.3,0.4,0.6,0.7,0.7
			c0.3,0.2,0.7,0.3,1.3,0.3C539,235.9,539.6,235.9,540.3,235.8z"/>
		<path class="st2" d="M550,212.5v-4.4h3.8v4.4H550z M550,239.2v-22.5h3.8v22.5H550z"/>
		<path class="st2" d="M563.6,239.2v-3.1l14.3-16.5c-1.6,0.1-3.1,0.1-4.3,0.1h-9.2v-3.1h18.4v2.5l-12.1,14.4l-2.4,2.6
			c1.7-0.1,3.3-0.2,4.8-0.2h10.4v3.3H563.6z"/>
		<path class="st2" d="M593.4,212.5v-4.4h3.8v4.4H593.4z M593.4,239.2v-22.5h3.8v22.5H593.4z"/>
		<path class="st2" d="M609,239.2v-22.5h3.4v3.2c1.7-2.5,4-3.7,7.2-3.7c1.4,0,2.6,0.2,3.7,0.7c1.1,0.5,2,1.1,2.6,1.9s1,1.7,1.2,2.8
			c0.1,0.7,0.2,1.9,0.2,3.7v13.8h-3.8v-13.7c0-1.6-0.1-2.7-0.4-3.5s-0.8-1.4-1.6-1.8c-0.8-0.5-1.6-0.7-2.7-0.7c-1.6,0-3,0.5-4.2,1.5
			c-1.2,1-1.8,3-1.8,5.9v12.3H609V239.2z"/>
		<path class="st2" d="M638.4,241.1l3.7,0.6c0.2,1.1,0.6,2,1.3,2.5c0.9,0.7,2.2,1.1,3.9,1.1c1.8,0,3.1-0.4,4.1-1.1s1.6-1.7,2-3
			c0.2-0.8,0.3-2.4,0.3-4.9c-1.7,2-3.7,2.9-6.2,2.9c-3.1,0-5.5-1.1-7.2-3.4c-1.7-2.2-2.5-4.9-2.5-8c0-2.1,0.4-4.1,1.2-5.9
			c0.8-1.8,1.9-3.2,3.4-4.2s3.2-1.5,5.2-1.5c2.7,0,4.8,1.1,6.6,3.2v-2.7h3.5v19.5c0,3.5-0.4,6-1.1,7.5s-1.8,2.6-3.4,3.5
			c-1.5,0.8-3.5,1.3-5.7,1.3c-2.7,0-4.9-0.6-6.5-1.8C639.2,245.3,638.4,243.5,638.4,241.1z M641.6,227.5c0,3,0.6,5.1,1.8,6.5
			c1.2,1.4,2.6,2,4.4,2c1.8,0,3.2-0.7,4.4-2c1.2-1.3,1.8-3.5,1.8-6.4c0-2.8-0.6-4.8-1.8-6.2c-1.2-1.4-2.7-2.1-4.4-2.1
			c-1.7,0-3.1,0.7-4.3,2.1C642.3,222.8,641.6,224.8,641.6,227.5z"/>
	</g>
	<g class="st3">
		<path class="st2" d="M407.7,275.8l0.6,3.4c-1.1,0.2-2,0.3-2.9,0.3c-1.4,0-2.5-0.2-3.2-0.7c-0.8-0.4-1.3-1-1.6-1.7
			c-0.3-0.7-0.5-2.2-0.5-4.5v-13h-2.8v-3h2.8V251l3.8-2.3v7.9h3.8v3h-3.8v13.2c0,1.1,0.1,1.8,0.2,2.1c0.1,0.3,0.4,0.6,0.7,0.7
			c0.3,0.2,0.7,0.3,1.3,0.3C406.4,275.9,407,275.9,407.7,275.8z"/>
		<path class="st2" d="M432.1,276.4c-1.4,1.2-2.8,2.1-4.1,2.5c-1.3,0.5-2.7,0.7-4.2,0.7c-2.5,0-4.4-0.6-5.7-1.8
			c-1.3-1.2-2-2.8-2-4.6c0-1.1,0.3-2.1,0.8-3s1.2-1.6,2-2.2s1.7-1,2.7-1.3c0.7-0.2,1.9-0.4,3.4-0.6c3.1-0.4,5.4-0.8,6.8-1.3
			c0-0.5,0-0.9,0-1c0-1.6-0.4-2.7-1.1-3.3c-1-0.9-2.4-1.3-4.3-1.3c-1.8,0-3.1,0.3-4,0.9s-1.5,1.7-1.9,3.3l-3.7-0.5
			c0.3-1.6,0.9-2.9,1.7-3.9c0.8-1,1.9-1.7,3.4-2.3s3.2-0.8,5.1-0.8s3.5,0.2,4.7,0.7s2.1,1,2.7,1.7s1,1.6,1.2,2.6
			c0.1,0.7,0.2,1.8,0.2,3.5v5.1c0,3.5,0.1,5.8,0.2,6.7c0.2,0.9,0.5,1.8,1,2.7h-4C432.5,278.4,432.2,277.5,432.1,276.4z M431.8,267.9
			c-1.4,0.6-3.5,1-6.2,1.4c-1.6,0.2-2.7,0.5-3.3,0.8c-0.7,0.3-1.2,0.7-1.5,1.2s-0.5,1.1-0.5,1.8c0,1,0.4,1.9,1.2,2.5
			c0.8,0.7,1.9,1,3.4,1s2.8-0.3,3.9-1c1.1-0.6,2-1.5,2.5-2.6c0.4-0.9,0.6-2.1,0.6-3.8v-1.3H431.8z"/>
		<path class="st2" d="M447.5,279.2v-31.1h3.8v31.1H447.5z"/>
		<path class="st2" d="M478.6,271.9l3.9,0.5c-0.6,2.3-1.8,4.1-3.5,5.4s-3.8,1.9-6.4,1.9c-3.3,0-5.9-1-7.8-3s-2.9-4.9-2.9-8.5
			c0-3.8,1-6.7,2.9-8.8c2-2.1,4.5-3.1,7.6-3.1c3,0,5.5,1,7.4,3.1s2.9,4.9,2.9,8.7c0,0.2,0,0.6,0,1h-16.8c0.1,2.5,0.8,4.4,2.1,5.7
			c1.3,1.3,2.8,2,4.7,2c1.4,0,2.6-0.4,3.6-1.1C477.2,274.7,478,273.6,478.6,271.9z M466.1,265.8h12.6c-0.2-1.9-0.7-3.3-1.4-4.3
			c-1.2-1.5-2.8-2.2-4.7-2.2c-1.8,0-3.2,0.6-4.4,1.8C466.9,262.2,466.2,263.8,466.1,265.8z"/>
		<path class="st2" d="M493.3,279.2v-22.5h3.4v3.2c1.7-2.5,4-3.7,7.2-3.7c1.4,0,2.6,0.2,3.7,0.7c1.1,0.5,2,1.1,2.6,1.9
			s1,1.7,1.2,2.8c0.1,0.7,0.2,1.9,0.2,3.7v13.8h-3.8v-13.7c0-1.6-0.1-2.7-0.4-3.5s-0.8-1.4-1.6-1.8c-0.8-0.5-1.6-0.7-2.7-0.7
			c-1.6,0-3,0.5-4.2,1.5s-1.8,3-1.8,5.9v12.3h-3.8V279.2z"/>
		<path class="st2" d="M531.8,275.8l0.6,3.4c-1.1,0.2-2,0.3-2.9,0.3c-1.4,0-2.5-0.2-3.2-0.7c-0.8-0.4-1.3-1-1.6-1.7
			c-0.3-0.7-0.5-2.2-0.5-4.5v-13h-2.8v-3h2.8V251l3.8-2.3v7.9h3.8v3H528v13.2c0,1.1,0.1,1.8,0.2,2.1c0.1,0.3,0.4,0.6,0.7,0.7
			c0.3,0.2,0.7,0.3,1.3,0.3C530.6,275.9,531.1,275.9,531.8,275.8z"/>
		<path class="st2" d="M540,272.5l3.8-0.6c0.2,1.5,0.8,2.7,1.8,3.5s2.3,1.2,4.1,1.2c1.8,0,3.1-0.4,3.9-1.1c0.8-0.7,1.3-1.6,1.3-2.5
			s-0.4-1.5-1.1-2c-0.5-0.3-1.8-0.8-3.9-1.3c-2.8-0.7-4.7-1.3-5.8-1.8s-1.9-1.2-2.5-2.1s-0.8-1.9-0.8-3c0-1,0.2-1.9,0.7-2.8
			s1.1-1.6,1.9-2.1c0.6-0.4,1.4-0.8,2.4-1.1c1-0.3,2.1-0.5,3.3-0.5c1.8,0,3.3,0.3,4.7,0.8s2.3,1.2,3,2.1c0.6,0.9,1.1,2,1.3,3.5
			l-3.7,0.5c-0.2-1.2-0.7-2.1-1.5-2.7c-0.8-0.7-2-1-3.4-1c-1.8,0-3,0.3-3.8,0.9c-0.8,0.6-1.1,1.3-1.1,2c0,0.5,0.2,0.9,0.5,1.3
			c0.3,0.4,0.8,0.7,1.5,1c0.4,0.1,1.5,0.5,3.4,1c2.7,0.7,4.6,1.3,5.7,1.8c1.1,0.5,1.9,1.1,2.5,2s0.9,2,0.9,3.3s-0.4,2.5-1.1,3.6
			s-1.8,2-3.2,2.6s-3,0.9-4.8,0.9c-2.9,0-5.2-0.6-6.7-1.8C541.4,276.7,540.4,274.9,540,272.5z"/>
	</g>
	<g class="st3">
		<path class="st1" d="M154.6,277.7v-63.5h11v25h21.6v-25h11v63.5h-11v-27.8h-21.6v27.8H154.6z"/>
		<path class="st1" d="M210.5,277.7v-63.5h40.4v10.7h-29.4V239h27.4v10.7h-27.4V267H252v10.7L210.5,277.7L210.5,277.7z"/>
		<path class="st1" d="M262.6,277.7v-63h11V267H301v10.7H262.6z"/>
		<path class="st1" d="M359,277.7h-12l-4.8-14.4h-21.8l-4.5,14.4h-11.7l21.2-63.5H337L359,277.7z M338.7,252.6l-7.5-23.6l-7.4,23.6
			H338.7z"/>
	</g>
	<g id="XMLID_18_">
		<path id="XMLID_560_" class="st0" d="M110.9,315.6c1.4-1.9-0.2-3.6-0.2-5.3c-0.3-9.6-0.6-19.1-1.2-28.7
			c-1.2-21.6-2.5-43.1-4.2-64.7c-1.1-13.2-1.7-26.5-2.7-39.7c-1.2-16-2.4-31.9-3.9-47.9c-0.6-6.3-0.6-12.6-2-18.9
			c-3-13-9-24.2-18.2-33.8C71.4,69.2,62.9,64,53.7,59.9c-13.2-5.9-26.2-12-39.3-18.1c-4.8-2.2-9.7-4.4-14.4-7
			c2.6,0.5,5.3,0.7,7.9,1.5c11.6,3.3,23.5,5.9,35.4,7.9c24.3,4,48.7,5.9,73.4,4.1c18.7-1.4,37-4.3,55.1-9.1
			c14.4-3.8,28.5-8.7,42.2-14.5c8.8-3.7,17.4-7.9,26.1-11.9c-4.5,3.9-9.5,7.1-14.4,10.2c-10.9,6.9-21.4,14.3-32,21.7
			c-12,8.2-24,16.5-35.7,25.2c-12,9-20,20.9-24.4,35.3c-2.2,7.1-2.6,14.5-3.5,21.8c-2,16.2-4,32.3-5.9,48.5
			c-1.6,13.3-3,26.5-4.4,39.8c-2,18.7-4,37.5-5.7,56.3c-0.9,10.5-2,20.9-2.3,31.5c-0.1,3.4-0.3,6.8-1.3,10.1
			C110.3,313.8,110.2,314.6,110.9,315.6z"/>
		<path id="XMLID_546_" class="st1" d="M112.3,0c10.4,0,18.5,8.1,18.6,18.4c0.1,10.6-8.1,18.8-18.8,18.8c-10.2,0-18.4-8.4-18.4-18.7
			C93.8,8.3,102,0,112.3,0z"/>
		<g id="XMLID_32_">
			<path id="XMLID_33_" d="M221,78.7h29.2v90.5H221v-4.7c-6.7,4.5-14.8,6.9-23.1,6.9c-24.7,0-44.8-21.3-44.8-47.5
				s20.1-47.3,44.8-47.3c8.3,0,16.4,2.4,23.1,6.9V78.7z M220.8,114.2c-3.7-6.7-10.1-10.8-17.4-10.8c-10.8,0-19.7,9.1-19.7,20.5
				c0,11.4,8.9,20.7,19.7,20.7c7.3,0,13.8-4.3,17.4-10.8V114.2z"/>
			<path id="XMLID_37_" d="M270.1,51.9l29-21.1v138.3h-29V51.9z"/>
		</g>
		<path id="XMLID_472_" d="M482.6,78.7c28.6,0,30.8,24.1,30.8,42.4v50.1h-29.2v-40.3c0-8.1,2-25.4-10.1-25.4
			c-6.3,0-10.3,3.7-15.4,9.1v56.6h-29V80.5h29v11.2C464.6,82.8,470.9,78.7,482.6,78.7z"/>
		<path id="XMLID_476_" d="M583.3,149.7c-1-2.5-1.8-5-2.5-7.6h-6.3c-9.1,0-13.8,0.2-13.8-7.3v-25.4H581c1.7-6.2,4.3-12.1,7.7-17.4
			c2.7-4.2,5.9-8,9.5-11.4h-37.5V47.5L531.5,69v11.6h-11.6v28.8h11.6v28.4c0,28.4,14,33.5,37.7,33.5h28.5
			C591.5,165.2,586.6,157.9,583.3,149.7z"/>
		<path id="XMLID_471_" d="M657.7,80.8h29.2v90.5h-29.2v-4.7c-6.7,4.5-14.8,6.9-23.1,6.9c-24.7,0-44.8-21.3-44.8-47.5
			s20.1-47.3,44.8-47.3c8.3,0,16.4,2.4,23.1,6.9V80.8z M657.5,116.3c-3.7-6.7-10.1-10.8-17.4-10.8c-10.8,0-19.7,9.1-19.7,20.5
			s8.9,20.7,19.7,20.7c7.3,0,13.8-4.3,17.4-10.8V116.3z"/>
	</g>
</g>
</svg>
