<?xml version="1.0" encoding="utf-8"?>
<!-- Generator: Adobe Illustrator 26.0.0, SVG Export Plug-In . SVG Version: 6.00 Build 0)  -->
<svg version="1.1" id="Layer_1" xmlns="http://www.w3.org/2000/svg" xmlns:xlink="http://www.w3.org/1999/xlink" x="0px" y="0px"
	 viewBox="0 0 700.3 315.6" style="enable-background:new 0 0 700.3 315.6;" xml:space="preserve">
<style type="text/css">
	.st0{fill:#070808;}
	.st1{fill:#D43330;}
	.st2{fill:#5CBA4F;}
	.st3{fill:#E72326;}
	.st4{fill:#FFFFFF;}
</style>
<g id="XMLID_2999_">
	<g id="XMLID_3034_">
		<g id="XMLID_3216_">
			<circle id="XMLID_3221_" class="st2" cx="330.5" cy="64.8" r="2.3"/>
			<circle id="XMLID_3220_" class="st2" cx="326.8" cy="68.5" r="2.3"/>
			<circle id="XMLID_3219_" class="st2" cx="323.1" cy="72.1" r="2.3"/>
			<circle id="XMLID_3218_" class="st2" cx="319.4" cy="75.8" r="2.3"/>
			<circle id="XMLID_3217_" class="st2" cx="315.7" cy="79.5" r="2.3"/>
		</g>
		<g id="XMLID_3210_">
			<circle id="XMLID_3215_" class="st2" cx="334.2" cy="75.8" r="2.3"/>
			<circle id="XMLID_3214_" class="st2" cx="330.5" cy="79.5" r="2.3"/>
			<circle id="XMLID_3213_" class="st2" cx="326.8" cy="83.2" r="2.3"/>
			<circle id="XMLID_3212_" class="st2" cx="323.1" cy="86.9" r="2.3"/>
			<circle id="XMLID_3211_" class="st2" cx="319.4" cy="90.6" r="2.3"/>
		</g>
		<g id="XMLID_3202_">
			<circle id="XMLID_3209_" class="st2" cx="348.9" cy="75.8" r="2.3"/>
			<circle id="XMLID_3208_" class="st2" cx="345.2" cy="79.5" r="2.3"/>
			<circle id="XMLID_3207_" class="st2" cx="341.5" cy="83.2" r="2.3"/>
			<circle id="XMLID_3206_" class="st2" cx="337.9" cy="86.9" r="2.3"/>
			<circle id="XMLID_3205_" class="st2" cx="334.2" cy="90.6" r="2.3"/>
			<circle id="XMLID_3204_" class="st2" cx="330.5" cy="94.3" r="2.3"/>
			<circle id="XMLID_3203_" class="st2" cx="326.8" cy="98" r="2.3"/>
		</g>
		<g id="XMLID_3187_">
			<circle id="XMLID_3201_" class="st2" cx="358.9" cy="79.2" r="2.3"/>
			<circle id="XMLID_3200_" class="st2" cx="355.2" cy="82.9" r="2.3"/>
			<circle id="XMLID_3199_" class="st2" cx="351.5" cy="86.6" r="2.3"/>
			<circle id="XMLID_3198_" class="st2" cx="347.8" cy="90.3" r="2.3"/>
			<circle id="XMLID_3197_" class="st2" cx="344.1" cy="94" r="2.3"/>
			<circle id="XMLID_3196_" class="st2" cx="340.4" cy="97.6" r="2.3"/>
			<circle id="XMLID_3195_" class="st2" cx="336.7" cy="101.3" r="2.3"/>
			<circle id="XMLID_3194_" class="st2" cx="333.1" cy="105" r="2.3"/>
			<circle id="XMLID_3193_" class="st2" cx="329.4" cy="108.7" r="2.3"/>
			<circle id="XMLID_3192_" class="st2" cx="325.7" cy="112.4" r="2.3"/>
			<circle id="XMLID_3191_" class="st2" cx="322" cy="116.1" r="2.3"/>
			<circle id="XMLID_3190_" class="st2" cx="318.3" cy="119.8" r="2.3"/>
			<circle id="XMLID_3189_" class="st2" cx="314.6" cy="123.5" r="2.3"/>
			<circle id="XMLID_3188_" class="st2" cx="310.9" cy="127.2" r="2.3"/>
		</g>
		<g id="XMLID_3171_">
			<circle id="XMLID_3186_" class="st2" cx="366.2" cy="86.6" r="2.3"/>
			<circle id="XMLID_3185_" class="st2" cx="362.6" cy="90.3" r="2.3"/>
			<circle id="XMLID_3184_" class="st2" cx="358.9" cy="94" r="2.3"/>
			<circle id="XMLID_3183_" class="st2" cx="355.2" cy="97.6" r="2.3"/>
			<circle id="XMLID_3182_" class="st2" cx="351.5" cy="101.3" r="2.3"/>
			<circle id="XMLID_3181_" class="st2" cx="347.8" cy="105" r="2.3"/>
			<circle id="XMLID_3180_" class="st2" cx="344.1" cy="108.7" r="2.3"/>
			<circle id="XMLID_3179_" class="st2" cx="340.4" cy="112.4" r="2.3"/>
			<circle id="XMLID_3178_" class="st2" cx="336.7" cy="116.1" r="2.3"/>
			<circle id="XMLID_3177_" class="st2" cx="333.1" cy="119.8" r="2.3"/>
			<circle id="XMLID_3176_" class="st2" cx="329.4" cy="123.5" r="2.3"/>
			<circle id="XMLID_3175_" class="st2" cx="325.7" cy="127.2" r="2.3"/>
			<circle id="XMLID_3174_" class="st2" cx="322" cy="130.8" r="2.3"/>
			<circle id="XMLID_3173_" class="st2" cx="318.3" cy="134.5" r="2.3"/>
			<circle id="XMLID_3172_" class="st2" cx="314.6" cy="138.2" r="2.3"/>
		</g>
		<g id="XMLID_3155_">
			<circle id="XMLID_3170_" class="st2" cx="368.2" cy="98.4" r="2.3"/>
			<circle id="XMLID_3169_" class="st2" cx="364.5" cy="102.1" r="2.3"/>
			<circle id="XMLID_3168_" class="st2" cx="360.8" cy="105.8" r="2.3"/>
			<circle id="XMLID_3167_" class="st2" cx="357.2" cy="109.5" r="2.3"/>
			<circle id="XMLID_3166_" class="st2" cx="353.5" cy="113.2" r="2.3"/>
			<circle id="XMLID_3165_" class="st2" cx="349.8" cy="116.9" r="2.3"/>
			<circle id="XMLID_3164_" class="st2" cx="346.1" cy="120.6" r="2.3"/>
			<circle id="XMLID_3163_" class="st2" cx="342.4" cy="124.3" r="2.3"/>
			<circle id="XMLID_3162_" class="st2" cx="338.7" cy="127.9" r="2.3"/>
			<circle id="XMLID_3161_" class="st2" cx="335" cy="131.6" r="2.3"/>
			<circle id="XMLID_3160_" class="st2" cx="331.3" cy="135.3" r="2.3"/>
			<circle id="XMLID_3159_" class="st2" cx="327.6" cy="139" r="2.3"/>
			<circle id="XMLID_3158_" class="st2" cx="324" cy="142.7" r="2.3"/>
			<circle id="XMLID_3157_" class="st2" cx="320.3" cy="146.4" r="2.3"/>
			<circle id="XMLID_3156_" class="st2" cx="316.6" cy="150.1" r="2.3"/>
		</g>
		<g id="XMLID_3141_">
			<circle id="XMLID_3154_" class="st2" cx="374.8" cy="105.8" r="2.3"/>
			<circle id="XMLID_3153_" class="st2" cx="371.1" cy="109.5" r="2.3"/>
			<circle id="XMLID_3152_" class="st2" cx="367.4" cy="113.2" r="2.3"/>
			<circle id="XMLID_3151_" class="st2" cx="363.7" cy="116.9" r="2.3"/>
			<circle id="XMLID_3150_" class="st2" cx="360" cy="120.6" r="2.3"/>
			<circle id="XMLID_3149_" class="st2" cx="356.3" cy="124.3" r="2.3"/>
			<circle id="XMLID_3148_" class="st2" cx="352.7" cy="127.9" r="2.3"/>
			<circle id="XMLID_3147_" class="st2" cx="349" cy="131.6" r="2.3"/>
			<circle id="XMLID_3146_" class="st2" cx="345.3" cy="135.3" r="2.3"/>
			<circle id="XMLID_3145_" class="st2" cx="341.6" cy="139" r="2.3"/>
			<circle id="XMLID_3144_" class="st2" cx="337.9" cy="142.7" r="2.3"/>
			<circle id="XMLID_3143_" class="st2" cx="334.2" cy="146.4" r="2.3"/>
			<circle id="XMLID_3142_" class="st2" cx="330.5" cy="150.1" r="2.3"/>
		</g>
		<g id="XMLID_3137_">
			<circle id="XMLID_3140_" class="st2" cx="379.2" cy="87.5" r="2.3"/>
			<circle id="XMLID_3139_" class="st2" cx="375.5" cy="91.2" r="2.3"/>
			<circle id="XMLID_3138_" class="st2" cx="371.8" cy="94.9" r="2.3"/>
		</g>
		<g id="XMLID_3129_">
			<circle id="XMLID_3136_" class="st2" cx="400.5" cy="80.1" r="2.3"/>
			<circle id="XMLID_3135_" class="st2" cx="396.8" cy="83.8" r="2.3"/>
			<circle id="XMLID_3134_" class="st2" cx="393.1" cy="87.5" r="2.3"/>
			<circle id="XMLID_3133_" class="st2" cx="389.4" cy="91.2" r="2.3"/>
			<circle id="XMLID_3132_" class="st2" cx="385.7" cy="94.9" r="2.3"/>
			<circle id="XMLID_3131_" class="st2" cx="382" cy="98.6" r="2.3"/>
			<circle id="XMLID_3130_" class="st2" cx="378.3" cy="102.3" r="2.3"/>
		</g>
		<g id="XMLID_3105_">
			<g id="XMLID_3115_">
				<circle id="XMLID_3128_" class="st2" cx="382.5" cy="113.2" r="2.3"/>
				<circle id="XMLID_3127_" class="st2" cx="378.8" cy="116.9" r="2.3"/>
				<circle id="XMLID_3126_" class="st2" cx="375.1" cy="120.6" r="2.3"/>
				<circle id="XMLID_3125_" class="st2" cx="371.4" cy="124.3" r="2.3"/>
				<circle id="XMLID_3124_" class="st2" cx="367.7" cy="127.9" r="2.3"/>
				<circle id="XMLID_3123_" class="st2" cx="364" cy="131.6" r="2.3"/>
				<circle id="XMLID_3122_" class="st2" cx="360.3" cy="135.3" r="2.3"/>
				<circle id="XMLID_3121_" class="st2" cx="356.7" cy="139" r="2.3"/>
				<circle id="XMLID_3120_" class="st2" cx="353" cy="142.7" r="2.3"/>
				<circle id="XMLID_3119_" class="st2" cx="349.3" cy="146.4" r="2.3"/>
				<circle id="XMLID_3118_" class="st2" cx="345.6" cy="150.1" r="2.3"/>
				<circle id="XMLID_3117_" class="st2" cx="341.9" cy="153.8" r="2.3"/>
				<circle id="XMLID_3116_" class="st2" cx="338.2" cy="157.4" r="2.3"/>
			</g>
			<g id="XMLID_3106_">
				<circle id="XMLID_3114_" class="st2" cx="411.8" cy="83.8" r="2.3"/>
				<circle id="XMLID_3113_" class="st2" cx="408.2" cy="87.5" r="2.3"/>
				<circle id="XMLID_3112_" class="st2" cx="404.5" cy="91.2" r="2.3"/>
				<circle id="XMLID_3111_" class="st2" cx="400.8" cy="94.9" r="2.3"/>
				<circle id="XMLID_3110_" class="st2" cx="397.1" cy="98.6" r="2.3"/>
				<circle id="XMLID_3109_" class="st2" cx="393.4" cy="102.3" r="2.3"/>
				<circle id="XMLID_3108_" class="st2" cx="389.7" cy="105.9" r="2.3"/>
				<circle id="XMLID_3107_" class="st2" cx="386" cy="109.6" r="2.3"/>
			</g>
		</g>
		<g id="XMLID_3086_">
			<g id="XMLID_3092_">
				<circle id="XMLID_3104_" class="st2" cx="389.4" cy="119.2" r="2.3"/>
				<circle id="XMLID_3103_" class="st2" cx="385.7" cy="122.8" r="2.3"/>
				<circle id="XMLID_3102_" class="st2" cx="382" cy="126.5" r="2.3"/>
				<circle id="XMLID_3101_" class="st2" cx="378.3" cy="130.2" r="2.3"/>
				<circle id="XMLID_3100_" class="st2" cx="374.6" cy="133.9" r="2.3"/>
				<circle id="XMLID_3099_" class="st2" cx="370.9" cy="137.6" r="2.3"/>
				<circle id="XMLID_3098_" class="st2" cx="367.2" cy="141.3" r="2.3"/>
				<circle id="XMLID_3097_" class="st2" cx="363.5" cy="145" r="2.3"/>
				<circle id="XMLID_3096_" class="st2" cx="359.9" cy="148.7" r="2.3"/>
				<circle id="XMLID_3095_" class="st2" cx="356.2" cy="152.3" r="2.3"/>
				<circle id="XMLID_3094_" class="st2" cx="352.5" cy="156" r="2.3"/>
				<circle id="XMLID_3093_" class="st2" cx="348.8" cy="159.7" r="2.3"/>
			</g>
			<g id="XMLID_3087_">
				<circle id="XMLID_3091_" class="st2" cx="404" cy="104.5" r="2.3"/>
				<circle id="XMLID_3090_" class="st2" cx="400.3" cy="108.2" r="2.3"/>
				<circle id="XMLID_3089_" class="st2" cx="396.6" cy="111.9" r="2.3"/>
				<circle id="XMLID_3088_" class="st2" cx="392.9" cy="115.6" r="2.3"/>
			</g>
		</g>
		<g id="XMLID_3071_">
			<circle id="XMLID_3085_" class="st2" cx="405.9" cy="117.9" r="2.3"/>
			<circle id="XMLID_3084_" class="st2" cx="402.2" cy="121.6" r="2.3"/>
			<circle id="XMLID_3083_" class="st2" cx="398.5" cy="125.3" r="2.3"/>
			<circle id="XMLID_3082_" class="st2" cx="394.8" cy="129" r="2.3"/>
			<circle id="XMLID_3081_" class="st2" cx="391.1" cy="132.7" r="2.3"/>
			<circle id="XMLID_3080_" class="st2" cx="387.4" cy="136.4" r="2.3"/>
			<circle id="XMLID_3079_" class="st2" cx="383.8" cy="140.1" r="2.3"/>
			<circle id="XMLID_3078_" class="st2" cx="380.1" cy="143.8" r="2.3"/>
			<circle id="XMLID_3077_" class="st2" cx="376.4" cy="147.4" r="2.3"/>
			<circle id="XMLID_3076_" class="st2" cx="372.7" cy="151.1" r="2.3"/>
			<circle id="XMLID_3075_" class="st2" cx="369" cy="154.8" r="2.3"/>
			<circle id="XMLID_3074_" class="st2" cx="365.3" cy="158.5" r="2.3"/>
			<circle id="XMLID_3073_" class="st2" cx="361.6" cy="162.2" r="2.3"/>
			<circle id="XMLID_3072_" class="st2" cx="357.9" cy="165.9" r="2.3"/>
		</g>
		<g id="XMLID_3057_">
			<circle id="XMLID_3070_" class="st2" cx="406.8" cy="131.3" r="2.3"/>
			<circle id="XMLID_3069_" class="st2" cx="403.1" cy="135" r="2.3"/>
			<circle id="XMLID_3068_" class="st2" cx="399.4" cy="138.7" r="2.3"/>
			<circle id="XMLID_3067_" class="st2" cx="395.7" cy="142.3" r="2.3"/>
			<circle id="XMLID_3066_" class="st2" cx="392.1" cy="146" r="2.3"/>
			<circle id="XMLID_3065_" class="st2" cx="388.4" cy="149.7" r="2.3"/>
			<circle id="XMLID_3064_" class="st2" cx="384.7" cy="153.4" r="2.3"/>
			<circle id="XMLID_3063_" class="st2" cx="381" cy="157.1" r="2.3"/>
			<circle id="XMLID_3062_" class="st2" cx="377.3" cy="160.8" r="2.3"/>
			<circle id="XMLID_3061_" class="st2" cx="373.6" cy="164.5" r="2.3"/>
			<circle id="XMLID_3060_" class="st2" cx="369.9" cy="168.2" r="2.3"/>
			<circle id="XMLID_3059_" class="st2" cx="366.2" cy="171.8" r="2.3"/>
			<circle id="XMLID_3058_" class="st2" cx="362.6" cy="175.5" r="2.3"/>
		</g>
		<g id="XMLID_3045_">
			<circle id="XMLID_3056_" class="st2" cx="408.2" cy="143.3" r="2.3"/>
			<circle id="XMLID_3055_" class="st2" cx="404.5" cy="146.9" r="2.3"/>
			<circle id="XMLID_3054_" class="st2" cx="400.8" cy="150.6" r="2.3"/>
			<circle id="XMLID_3053_" class="st2" cx="397.1" cy="154.3" r="2.3"/>
			<circle id="XMLID_3052_" class="st2" cx="393.4" cy="158" r="2.3"/>
			<circle id="XMLID_3051_" class="st2" cx="389.7" cy="161.7" r="2.3"/>
			<circle id="XMLID_3050_" class="st2" cx="386" cy="165.4" r="2.3"/>
			<circle id="XMLID_3049_" class="st2" cx="382.3" cy="169.1" r="2.3"/>
			<circle id="XMLID_3048_" class="st2" cx="378.7" cy="172.8" r="2.3"/>
			<circle id="XMLID_3047_" class="st2" cx="375" cy="176.4" r="2.3"/>
			<circle id="XMLID_3046_" class="st2" cx="371.3" cy="180.1" r="2.3"/>
		</g>
		<g id="XMLID_3035_">
			<circle id="XMLID_3044_" class="st2" cx="419.2" cy="146.9" r="2.3"/>
			<circle id="XMLID_3043_" class="st2" cx="415.5" cy="150.6" r="2.3"/>
			<circle id="XMLID_3042_" class="st2" cx="411.8" cy="154.3" r="2.3"/>
			<circle id="XMLID_3041_" class="st2" cx="408.2" cy="158" r="2.3"/>
			<circle id="XMLID_3040_" class="st2" cx="393.4" cy="172.8" r="2.3"/>
			<circle id="XMLID_3039_" class="st2" cx="389.7" cy="176.4" r="2.3"/>
			<circle id="XMLID_3038_" class="st2" cx="386" cy="180.1" r="2.3"/>
			<circle id="XMLID_3037_" class="st2" cx="382.3" cy="183.8" r="2.3"/>
			<circle id="XMLID_3036_" class="st2" cx="378.7" cy="187.5" r="2.3"/>
		</g>
	</g>
	<path id="XMLID_3033_" class="st2" d="M616.6,208.9c-0.2-1.6,0.2-2.4,1.9-2.3c1.3,0.1,2.2,0.2,2.1,1.8c-0.1,1.4,0,2.7-2,2.7
		C617.2,211,616.3,210.3,616.6,208.9z"/>
	<path id="XMLID_3032_" class="st2" d="M574.4,206.6c1.8-0.3,2,0.9,2,2.2c0,1.4-0.5,2-2,2.1c-1.7,0-2.1-0.7-2.1-2.2
		C572.3,207.1,572.8,206.3,574.4,206.6z"/>
	<g id="XMLID_3017_">
		<circle id="XMLID_3031_" class="st2" cx="383.8" cy="213.8" r="2.3"/>
		<circle id="XMLID_3030_" class="st2" cx="383.8" cy="219" r="2.3"/>
		<circle id="XMLID_3029_" class="st2" cx="383.8" cy="224.3" r="2.3"/>
		<circle id="XMLID_3028_" class="st2" cx="383.8" cy="229.5" r="2.3"/>
		<circle id="XMLID_3027_" class="st2" cx="383.8" cy="234.7" r="2.3"/>
		<circle id="XMLID_3026_" class="st2" cx="383.8" cy="239.9" r="2.3"/>
		<circle id="XMLID_3025_" class="st2" cx="383.8" cy="245.1" r="2.3"/>
		<circle id="XMLID_3024_" class="st2" cx="383.8" cy="250.3" r="2.3"/>
		<circle id="XMLID_3023_" class="st2" cx="383.8" cy="255.6" r="2.3"/>
		<circle id="XMLID_3022_" class="st2" cx="383.8" cy="260.8" r="2.3"/>
		<circle id="XMLID_3021_" class="st2" cx="383.8" cy="266" r="2.3"/>
		<circle id="XMLID_3020_" class="st2" cx="383.8" cy="271.2" r="2.3"/>
		<circle id="XMLID_3019_" class="st2" cx="383.8" cy="276.4" r="2.3"/>
		<circle id="XMLID_3018_" class="st2" cx="383.8" cy="281.6" r="2.3"/>
	</g>
	<g id="XMLID_3016_">
		<path class="st2" d="M399.4,239.2v-23.6h4.3v4.3c0.5-1.1,1.2-2,2.2-2.7c0.9-0.7,2-1.2,3.1-1.5c1.1-0.3,2.3-0.3,3.5,0
			c1.2,0.2,2.3,0.8,3.3,1.6c0.7,0.5,1.3,1.2,1.8,1.8c0.5,0.7,0.9,1.4,1.3,2.2c0.7-1.6,1.6-2.9,2.7-3.8c1.1-0.9,2.3-1.5,3.6-1.8
			c1.3-0.3,2.6-0.2,3.9,0.1c1.3,0.3,2.5,1,3.6,2c1.1,1,1.9,2.2,2.6,3.7c0.7,1.5,1,3.3,1,5.3v12.3H432v-12.9c0-0.9-0.1-1.8-0.4-2.6
			c-0.3-0.8-0.7-1.6-1.2-2.3c-0.5-0.7-1.2-1.2-1.9-1.6c-0.8-0.4-1.6-0.6-2.6-0.6c-0.9,0-1.8,0.2-2.5,0.6c-0.7,0.4-1.4,0.9-1.9,1.6
			c-0.5,0.7-0.9,1.4-1.2,2.3c-0.3,0.8-0.4,1.7-0.4,2.6v12.9h-4.3v-12.9c-0.1-1.8-0.5-3.2-1.2-4.3c-0.7-1.1-1.4-1.8-2.3-2.3
			c-0.9-0.4-1.8-0.6-2.8-0.5c-1,0.1-1.9,0.5-2.8,1c-0.8,0.6-1.5,1.4-2.1,2.4c-0.6,1-0.8,2.2-0.8,3.6v12.9H399.4z"/>
		<path class="st2" d="M459.6,215.6c1.6,0,3.2,0.3,4.6,0.9c1.4,0.6,2.7,1.5,3.8,2.5c1.1,1.1,1.9,2.3,2.5,3.8c0.6,1.4,0.9,3,0.9,4.6
			c0,1.6-0.3,3.1-0.9,4.6c-0.6,1.4-1.5,2.7-2.5,3.7c-1.1,1.1-2.3,1.9-3.8,2.5c-1.4,0.6-3,0.9-4.6,0.9h-1.2c-1.6,0-3.2-0.3-4.6-0.9
			c-1.4-0.6-2.7-1.4-3.8-2.5c-1.1-1.1-1.9-2.3-2.5-3.7c-0.6-1.4-0.9-3-0.9-4.6c0-1.6,0.3-3.2,0.9-4.6c0.6-1.4,1.5-2.7,2.5-3.8
			c1.1-1.1,2.3-1.9,3.8-2.5c1.4-0.6,3-0.9,4.6-0.9H459.6z M467.3,227.4c0-1.2-0.2-2.3-0.7-3.3c-0.4-1-1-2-1.8-2.7
			c-0.8-0.8-1.6-1.4-2.6-1.8s-2.1-0.7-3.2-0.7c-1.1,0-2.2,0.2-3.2,0.7s-1.9,1.1-2.6,1.8c-0.7,0.8-1.3,1.7-1.8,2.7
			c-0.4,1-0.7,2.2-0.7,3.3c0,1.2,0.2,2.4,0.7,3.4c0.4,1.1,1,2,1.8,2.8c0.7,0.8,1.6,1.4,2.6,1.8c1,0.4,2.1,0.7,3.2,0.7
			c1.1,0,2.2-0.2,3.2-0.7c1-0.4,1.9-1.1,2.6-1.8c0.8-0.8,1.3-1.7,1.8-2.8C467,229.7,467.3,228.6,467.3,227.4z"/>
		<path class="st2" d="M482.2,239.2v-23.6h4.3v4.3c0.4-0.6,0.8-1.1,1.3-1.7c0.5-0.5,1.1-1,1.7-1.4c0.6-0.4,1.3-0.7,2-1
			c0.7-0.2,1.5-0.4,2.2-0.4h1c1.4,0,2.7,0.3,3.8,1c1.1,0.7,2,1.6,2.8,2.7s1.3,2.3,1.7,3.6c0.4,1.3,0.6,2.6,0.6,3.9v12.3h-4.3v-12.9
			c0-0.9-0.2-1.8-0.5-2.6c-0.3-0.8-0.8-1.6-1.3-2.3s-1.2-1.2-2-1.6c-0.8-0.4-1.6-0.6-2.6-0.6c-1,0-1.8,0.2-2.6,0.6
			c-0.8,0.4-1.5,0.9-2.1,1.6s-1,1.4-1.3,2.3c-0.3,0.8-0.5,1.7-0.5,2.6v12.9H482.2z"/>
		<path class="st2" d="M518.5,229.1c0.1,0.9,0.4,1.8,0.9,2.6c0.5,0.8,1.1,1.5,1.8,2.1c0.7,0.6,1.5,1.1,2.4,1.4
			c0.9,0.3,1.8,0.5,2.8,0.5c0.7,0,1.4-0.1,2.1-0.3c0.7-0.2,1.4-0.5,2-0.8c0.6-0.3,1.2-0.8,1.7-1.2c0.5-0.5,0.9-1,1.3-1.6h4.5
			c-0.4,1.1-1,2.1-1.7,3c-0.7,0.9-1.6,1.7-2.5,2.4c-1,0.7-2,1.2-3.1,1.5c-1.1,0.4-2.3,0.5-3.6,0.5h-1.3c-1.6,0-3.1-0.3-4.5-0.9
			c-1.4-0.6-2.7-1.5-3.7-2.5s-1.9-2.3-2.5-3.7c-0.6-1.4-0.9-3-0.9-4.6s0.3-3.1,0.9-4.6c0.6-1.4,1.5-2.7,2.5-3.8
			c1.1-1.1,2.3-1.9,3.7-2.5c1.4-0.6,2.9-0.9,4.5-0.9h1.3c1.6,0,3.1,0.3,4.6,0.9c1.4,0.6,2.7,1.5,3.7,2.5c1.1,1.1,1.9,2.3,2.5,3.8
			c0.6,1.4,0.9,3,0.9,4.6c0,0.3,0,0.5,0,0.8c0,0.3,0,0.5-0.1,0.8H518.5z M534.2,225.8c-0.1-0.9-0.4-1.8-0.8-2.6
			c-0.5-0.8-1.1-1.5-1.8-2.1c-0.7-0.6-1.5-1.1-2.4-1.4c-0.9-0.3-1.8-0.5-2.8-0.5s-1.9,0.2-2.8,0.5c-0.9,0.3-1.7,0.8-2.4,1.4
			c-0.7,0.6-1.3,1.3-1.8,2.1c-0.5,0.8-0.8,1.6-0.9,2.6H534.2z"/>
		<path class="st2" d="M551.3,235.5c-0.2-0.3-0.4-0.7-0.6-1c-0.2-0.3-0.3-0.7-0.4-1.1c-0.1-0.5-0.2-0.9-0.2-1.2c0-0.3,0-0.7,0-1.1
			v-11.6h-2.6v-3.7h2.6v-6.8h4.2v6.8h6.4v3.7h-6.4v10.9c0,0.6,0.1,1.2,0.2,1.8c0.1,0.6,0.4,1.1,0.7,1.5c0.3,0.4,0.8,0.8,1.3,1
			s1.3,0.4,2.2,0.4h3.3v4.1h-4.4c-0.3,0-0.7,0-1.1-0.1c-0.4-0.1-0.7-0.2-1.1-0.3c-0.8-0.3-1.6-0.8-2.3-1.3
			C552.3,236.9,551.8,236.3,551.3,235.5z"/>
		<path class="st2" d="M574.4,206.3c0.8,0,1.4,0.3,1.9,0.8c0.5,0.5,0.8,1.1,0.8,1.9c0,0.7-0.3,1.3-0.8,1.8c-0.5,0.5-1.2,0.8-1.9,0.8
			c-0.8,0-1.4-0.3-1.9-0.8c-0.5-0.5-0.8-1.1-0.8-1.8c0-0.8,0.3-1.4,0.8-1.9C573.1,206.5,573.7,206.3,574.4,206.3z M572.4,215.6h4.1
			v23.6h-4.1V215.6z"/>
		<path class="st2" d="M587.3,219.8v-4.1H608v4.3l-14.9,15.2H608v4.1h-20.7v-4.1l14.9-15.3H587.3z"/>
		<path class="st2" d="M620.9,206.3c0.8,0,1.4,0.3,1.9,0.8c0.5,0.5,0.8,1.1,0.8,1.9c0,0.7-0.3,1.3-0.8,1.8c-0.5,0.5-1.2,0.8-1.9,0.8
			c-0.8,0-1.4-0.3-1.9-0.8c-0.5-0.5-0.8-1.1-0.8-1.8c0-0.8,0.3-1.4,0.8-1.9C619.5,206.5,620.1,206.3,620.9,206.3z M618.8,215.6h4.1
			v23.6h-4.1V215.6z"/>
		<path class="st2" d="M634.6,239.2v-23.6h4.3v4.3c0.4-0.6,0.8-1.1,1.3-1.7c0.5-0.5,1.1-1,1.7-1.4c0.6-0.4,1.3-0.7,2-1
			c0.7-0.2,1.5-0.4,2.2-0.4h1c1.4,0,2.7,0.3,3.8,1c1.1,0.7,2,1.6,2.8,2.7s1.3,2.3,1.7,3.6c0.4,1.3,0.6,2.6,0.6,3.9v12.3h-4.3v-12.9
			c0-0.9-0.2-1.8-0.5-2.6c-0.3-0.8-0.8-1.6-1.3-2.3s-1.2-1.2-2-1.6c-0.8-0.4-1.6-0.6-2.6-0.6c-1,0-1.8,0.2-2.6,0.6
			c-0.8,0.4-1.5,0.9-2.1,1.6s-1,1.4-1.3,2.3c-0.3,0.8-0.5,1.7-0.5,2.6v12.9H634.6z"/>
		<path class="st2" d="M691.1,215.7v22.6c0,1.7-0.3,3.3-1,4.8c-0.6,1.5-1.5,2.7-2.6,3.8c-1.1,1.1-2.4,2-3.9,2.6
			c-1.5,0.6-3.1,0.9-4.7,0.9c-1.2,0-2.5-0.2-3.7-0.6s-2.4-0.9-3.4-1.7c-1.1-0.7-2-1.6-2.8-2.7c-0.8-1.1-1.4-2.3-1.9-3.6h4.4
			c0.7,1.3,1.7,2.4,2.9,3.2c1.2,0.8,2.6,1.2,4.2,1.2h0.4c1.1,0,2.1-0.2,3.1-0.6c1-0.4,1.8-1,2.5-1.7s1.3-1.6,1.7-2.5
			c0.4-1,0.6-2,0.6-3.1v-4.3c-1.1,1.6-2.3,2.8-3.7,3.8c-1.4,1-3.1,1.4-5.2,1.4H677c-1.4,0-2.8-0.3-4.1-0.9c-1.3-0.6-2.4-1.5-3.4-2.5
			c-1-1.1-1.7-2.3-2.3-3.7c-0.5-1.4-0.8-2.9-0.8-4.5c0-1.6,0.3-3.1,0.8-4.6c0.5-1.4,1.3-2.7,2.3-3.8c1-1.1,2.1-1.9,3.4-2.5
			c1.3-0.6,2.7-0.9,4.1-0.9h1.1c2.1,0,3.8,0.5,5.2,1.5c1.4,1,2.6,2.3,3.7,3.8v-5.3H691.1z M686.3,226.8c0-1-0.2-2-0.6-2.9
			s-0.9-1.7-1.6-2.3c-0.7-0.7-1.5-1.2-2.4-1.6c-0.9-0.4-1.9-0.6-2.9-0.6c-1,0-2,0.2-2.9,0.6c-0.9,0.4-1.7,0.9-2.3,1.6
			c-0.7,0.7-1.2,1.4-1.6,2.3c-0.4,0.9-0.6,1.9-0.6,2.9v1.3c0,1,0.2,2,0.6,2.9c0.4,0.9,0.9,1.7,1.6,2.4s1.4,1.2,2.3,1.6
			c0.9,0.4,1.9,0.6,2.9,0.6c1,0,2-0.2,2.9-0.6s1.7-0.9,2.4-1.6c0.7-0.7,1.2-1.5,1.6-2.4s0.6-1.9,0.6-2.9V226.8z"/>
		<path class="st2" d="M401.6,275.5c-0.2-0.3-0.4-0.7-0.6-1c-0.2-0.3-0.3-0.7-0.4-1.1c-0.1-0.5-0.2-0.9-0.2-1.2c0-0.3,0-0.7,0-1.1
			v-11.6h-2.6v-3.7h2.6v-6.8h4.2v6.8h6.4v3.7h-6.4v10.9c0,0.6,0.1,1.2,0.2,1.8c0.1,0.6,0.4,1.1,0.7,1.5c0.3,0.4,0.8,0.8,1.3,1
			s1.3,0.4,2.2,0.4h3.3v4.1h-4.4c-0.3,0-0.7,0-1.1-0.1c-0.4-0.1-0.7-0.2-1.1-0.3c-0.8-0.3-1.6-0.8-2.3-1.3
			C402.6,276.9,402.1,276.3,401.6,275.5z"/>
		<path class="st2" d="M445.3,255.7v23.5h-4.2V274c-1.1,1.6-2.3,2.8-3.7,3.8c-1.4,1-3.1,1.4-5.1,1.4h-1.2c-1.4,0-2.8-0.3-4.1-0.9
			c-1.3-0.6-2.4-1.4-3.4-2.5c-1-1.1-1.7-2.3-2.3-3.7c-0.6-1.4-0.8-3-0.8-4.6c0-1.6,0.3-3.1,0.8-4.6c0.6-1.4,1.3-2.7,2.3-3.8
			c1-1.1,2.1-1.9,3.4-2.5c1.3-0.6,2.6-0.9,4.1-0.9h1.2c2,0,3.7,0.5,5.1,1.5c1.4,1,2.6,2.3,3.7,3.8v-5.3H445.3z M440.6,266.8
			c0-1-0.2-2-0.6-2.9c-0.4-0.9-0.9-1.7-1.6-2.3c-0.7-0.7-1.5-1.2-2.4-1.6s-1.9-0.6-2.9-0.6c-1,0-2,0.2-2.9,0.6
			c-0.9,0.4-1.7,0.9-2.3,1.6s-1.2,1.4-1.6,2.3c-0.4,0.9-0.6,1.9-0.6,2.9v1.3c0,1,0.2,2,0.6,2.9c0.4,0.9,0.9,1.7,1.6,2.4
			c0.7,0.7,1.4,1.2,2.3,1.6c0.9,0.4,1.9,0.6,2.9,0.6c1,0,2-0.2,2.9-0.6c0.9-0.4,1.7-0.9,2.4-1.6c0.7-0.7,1.2-1.5,1.6-2.4
			s0.6-1.9,0.6-2.9V266.8z"/>
		<path class="st2" d="M457.3,279.2v-34.1h4.1v34.1H457.3z"/>
		<path class="st2" d="M476.8,269.1c0.1,0.9,0.4,1.8,0.9,2.6c0.5,0.8,1.1,1.5,1.8,2.1c0.7,0.6,1.5,1.1,2.4,1.4
			c0.9,0.3,1.8,0.5,2.8,0.5c0.7,0,1.4-0.1,2.1-0.3c0.7-0.2,1.4-0.5,2-0.8c0.6-0.3,1.2-0.8,1.7-1.2c0.5-0.5,0.9-1,1.3-1.6h4.5
			c-0.4,1.1-1,2.1-1.7,3c-0.7,0.9-1.6,1.7-2.5,2.4c-1,0.7-2,1.2-3.1,1.5c-1.1,0.4-2.3,0.5-3.6,0.5H484c-1.6,0-3.1-0.3-4.5-0.9
			c-1.4-0.6-2.7-1.5-3.7-2.5s-1.9-2.3-2.5-3.7c-0.6-1.4-0.9-3-0.9-4.6s0.3-3.1,0.9-4.6c0.6-1.4,1.5-2.7,2.5-3.8
			c1.1-1.1,2.3-1.9,3.7-2.5c1.4-0.6,2.9-0.9,4.5-0.9h1.3c1.6,0,3.1,0.3,4.6,0.9c1.4,0.6,2.7,1.5,3.7,2.5c1.1,1.1,1.9,2.3,2.5,3.8
			c0.6,1.4,0.9,3,0.9,4.6c0,0.3,0,0.5,0,0.8c0,0.3,0,0.5-0.1,0.8H476.8z M492.5,265.8c-0.1-0.9-0.4-1.8-0.8-2.6
			c-0.5-0.8-1.1-1.5-1.8-2.1c-0.7-0.6-1.5-1.1-2.4-1.4c-0.9-0.3-1.8-0.5-2.8-0.5s-1.9,0.2-2.8,0.5c-0.9,0.3-1.7,0.8-2.4,1.4
			c-0.7,0.6-1.3,1.3-1.8,2.1c-0.5,0.8-0.8,1.6-0.9,2.6H492.5z"/>
		<path class="st2" d="M507.8,279.2v-23.6h4.3v4.3c0.4-0.6,0.8-1.1,1.3-1.7c0.5-0.5,1.1-1,1.7-1.4c0.6-0.4,1.3-0.7,2-1
			c0.7-0.2,1.5-0.4,2.2-0.4h1c1.4,0,2.7,0.3,3.8,1c1.1,0.7,2,1.6,2.8,2.7s1.3,2.3,1.7,3.6c0.4,1.3,0.6,2.6,0.6,3.9v12.3h-4.3v-12.9
			c0-0.9-0.2-1.8-0.5-2.6c-0.3-0.8-0.8-1.6-1.3-2.3s-1.2-1.2-2-1.6c-0.8-0.4-1.6-0.6-2.6-0.6c-1,0-1.8,0.2-2.6,0.6
			c-0.8,0.4-1.5,0.9-2.1,1.6s-1,1.4-1.3,2.3c-0.3,0.8-0.5,1.7-0.5,2.6v12.9H507.8z"/>
		<path class="st2" d="M542.3,275.5c-0.2-0.3-0.4-0.7-0.6-1c-0.2-0.3-0.3-0.7-0.4-1.1c-0.1-0.5-0.2-0.9-0.2-1.2c0-0.3,0-0.7,0-1.1
			v-11.6h-2.6v-3.7h2.6v-6.8h4.2v6.8h6.4v3.7h-6.4v10.9c0,0.6,0.1,1.2,0.2,1.8c0.1,0.6,0.4,1.1,0.7,1.5c0.3,0.4,0.8,0.8,1.3,1
			s1.3,0.4,2.2,0.4h3.3v4.1h-4.4c-0.3,0-0.7,0-1.1-0.1c-0.4-0.1-0.7-0.2-1.1-0.3c-0.8-0.3-1.6-0.8-2.3-1.3
			C543.4,276.9,542.8,276.3,542.3,275.5z"/>
		<path class="st2" d="M573.2,275.4c0.6,0,1.3,0,2.1-0.1c0.7-0.1,1.4-0.2,2-0.4c0.9-0.3,1.6-0.7,2-1.2c0.4-0.5,0.6-1,0.5-1.5
			c-0.1-0.5-0.3-1-0.8-1.4c-0.5-0.4-1.2-0.8-2-1.1c-1-0.3-2.1-0.5-3.2-0.6s-2.2-0.3-3.3-0.5c-0.7-0.1-1.4-0.3-2-0.5
			c-0.7-0.2-1.3-0.5-2-0.8c-0.7-0.3-1.3-0.7-1.8-1.2c-0.5-0.5-0.9-1-1.3-1.6c-0.3-0.6-0.5-1.2-0.6-1.9c-0.1-0.7,0-1.4,0.3-2.1
			c0.3-0.9,0.9-1.7,1.7-2.3c0.8-0.6,1.6-1.1,2.5-1.5c0.8-0.3,1.7-0.5,2.6-0.7c0.9-0.2,1.8-0.3,2.7-0.3c0.9,0,1.8,0.1,2.8,0.2
			c1,0.1,1.9,0.4,2.8,0.7c0.9,0.3,1.8,0.8,2.5,1.3c0.8,0.5,1.4,1.2,1.8,2l-3.6,1.9c-0.3-0.5-0.8-1-1.4-1.4s-1.2-0.6-1.8-0.8
			c-0.5-0.1-1.2-0.2-2-0.3c-0.8,0-1.6,0-2.5,0.1c-0.8,0.1-1.6,0.3-2.3,0.6s-1.3,0.7-1.7,1.2c-0.2,0.3-0.3,0.6-0.3,0.9
			c0,0.3,0.1,0.6,0.3,0.9c0.2,0.3,0.5,0.5,0.8,0.7c0.4,0.2,0.9,0.4,1.4,0.6c0.5,0.2,1,0.3,1.5,0.4c1.3,0.2,2.6,0.4,3.9,0.5
			c1.3,0.1,2.6,0.4,3.8,0.8c1.7,0.6,3,1.4,3.8,2.6c0.9,1.1,1.3,2.3,1.4,3.6c0,1.3-0.3,2.5-1.2,3.6c-0.8,1.2-2.1,2.1-3.7,2.7
			c-0.9,0.3-1.9,0.5-2.9,0.6c-1,0.1-2,0.2-2.9,0.2c-1,0-2.2-0.1-3.5-0.3c-1.3-0.2-2.4-0.6-3.5-1.2c-1.1-0.5-2-1.2-2.8-2.1
			s-1.1-1.9-1.1-3.2h4c0,0.5,0.3,1,0.9,1.4s1.2,0.7,2,1c0.8,0.2,1.5,0.4,2.3,0.5C572.2,275.3,572.8,275.4,573.2,275.4z"/>
	</g>
	<g id="XMLID_3015_">
		<path class="st2" d="M154.7,277.8v-63.5h11v25h21.6v-25h11v63.5h-11V250h-21.6v27.8H154.7z"/>
		<path class="st2" d="M211,277.8v-63.5h40.4V225H222v14.1h27.4v10.7H222v17.3h30.5v10.7H211z"/>
		<path class="st2" d="M263.4,277.8v-63h11v52.3h27.4v10.7H263.4z"/>
		<path class="st2" d="M360,277.8h-12l-4.8-14.4h-21.8l-4.5,14.4h-11.7l21.2-63.5h11.6L360,277.8z M339.8,252.7l-7.5-23.6l-7.4,23.6
			H339.8z"/>
	</g>
	<g id="XMLID_3000_">
		<path id="XMLID_3014_" class="st2" d="M111,315.6c1.4-1.9-0.2-3.6-0.2-5.3c-0.3-9.6-0.6-19.1-1.2-28.7
			c-1.2-21.6-2.5-43.1-4.2-64.7c-1.1-13.2-1.7-26.5-2.7-39.7c-1.2-16-2.4-31.9-3.9-47.9c-0.6-6.3-0.6-12.6-2-18.9
			c-3-13-9-24.2-18.2-33.8C71.5,69.2,63,64,53.8,59.9c-13.2-5.9-26.2-12-39.3-18.1c-4.8-2.2-9.7-4.4-14.4-7c2.6,0.5,5.3,0.7,7.9,1.5
			c11.6,3.3,23.5,5.9,35.4,7.9c24.3,4,48.7,5.9,73.4,4.1c18.7-1.4,37-4.3,55.1-9.1c14.4-3.8,28.5-8.7,42.2-14.5
			c8.8-3.7,17.4-7.9,26.1-11.9c-4.5,3.9-9.5,7.1-14.4,10.2c-10.9,6.9-21.4,14.3-32,21.7c-11.9,8.3-23.9,16.6-35.6,25.3
			c-12,9-20,20.9-24.4,35.3c-2.2,7.1-2.6,14.5-3.5,21.8c-2,16.2-4,32.3-5.9,48.5c-1.6,13.3-3,26.5-4.4,39.8c-2,18.7-4,37.5-5.7,56.3
			c-0.9,10.5-2,20.9-2.3,31.5c-0.1,3.4-0.3,6.8-1.3,10.1C110.4,313.9,110.3,314.6,111,315.6z"/>
		<path id="XMLID_3013_" class="st2" d="M112.5,0c10.4,0,18.5,8.1,18.6,18.4c0.1,10.6-8.1,18.8-18.8,18.8
			c-10.2,0-18.4-8.4-18.4-18.7C93.9,8.3,102.2,0,112.5,0z"/>
		<g id="XMLID_3007_">
			<path id="XMLID_3010_" class="st2" d="M221.1,78.7h29.2v90.5h-29.2v-4.7c-6.7,4.5-14.8,6.9-23.1,6.9c-24.7,0-44.8-21.3-44.8-47.5
				c0-26.2,20.1-47.3,44.8-47.3c8.3,0,16.4,2.4,23.1,6.9V78.7z M220.9,114.2c-3.7-6.7-10.1-10.8-17.4-10.8
				c-10.8,0-19.7,9.1-19.7,20.5c0,11.4,8.9,20.7,19.7,20.7c7.3,0,13.8-4.3,17.4-10.8V114.2z"/>
			<path id="XMLID_3008_" class="st2" d="M270.2,51.9l29-21.1v138.3h-29V51.9z"/>
		</g>
		<path id="XMLID_3005_" class="st2" d="M482.8,78.8c28.6,0,30.8,24.1,30.8,42.4v50.1h-29.2v-40.4c0-8.1,2-25.4-10.1-25.4
			c-6.3,0-10.3,3.7-15.4,9.1v56.6h-29V80.6h29v11.2C464.7,82.8,471,78.8,482.8,78.8z"/>
		<path id="XMLID_3004_" class="st2" d="M583.4,149.7c-1-2.5-1.8-5-2.5-7.6h-6.3c-9.1,0-13.8,0.2-13.8-7.3v-25.4h20.3
			c1.7-6.2,4.3-12.1,7.7-17.4c2.7-4.2,5.9-8,9.5-11.4h-37.4V47.5L531.6,69v11.6h-11.6v28.8h11.6v28.4c0,28.4,14,33.5,37.7,33.5h28.5
			C591.7,165.3,586.7,157.9,583.4,149.7z"/>
		<path id="XMLID_3001_" class="st2" d="M657.8,80.8H687v90.5h-29.2v-4.7c-6.7,4.5-14.8,6.9-23.1,6.9c-24.7,0-44.8-21.3-44.8-47.5
			c0-26.2,20.1-47.3,44.8-47.3c8.3,0,16.4,2.4,23.1,6.9V80.8z M657.6,116.3c-3.7-6.7-10.1-10.8-17.4-10.8
			c-10.8,0-19.7,9.1-19.7,20.5c0,11.4,8.9,20.7,19.7,20.7c7.3,0,13.8-4.3,17.4-10.8V116.3z"/>
	</g>
</g>
</svg>
