<?xml version="1.0" encoding="utf-8"?>
<!-- Generator: Adobe Illustrator 26.0.0, SVG Export Plug-In . SVG Version: 6.00 Build 0)  -->
<svg version="1.1" id="Layer_1" xmlns="http://www.w3.org/2000/svg" xmlns:xlink="http://www.w3.org/1999/xlink" x="0px" y="0px"
	 viewBox="0 0 700.3 315.6" style="enable-background:new 0 0 700.3 315.6;" xml:space="preserve">
<style type="text/css">
	.st0{fill:#070808;}
	.st1{fill:#D43330;}
	.st2{fill:#5CBA4F;}
	.st3{fill:#E72326;}
	.st4{fill:#FFFFFF;}
</style>
<g id="XMLID_1757_">
	<g id="XMLID_2043_">
		<g id="XMLID_2980_">
			<circle id="XMLID_2985_" class="st1" cx="330.5" cy="62.8" r="2.3"/>
			<circle id="XMLID_2984_" class="st1" cx="326.8" cy="66.5" r="2.3"/>
			<circle id="XMLID_2983_" class="st1" cx="323.1" cy="70.2" r="2.3"/>
			<circle id="XMLID_2982_" class="st1" cx="319.4" cy="73.9" r="2.3"/>
			<circle id="XMLID_2981_" class="st1" cx="315.7" cy="77.6" r="2.3"/>
		</g>
		<g id="XMLID_2974_">
			<circle id="XMLID_2979_" class="st1" cx="334.2" cy="73.9" r="2.3"/>
			<circle id="XMLID_2978_" class="st1" cx="330.5" cy="77.6" r="2.3"/>
			<circle id="XMLID_2977_" class="st1" cx="326.8" cy="81.3" r="2.3"/>
			<circle id="XMLID_2976_" class="st1" cx="323.1" cy="85" r="2.3"/>
			<circle id="XMLID_2975_" class="st1" cx="319.4" cy="88.7" r="2.3"/>
		</g>
		<g id="XMLID_2966_">
			<circle id="XMLID_2973_" class="st1" cx="348.9" cy="73.9" r="2.3"/>
			<circle id="XMLID_2972_" class="st1" cx="345.2" cy="77.6" r="2.3"/>
			<circle id="XMLID_2971_" class="st1" cx="341.5" cy="81.3" r="2.3"/>
			<circle id="XMLID_2970_" class="st1" cx="337.9" cy="85" r="2.3"/>
			<circle id="XMLID_2969_" class="st1" cx="334.2" cy="88.7" r="2.3"/>
			<circle id="XMLID_2968_" class="st1" cx="330.5" cy="92.3" r="2.3"/>
			<circle id="XMLID_2967_" class="st1" cx="326.8" cy="96" r="2.3"/>
		</g>
		<g id="XMLID_2951_">
			<circle id="XMLID_2965_" class="st1" cx="358.9" cy="77.3" r="2.3"/>
			<circle id="XMLID_2964_" class="st1" cx="355.2" cy="81" r="2.3"/>
			<circle id="XMLID_2963_" class="st1" cx="351.5" cy="84.7" r="2.3"/>
			<circle id="XMLID_2962_" class="st1" cx="347.8" cy="88.4" r="2.3"/>
			<circle id="XMLID_2961_" class="st1" cx="344.1" cy="92" r="2.3"/>
			<circle id="XMLID_2960_" class="st1" cx="340.4" cy="95.7" r="2.3"/>
			<circle id="XMLID_2959_" class="st1" cx="336.7" cy="99.4" r="2.3"/>
			<circle id="XMLID_2958_" class="st1" cx="333.1" cy="103.1" r="2.3"/>
			<circle id="XMLID_2957_" class="st1" cx="329.4" cy="106.8" r="2.3"/>
			<circle id="XMLID_2956_" class="st1" cx="325.7" cy="110.5" r="2.3"/>
			<circle id="XMLID_2955_" class="st1" cx="322" cy="114.2" r="2.3"/>
			<circle id="XMLID_2954_" class="st1" cx="318.3" cy="117.9" r="2.3"/>
			<circle id="XMLID_2953_" class="st1" cx="314.6" cy="121.5" r="2.3"/>
			<circle id="XMLID_2952_" class="st1" cx="310.9" cy="125.2" r="2.3"/>
		</g>
		<g id="XMLID_2935_">
			<circle id="XMLID_2950_" class="st1" cx="366.2" cy="84.7" r="2.3"/>
			<circle id="XMLID_2949_" class="st1" cx="362.6" cy="88.4" r="2.3"/>
			<circle id="XMLID_2948_" class="st1" cx="358.9" cy="92" r="2.3"/>
			<circle id="XMLID_2947_" class="st1" cx="355.2" cy="95.7" r="2.3"/>
			<circle id="XMLID_2946_" class="st1" cx="351.5" cy="99.4" r="2.3"/>
			<circle id="XMLID_2945_" class="st1" cx="347.8" cy="103.1" r="2.3"/>
			<circle id="XMLID_2944_" class="st1" cx="344.1" cy="106.8" r="2.3"/>
			<circle id="XMLID_2943_" class="st1" cx="340.4" cy="110.5" r="2.3"/>
			<circle id="XMLID_2942_" class="st1" cx="336.7" cy="114.2" r="2.3"/>
			<circle id="XMLID_2941_" class="st1" cx="333.1" cy="117.9" r="2.3"/>
			<circle id="XMLID_2940_" class="st1" cx="329.4" cy="121.5" r="2.3"/>
			<circle id="XMLID_2939_" class="st1" cx="325.7" cy="125.2" r="2.3"/>
			<circle id="XMLID_2938_" class="st1" cx="322" cy="128.9" r="2.3"/>
			<circle id="XMLID_2937_" class="st1" cx="318.3" cy="132.6" r="2.3"/>
			<circle id="XMLID_2936_" class="st1" cx="314.6" cy="136.3" r="2.3"/>
		</g>
		<g id="XMLID_2919_">
			<circle id="XMLID_2934_" class="st1" cx="368.2" cy="96.5" r="2.3"/>
			<circle id="XMLID_2933_" class="st1" cx="364.5" cy="100.2" r="2.3"/>
			<circle id="XMLID_2932_" class="st1" cx="360.8" cy="103.9" r="2.3"/>
			<circle id="XMLID_2931_" class="st1" cx="357.2" cy="107.6" r="2.3"/>
			<circle id="XMLID_2930_" class="st1" cx="353.5" cy="111.3" r="2.3"/>
			<circle id="XMLID_2929_" class="st1" cx="349.8" cy="115" r="2.3"/>
			<circle id="XMLID_2928_" class="st1" cx="346.1" cy="118.7" r="2.3"/>
			<circle id="XMLID_2927_" class="st1" cx="342.4" cy="122.3" r="2.3"/>
			<circle id="XMLID_2926_" class="st1" cx="338.7" cy="126" r="2.3"/>
			<circle id="XMLID_2925_" class="st1" cx="335" cy="129.7" r="2.3"/>
			<circle id="XMLID_2924_" class="st1" cx="331.3" cy="133.4" r="2.3"/>
			<circle id="XMLID_2923_" class="st1" cx="327.6" cy="137.1" r="2.3"/>
			<circle id="XMLID_2922_" class="st1" cx="324" cy="140.8" r="2.3"/>
			<circle id="XMLID_2921_" class="st1" cx="320.3" cy="144.5" r="2.3"/>
			<circle id="XMLID_2920_" class="st1" cx="316.6" cy="148.2" r="2.3"/>
		</g>
		<g id="XMLID_2905_">
			<circle id="XMLID_2918_" class="st1" cx="374.8" cy="103.9" r="2.3"/>
			<circle id="XMLID_2917_" class="st1" cx="371.1" cy="107.6" r="2.3"/>
			<circle id="XMLID_2916_" class="st1" cx="367.4" cy="111.3" r="2.3"/>
			<circle id="XMLID_2915_" class="st1" cx="363.7" cy="115" r="2.3"/>
			<circle id="XMLID_2914_" class="st1" cx="360" cy="118.7" r="2.3"/>
			<circle id="XMLID_2913_" class="st1" cx="356.3" cy="122.3" r="2.3"/>
			<circle id="XMLID_2912_" class="st1" cx="352.7" cy="126" r="2.3"/>
			<circle id="XMLID_2911_" class="st1" cx="349" cy="129.7" r="2.3"/>
			<circle id="XMLID_2910_" class="st1" cx="345.3" cy="133.4" r="2.3"/>
			<circle id="XMLID_2909_" class="st1" cx="341.6" cy="137.1" r="2.3"/>
			<circle id="XMLID_2908_" class="st1" cx="337.9" cy="140.8" r="2.3"/>
			<circle id="XMLID_2907_" class="st1" cx="334.2" cy="144.5" r="2.3"/>
			<circle id="XMLID_2906_" class="st1" cx="330.5" cy="148.2" r="2.3"/>
		</g>
		<g id="XMLID_2901_">
			<circle id="XMLID_2904_" class="st1" cx="379.2" cy="85.6" r="2.3"/>
			<circle id="XMLID_2903_" class="st1" cx="375.5" cy="89.3" r="2.3"/>
			<circle id="XMLID_2902_" class="st1" cx="371.8" cy="93" r="2.3"/>
		</g>
		<g id="XMLID_2893_">
			<circle id="XMLID_2900_" class="st1" cx="400.5" cy="78.2" r="2.3"/>
			<circle id="XMLID_2899_" class="st1" cx="396.8" cy="81.9" r="2.3"/>
			<circle id="XMLID_2898_" class="st1" cx="393.1" cy="85.6" r="2.3"/>
			<circle id="XMLID_2897_" class="st1" cx="389.4" cy="89.3" r="2.3"/>
			<circle id="XMLID_2896_" class="st1" cx="385.7" cy="93" r="2.3"/>
			<circle id="XMLID_2895_" class="st1" cx="382" cy="96.7" r="2.3"/>
			<circle id="XMLID_2894_" class="st1" cx="378.3" cy="100.3" r="2.3"/>
		</g>
		<g id="XMLID_2618_">
			<g id="XMLID_2628_">
				<circle id="XMLID_2641_" class="st1" cx="382.5" cy="111.3" r="2.3"/>
				<circle id="XMLID_2640_" class="st1" cx="378.8" cy="115" r="2.3"/>
				<circle id="XMLID_2639_" class="st1" cx="375.1" cy="118.7" r="2.3"/>
				<circle id="XMLID_2638_" class="st1" cx="371.4" cy="122.3" r="2.3"/>
				<circle id="XMLID_2637_" class="st1" cx="367.7" cy="126" r="2.3"/>
				<circle id="XMLID_2636_" class="st1" cx="364" cy="129.7" r="2.3"/>
				<circle id="XMLID_2635_" class="st1" cx="360.3" cy="133.4" r="2.3"/>
				<circle id="XMLID_2634_" class="st1" cx="356.7" cy="137.1" r="2.3"/>
				<circle id="XMLID_2633_" class="st1" cx="353" cy="140.8" r="2.3"/>
				<circle id="XMLID_2632_" class="st1" cx="349.3" cy="144.5" r="2.3"/>
				<circle id="XMLID_2631_" class="st1" cx="345.6" cy="148.2" r="2.3"/>
				<circle id="XMLID_2630_" class="st1" cx="341.9" cy="151.8" r="2.3"/>
				<circle id="XMLID_2629_" class="st1" cx="338.2" cy="155.5" r="2.3"/>
			</g>
			<g id="XMLID_2619_">
				<circle id="XMLID_2627_" class="st1" cx="411.8" cy="81.9" r="2.3"/>
				<circle id="XMLID_2626_" class="st1" cx="408.2" cy="85.6" r="2.3"/>
				<circle id="XMLID_2625_" class="st1" cx="404.5" cy="89.3" r="2.3"/>
				<circle id="XMLID_2624_" class="st1" cx="400.8" cy="93" r="2.3"/>
				<circle id="XMLID_2623_" class="st1" cx="397.1" cy="96.7" r="2.3"/>
				<circle id="XMLID_2622_" class="st1" cx="393.4" cy="100.3" r="2.3"/>
				<circle id="XMLID_2621_" class="st1" cx="389.7" cy="104" r="2.3"/>
				<circle id="XMLID_2620_" class="st1" cx="386" cy="107.7" r="2.3"/>
			</g>
		</g>
		<g id="XMLID_2347_">
			<g id="XMLID_2605_">
				<circle id="XMLID_2617_" class="st1" cx="389.4" cy="117.2" r="2.3"/>
				<circle id="XMLID_2616_" class="st1" cx="385.7" cy="120.9" r="2.3"/>
				<circle id="XMLID_2615_" class="st1" cx="382" cy="124.6" r="2.3"/>
				<circle id="XMLID_2614_" class="st1" cx="378.3" cy="128.3" r="2.3"/>
				<circle id="XMLID_2613_" class="st1" cx="374.6" cy="132" r="2.3"/>
				<circle id="XMLID_2612_" class="st1" cx="370.9" cy="135.7" r="2.3"/>
				<circle id="XMLID_2611_" class="st1" cx="367.2" cy="139.4" r="2.3"/>
				<circle id="XMLID_2610_" class="st1" cx="363.5" cy="143.1" r="2.3"/>
				<circle id="XMLID_2609_" class="st1" cx="359.9" cy="146.7" r="2.3"/>
				<circle id="XMLID_2608_" class="st1" cx="356.2" cy="150.4" r="2.3"/>
				<circle id="XMLID_2607_" class="st1" cx="352.5" cy="154.1" r="2.3"/>
				<circle id="XMLID_2606_" class="st1" cx="348.8" cy="157.8" r="2.3"/>
			</g>
			<g id="XMLID_2348_">
				<circle id="XMLID_2604_" class="st1" cx="404" cy="102.6" r="2.3"/>
				<circle id="XMLID_2603_" class="st1" cx="400.3" cy="106.3" r="2.3"/>
				<circle id="XMLID_2350_" class="st1" cx="396.6" cy="110" r="2.3"/>
				<circle id="XMLID_2349_" class="st1" cx="392.9" cy="113.7" r="2.3"/>
			</g>
		</g>
		<g id="XMLID_2332_">
			<circle id="XMLID_2346_" class="st1" cx="405.9" cy="116" r="2.3"/>
			<circle id="XMLID_2345_" class="st1" cx="402.2" cy="119.7" r="2.3"/>
			<circle id="XMLID_2344_" class="st1" cx="398.5" cy="123.4" r="2.3"/>
			<circle id="XMLID_2343_" class="st1" cx="394.8" cy="127.1" r="2.3"/>
			<circle id="XMLID_2342_" class="st1" cx="391.1" cy="130.8" r="2.3"/>
			<circle id="XMLID_2341_" class="st1" cx="387.4" cy="134.5" r="2.3"/>
			<circle id="XMLID_2340_" class="st1" cx="383.8" cy="138.1" r="2.3"/>
			<circle id="XMLID_2339_" class="st1" cx="380.1" cy="141.8" r="2.3"/>
			<circle id="XMLID_2338_" class="st1" cx="376.4" cy="145.5" r="2.3"/>
			<circle id="XMLID_2337_" class="st1" cx="372.7" cy="149.2" r="2.3"/>
			<circle id="XMLID_2336_" class="st1" cx="369" cy="152.9" r="2.3"/>
			<circle id="XMLID_2335_" class="st1" cx="365.3" cy="156.6" r="2.3"/>
			<circle id="XMLID_2334_" class="st1" cx="361.6" cy="160.3" r="2.3"/>
			<circle id="XMLID_2333_" class="st1" cx="357.9" cy="164" r="2.3"/>
		</g>
		<g id="XMLID_2066_">
			<circle id="XMLID_2331_" class="st1" cx="406.8" cy="129.4" r="2.3"/>
			<circle id="XMLID_2330_" class="st1" cx="403.1" cy="133" r="2.3"/>
			<circle id="XMLID_2329_" class="st1" cx="399.4" cy="136.7" r="2.3"/>
			<circle id="XMLID_2328_" class="st1" cx="395.7" cy="140.4" r="2.3"/>
			<circle id="XMLID_2327_" class="st1" cx="392.1" cy="144.1" r="2.3"/>
			<circle id="XMLID_2326_" class="st1" cx="388.4" cy="147.8" r="2.3"/>
			<circle id="XMLID_2325_" class="st1" cx="384.7" cy="151.5" r="2.3"/>
			<circle id="XMLID_2072_" class="st1" cx="381" cy="155.2" r="2.3"/>
			<circle id="XMLID_2071_" class="st1" cx="377.3" cy="158.9" r="2.3"/>
			<circle id="XMLID_2070_" class="st1" cx="373.6" cy="162.5" r="2.3"/>
			<circle id="XMLID_2069_" class="st1" cx="369.9" cy="166.2" r="2.3"/>
			<circle id="XMLID_2068_" class="st1" cx="366.2" cy="169.9" r="2.3"/>
			<circle id="XMLID_2067_" class="st1" cx="362.6" cy="173.6" r="2.3"/>
		</g>
		<g id="XMLID_2054_">
			<circle id="XMLID_2065_" class="st1" cx="408.2" cy="141.3" r="2.3"/>
			<circle id="XMLID_2064_" class="st1" cx="404.5" cy="145" r="2.3"/>
			<circle id="XMLID_2063_" class="st1" cx="400.8" cy="148.7" r="2.3"/>
			<circle id="XMLID_2062_" class="st1" cx="397.1" cy="152.4" r="2.3"/>
			<circle id="XMLID_2061_" class="st1" cx="393.4" cy="156.1" r="2.3"/>
			<circle id="XMLID_2060_" class="st1" cx="389.7" cy="159.8" r="2.3"/>
			<circle id="XMLID_2059_" class="st1" cx="386" cy="163.5" r="2.3"/>
			<circle id="XMLID_2058_" class="st1" cx="382.3" cy="167.1" r="2.3"/>
			<circle id="XMLID_2057_" class="st1" cx="378.7" cy="170.8" r="2.3"/>
			<circle id="XMLID_2056_" class="st1" cx="375" cy="174.5" r="2.3"/>
			<circle id="XMLID_2055_" class="st1" cx="371.3" cy="178.2" r="2.3"/>
		</g>
		<g id="XMLID_2044_">
			<circle id="XMLID_2053_" class="st1" cx="419.2" cy="145" r="2.3"/>
			<circle id="XMLID_2052_" class="st1" cx="415.5" cy="148.7" r="2.3"/>
			<circle id="XMLID_2051_" class="st1" cx="411.8" cy="152.4" r="2.3"/>
			<circle id="XMLID_2050_" class="st1" cx="408.2" cy="156.1" r="2.3"/>
			<circle id="XMLID_2049_" class="st1" cx="393.4" cy="170.8" r="2.3"/>
			<circle id="XMLID_2048_" class="st1" cx="389.7" cy="174.5" r="2.3"/>
			<circle id="XMLID_2047_" class="st1" cx="386" cy="178.2" r="2.3"/>
			<circle id="XMLID_2046_" class="st1" cx="382.3" cy="181.9" r="2.3"/>
			<circle id="XMLID_2045_" class="st1" cx="378.7" cy="185.6" r="2.3"/>
		</g>
	</g>
	<path id="XMLID_2042_" class="st1" d="M616.6,206.9c-0.2-1.6,0.2-2.4,1.9-2.3c1.3,0.1,2.2,0.2,2.1,1.8c-0.1,1.4,0,2.7-2,2.7
		C617.2,209,616.3,208.4,616.6,206.9z"/>
	<path id="XMLID_2041_" class="st1" d="M574.4,204.7c1.8-0.3,2,0.9,2,2.2c0,1.4-0.5,2-2,2.1c-1.7,0-2.1-0.7-2.1-2.2
		C572.3,205.2,572.8,204.4,574.4,204.7z"/>
	<g id="XMLID_1775_">
		<circle id="XMLID_2040_" class="st1" cx="383.8" cy="211.9" r="2.3"/>
		<circle id="XMLID_2039_" class="st1" cx="383.8" cy="217.1" r="2.3"/>
		<circle id="XMLID_2038_" class="st1" cx="383.8" cy="222.3" r="2.3"/>
		<circle id="XMLID_2037_" class="st1" cx="383.8" cy="227.6" r="2.3"/>
		<circle id="XMLID_2036_" class="st1" cx="383.8" cy="232.8" r="2.3"/>
		<circle id="XMLID_2035_" class="st1" cx="383.8" cy="238" r="2.3"/>
		<circle id="XMLID_2034_" class="st1" cx="383.8" cy="243.2" r="2.3"/>
		<circle id="XMLID_1782_" class="st1" cx="383.8" cy="248.4" r="2.3"/>
		<circle id="XMLID_1781_" class="st1" cx="383.8" cy="253.6" r="2.3"/>
		<circle id="XMLID_1780_" class="st1" cx="383.8" cy="258.8" r="2.3"/>
		<circle id="XMLID_1779_" class="st1" cx="383.8" cy="264.1" r="2.3"/>
		<circle id="XMLID_1778_" class="st1" cx="383.8" cy="269.3" r="2.3"/>
		<circle id="XMLID_1777_" class="st1" cx="383.8" cy="274.5" r="2.3"/>
		<circle id="XMLID_1776_" class="st1" cx="383.8" cy="279.7" r="2.3"/>
	</g>
	<g id="XMLID_1774_">
		<path class="st1" d="M399.4,237.3v-23.6h4.3v4.3c0.5-1.1,1.2-2,2.2-2.7c0.9-0.7,2-1.2,3.1-1.5c1.1-0.3,2.3-0.3,3.5,0
			c1.2,0.2,2.3,0.8,3.3,1.6c0.7,0.5,1.3,1.2,1.8,1.8c0.5,0.7,0.9,1.4,1.3,2.2c0.7-1.6,1.6-2.9,2.7-3.8c1.1-0.9,2.3-1.5,3.6-1.8
			c1.3-0.3,2.6-0.2,3.9,0.1c1.3,0.3,2.5,1,3.6,2c1.1,1,1.9,2.2,2.6,3.7c0.7,1.5,1,3.3,1,5.3v12.3H432v-12.9c0-0.9-0.1-1.8-0.4-2.6
			c-0.3-0.8-0.7-1.6-1.2-2.3c-0.5-0.7-1.2-1.2-1.9-1.6c-0.8-0.4-1.6-0.6-2.6-0.6c-0.9,0-1.8,0.2-2.5,0.6c-0.7,0.4-1.4,0.9-1.9,1.6
			c-0.5,0.7-0.9,1.4-1.2,2.3c-0.3,0.8-0.4,1.7-0.4,2.6v12.9h-4.3v-12.9c-0.1-1.8-0.5-3.2-1.2-4.3c-0.7-1.1-1.4-1.8-2.3-2.3
			c-0.9-0.4-1.8-0.6-2.8-0.5c-1,0.1-1.9,0.5-2.8,1c-0.8,0.6-1.5,1.4-2.1,2.4c-0.6,1-0.8,2.2-0.8,3.6v12.9H399.4z"/>
		<path class="st1" d="M459.6,213.7c1.6,0,3.2,0.3,4.6,0.9c1.4,0.6,2.7,1.5,3.8,2.5c1.1,1.1,1.9,2.3,2.5,3.8c0.6,1.4,0.9,3,0.9,4.6
			c0,1.6-0.3,3.1-0.9,4.6c-0.6,1.4-1.5,2.7-2.5,3.7c-1.1,1.1-2.3,1.9-3.8,2.5c-1.4,0.6-3,0.9-4.6,0.9h-1.2c-1.6,0-3.2-0.3-4.6-0.9
			c-1.4-0.6-2.7-1.4-3.8-2.5c-1.1-1.1-1.9-2.3-2.5-3.7c-0.6-1.4-0.9-3-0.9-4.6c0-1.6,0.3-3.2,0.9-4.6c0.6-1.4,1.5-2.7,2.5-3.8
			c1.1-1.1,2.3-1.9,3.8-2.5c1.4-0.6,3-0.9,4.6-0.9H459.6z M467.3,225.4c0-1.2-0.2-2.3-0.7-3.3c-0.4-1-1-2-1.8-2.7
			c-0.8-0.8-1.6-1.4-2.6-1.8s-2.1-0.7-3.2-0.7c-1.1,0-2.2,0.2-3.2,0.7s-1.9,1.1-2.6,1.8c-0.7,0.8-1.3,1.7-1.8,2.7
			c-0.4,1-0.7,2.2-0.7,3.3c0,1.2,0.2,2.4,0.7,3.4c0.4,1.1,1,2,1.8,2.8c0.7,0.8,1.6,1.4,2.6,1.8c1,0.4,2.1,0.7,3.2,0.7
			c1.1,0,2.2-0.2,3.2-0.7c1-0.4,1.9-1.1,2.6-1.8c0.8-0.8,1.3-1.7,1.8-2.8C467,227.8,467.3,226.7,467.3,225.4z"/>
		<path class="st1" d="M482.2,237.3v-23.6h4.3v4.3c0.4-0.6,0.8-1.1,1.3-1.7c0.5-0.5,1.1-1,1.7-1.4c0.6-0.4,1.3-0.7,2-1
			c0.7-0.2,1.5-0.4,2.2-0.4h1c1.4,0,2.7,0.3,3.8,1c1.1,0.7,2,1.6,2.8,2.7s1.3,2.3,1.7,3.6c0.4,1.3,0.6,2.6,0.6,3.9v12.3h-4.3v-12.9
			c0-0.9-0.2-1.8-0.5-2.6c-0.3-0.8-0.8-1.6-1.3-2.3s-1.2-1.2-2-1.6c-0.8-0.4-1.6-0.6-2.6-0.6c-1,0-1.8,0.2-2.6,0.6
			c-0.8,0.4-1.5,0.9-2.1,1.6s-1,1.4-1.3,2.3c-0.3,0.8-0.5,1.7-0.5,2.6v12.9H482.2z"/>
		<path class="st1" d="M518.5,227.1c0.1,0.9,0.4,1.8,0.9,2.6c0.5,0.8,1.1,1.5,1.8,2.1c0.7,0.6,1.5,1.1,2.4,1.4
			c0.9,0.3,1.8,0.5,2.8,0.5c0.7,0,1.4-0.1,2.1-0.3c0.7-0.2,1.4-0.5,2-0.8c0.6-0.3,1.2-0.8,1.7-1.2c0.5-0.5,0.9-1,1.3-1.6h4.5
			c-0.4,1.1-1,2.1-1.7,3c-0.7,0.9-1.6,1.7-2.5,2.4c-1,0.7-2,1.2-3.1,1.5c-1.1,0.4-2.3,0.5-3.6,0.5h-1.3c-1.6,0-3.1-0.3-4.5-0.9
			c-1.4-0.6-2.7-1.5-3.7-2.5s-1.9-2.3-2.5-3.7c-0.6-1.4-0.9-3-0.9-4.6s0.3-3.1,0.9-4.6c0.6-1.4,1.5-2.7,2.5-3.8
			c1.1-1.1,2.3-1.9,3.7-2.5c1.4-0.6,2.9-0.9,4.5-0.9h1.3c1.6,0,3.1,0.3,4.6,0.9c1.4,0.6,2.7,1.5,3.7,2.5c1.1,1.1,1.9,2.3,2.5,3.8
			c0.6,1.4,0.9,3,0.9,4.6c0,0.3,0,0.5,0,0.8c0,0.3,0,0.5-0.1,0.8H518.5z M534.2,223.9c-0.1-0.9-0.4-1.8-0.8-2.6
			c-0.5-0.8-1.1-1.5-1.8-2.1c-0.7-0.6-1.5-1.1-2.4-1.4c-0.9-0.3-1.8-0.5-2.8-0.5s-1.9,0.2-2.8,0.5c-0.9,0.3-1.7,0.8-2.4,1.4
			c-0.7,0.6-1.3,1.3-1.8,2.1c-0.5,0.8-0.8,1.6-0.9,2.6H534.2z"/>
		<path class="st1" d="M551.3,233.6c-0.2-0.3-0.4-0.7-0.6-1c-0.2-0.3-0.3-0.7-0.4-1.1c-0.1-0.5-0.2-0.9-0.2-1.2c0-0.3,0-0.7,0-1.1
			v-11.6h-2.6v-3.7h2.6v-6.8h4.2v6.8h6.4v3.7h-6.4v10.9c0,0.6,0.1,1.2,0.2,1.8c0.1,0.6,0.4,1.1,0.7,1.5c0.3,0.4,0.8,0.8,1.3,1
			s1.3,0.4,2.2,0.4h3.3v4.1h-4.4c-0.3,0-0.7,0-1.1-0.1c-0.4-0.1-0.7-0.2-1.1-0.3c-0.8-0.3-1.6-0.8-2.3-1.3
			C552.3,235,551.8,234.3,551.3,233.6z"/>
		<path class="st1" d="M574.4,204.3c0.8,0,1.4,0.3,1.9,0.8c0.5,0.5,0.8,1.1,0.8,1.9c0,0.7-0.3,1.3-0.8,1.8c-0.5,0.5-1.2,0.8-1.9,0.8
			c-0.8,0-1.4-0.3-1.9-0.8c-0.5-0.5-0.8-1.1-0.8-1.8c0-0.8,0.3-1.4,0.8-1.9C573.1,204.6,573.7,204.3,574.4,204.3z M572.4,213.7h4.1
			v23.6h-4.1V213.7z"/>
		<path class="st1" d="M587.3,217.8v-4.1H608v4.3l-14.9,15.2H608v4.1h-20.7v-4.1l14.9-15.3H587.3z"/>
		<path class="st1" d="M620.9,204.3c0.8,0,1.4,0.3,1.9,0.8c0.5,0.5,0.8,1.1,0.8,1.9c0,0.7-0.3,1.3-0.8,1.8c-0.5,0.5-1.2,0.8-1.9,0.8
			c-0.8,0-1.4-0.3-1.9-0.8c-0.5-0.5-0.8-1.1-0.8-1.8c0-0.8,0.3-1.4,0.8-1.9C619.5,204.6,620.1,204.3,620.9,204.3z M618.8,213.7h4.1
			v23.6h-4.1V213.7z"/>
		<path class="st1" d="M634.6,237.3v-23.6h4.3v4.3c0.4-0.6,0.8-1.1,1.3-1.7c0.5-0.5,1.1-1,1.7-1.4c0.6-0.4,1.3-0.7,2-1
			c0.7-0.2,1.5-0.4,2.2-0.4h1c1.4,0,2.7,0.3,3.8,1c1.1,0.7,2,1.6,2.8,2.7s1.3,2.3,1.7,3.6c0.4,1.3,0.6,2.6,0.6,3.9v12.3h-4.3v-12.9
			c0-0.9-0.2-1.8-0.5-2.6c-0.3-0.8-0.8-1.6-1.3-2.3s-1.2-1.2-2-1.6c-0.8-0.4-1.6-0.6-2.6-0.6c-1,0-1.8,0.2-2.6,0.6
			c-0.8,0.4-1.5,0.9-2.1,1.6s-1,1.4-1.3,2.3c-0.3,0.8-0.5,1.7-0.5,2.6v12.9H634.6z"/>
		<path class="st1" d="M691.1,213.8v22.6c0,1.7-0.3,3.3-1,4.8c-0.6,1.5-1.5,2.7-2.6,3.8c-1.1,1.1-2.4,2-3.9,2.6
			c-1.5,0.6-3.1,0.9-4.7,0.9c-1.2,0-2.5-0.2-3.7-0.6s-2.4-0.9-3.4-1.7c-1.1-0.7-2-1.6-2.8-2.7c-0.8-1.1-1.4-2.3-1.9-3.6h4.4
			c0.7,1.3,1.7,2.4,2.9,3.2c1.2,0.8,2.6,1.2,4.2,1.2h0.4c1.1,0,2.1-0.2,3.1-0.6c1-0.4,1.8-1,2.5-1.7s1.3-1.6,1.7-2.5
			c0.4-1,0.6-2,0.6-3.1v-4.3c-1.1,1.6-2.3,2.8-3.7,3.8c-1.4,1-3.1,1.4-5.2,1.4H677c-1.4,0-2.8-0.3-4.1-0.9c-1.3-0.6-2.4-1.5-3.4-2.5
			c-1-1.1-1.7-2.3-2.3-3.7c-0.5-1.4-0.8-2.9-0.8-4.5c0-1.6,0.3-3.1,0.8-4.6c0.5-1.4,1.3-2.7,2.3-3.8c1-1.1,2.1-1.9,3.4-2.5
			c1.3-0.6,2.7-0.9,4.1-0.9h1.1c2.1,0,3.8,0.5,5.2,1.5c1.4,1,2.6,2.3,3.7,3.8v-5.3H691.1z M686.3,224.9c0-1-0.2-2-0.6-2.9
			s-0.9-1.7-1.6-2.3c-0.7-0.7-1.5-1.2-2.4-1.6c-0.9-0.4-1.9-0.6-2.9-0.6c-1,0-2,0.2-2.9,0.6c-0.9,0.4-1.7,0.9-2.3,1.6
			c-0.7,0.7-1.2,1.4-1.6,2.3c-0.4,0.9-0.6,1.9-0.6,2.9v1.3c0,1,0.2,2,0.6,2.9c0.4,0.9,0.9,1.7,1.6,2.4s1.4,1.2,2.3,1.6
			c0.9,0.4,1.9,0.6,2.9,0.6c1,0,2-0.2,2.9-0.6s1.7-0.9,2.4-1.6c0.7-0.7,1.2-1.5,1.6-2.4s0.6-1.9,0.6-2.9V224.9z"/>
		<path class="st1" d="M401.6,273.6c-0.2-0.3-0.4-0.7-0.6-1c-0.2-0.3-0.3-0.7-0.4-1.1c-0.1-0.5-0.2-0.9-0.2-1.2c0-0.3,0-0.7,0-1.1
			v-11.6h-2.6v-3.7h2.6v-6.8h4.2v6.8h6.4v3.7h-6.4v10.9c0,0.6,0.1,1.2,0.2,1.8c0.1,0.6,0.4,1.1,0.7,1.5c0.3,0.4,0.8,0.8,1.3,1
			s1.3,0.4,2.2,0.4h3.3v4.1h-4.4c-0.3,0-0.7,0-1.1-0.1c-0.4-0.1-0.7-0.2-1.1-0.3c-0.8-0.3-1.6-0.8-2.3-1.3
			C402.6,275,402.1,274.3,401.6,273.6z"/>
		<path class="st1" d="M445.3,253.8v23.5h-4.2v-5.2c-1.1,1.6-2.3,2.8-3.7,3.8c-1.4,1-3.1,1.4-5.1,1.4h-1.2c-1.4,0-2.8-0.3-4.1-0.9
			c-1.3-0.6-2.4-1.4-3.4-2.5c-1-1.1-1.7-2.3-2.3-3.7c-0.6-1.4-0.8-3-0.8-4.6c0-1.6,0.3-3.1,0.8-4.6c0.6-1.4,1.3-2.7,2.3-3.8
			c1-1.1,2.1-1.9,3.4-2.5c1.3-0.6,2.6-0.9,4.1-0.9h1.2c2,0,3.7,0.5,5.1,1.5c1.4,1,2.6,2.3,3.7,3.8v-5.3H445.3z M440.6,264.9
			c0-1-0.2-2-0.6-2.9c-0.4-0.9-0.9-1.7-1.6-2.3c-0.7-0.7-1.5-1.2-2.4-1.6s-1.9-0.6-2.9-0.6c-1,0-2,0.2-2.9,0.6
			c-0.9,0.4-1.7,0.9-2.3,1.6s-1.2,1.4-1.6,2.3c-0.4,0.9-0.6,1.9-0.6,2.9v1.3c0,1,0.2,2,0.6,2.9c0.4,0.9,0.9,1.7,1.6,2.4
			c0.7,0.7,1.4,1.2,2.3,1.6c0.9,0.4,1.9,0.6,2.9,0.6c1,0,2-0.2,2.9-0.6c0.9-0.4,1.7-0.9,2.4-1.6c0.7-0.7,1.2-1.5,1.6-2.4
			s0.6-1.9,0.6-2.9V264.9z"/>
		<path class="st1" d="M457.3,277.3v-34.1h4.1v34.1H457.3z"/>
		<path class="st1" d="M476.8,267.1c0.1,0.9,0.4,1.8,0.9,2.6c0.5,0.8,1.1,1.5,1.8,2.1c0.7,0.6,1.5,1.1,2.4,1.4
			c0.9,0.3,1.8,0.5,2.8,0.5c0.7,0,1.4-0.1,2.1-0.3c0.7-0.2,1.4-0.5,2-0.8c0.6-0.3,1.2-0.8,1.7-1.2c0.5-0.5,0.9-1,1.3-1.6h4.5
			c-0.4,1.1-1,2.1-1.7,3c-0.7,0.9-1.6,1.7-2.5,2.4c-1,0.7-2,1.2-3.1,1.5c-1.1,0.4-2.3,0.5-3.6,0.5H484c-1.6,0-3.1-0.3-4.5-0.9
			c-1.4-0.6-2.7-1.5-3.7-2.5s-1.9-2.3-2.5-3.7c-0.6-1.4-0.9-3-0.9-4.6s0.3-3.1,0.9-4.6c0.6-1.4,1.5-2.7,2.5-3.8
			c1.1-1.1,2.3-1.9,3.7-2.5c1.4-0.6,2.9-0.9,4.5-0.9h1.3c1.6,0,3.1,0.3,4.6,0.9c1.4,0.6,2.7,1.5,3.7,2.5c1.1,1.1,1.9,2.3,2.5,3.8
			c0.6,1.4,0.9,3,0.9,4.6c0,0.3,0,0.5,0,0.8c0,0.3,0,0.5-0.1,0.8H476.8z M492.5,263.9c-0.1-0.9-0.4-1.8-0.8-2.6
			c-0.5-0.8-1.1-1.5-1.8-2.1c-0.7-0.6-1.5-1.1-2.4-1.4c-0.9-0.3-1.8-0.5-2.8-0.5s-1.9,0.2-2.8,0.5c-0.9,0.3-1.7,0.8-2.4,1.4
			c-0.7,0.6-1.3,1.3-1.8,2.1c-0.5,0.8-0.8,1.6-0.9,2.6H492.5z"/>
		<path class="st1" d="M507.8,277.3v-23.6h4.3v4.3c0.4-0.6,0.8-1.1,1.3-1.7c0.5-0.5,1.1-1,1.7-1.4c0.6-0.4,1.3-0.7,2-1
			c0.7-0.2,1.5-0.4,2.2-0.4h1c1.4,0,2.7,0.3,3.8,1c1.1,0.7,2,1.6,2.8,2.7s1.3,2.3,1.7,3.6c0.4,1.3,0.6,2.6,0.6,3.9v12.3h-4.3v-12.9
			c0-0.9-0.2-1.8-0.5-2.6c-0.3-0.8-0.8-1.6-1.3-2.3s-1.2-1.2-2-1.6c-0.8-0.4-1.6-0.6-2.6-0.6c-1,0-1.8,0.2-2.6,0.6
			c-0.8,0.4-1.5,0.9-2.1,1.6s-1,1.4-1.3,2.3c-0.3,0.8-0.5,1.7-0.5,2.6v12.9H507.8z"/>
		<path class="st1" d="M542.3,273.6c-0.2-0.3-0.4-0.7-0.6-1c-0.2-0.3-0.3-0.7-0.4-1.1c-0.1-0.5-0.2-0.9-0.2-1.2c0-0.3,0-0.7,0-1.1
			v-11.6h-2.6v-3.7h2.6v-6.8h4.2v6.8h6.4v3.7h-6.4v10.9c0,0.6,0.1,1.2,0.2,1.8c0.1,0.6,0.4,1.1,0.7,1.5c0.3,0.4,0.8,0.8,1.3,1
			s1.3,0.4,2.2,0.4h3.3v4.1h-4.4c-0.3,0-0.7,0-1.1-0.1c-0.4-0.1-0.7-0.2-1.1-0.3c-0.8-0.3-1.6-0.8-2.3-1.3
			C543.4,275,542.8,274.3,542.3,273.6z"/>
		<path class="st1" d="M573.2,273.4c0.6,0,1.3,0,2.1-0.1c0.7-0.1,1.4-0.2,2-0.4c0.9-0.3,1.6-0.7,2-1.2c0.4-0.5,0.6-1,0.5-1.5
			c-0.1-0.5-0.3-1-0.8-1.4c-0.5-0.4-1.2-0.8-2-1.1c-1-0.3-2.1-0.5-3.2-0.6s-2.2-0.3-3.3-0.5c-0.7-0.1-1.4-0.3-2-0.5
			c-0.7-0.2-1.3-0.5-2-0.8c-0.7-0.3-1.3-0.7-1.8-1.2c-0.5-0.5-0.9-1-1.3-1.6c-0.3-0.6-0.5-1.2-0.6-1.9c-0.1-0.7,0-1.4,0.3-2.1
			c0.3-0.9,0.9-1.7,1.7-2.3c0.8-0.6,1.6-1.1,2.5-1.5c0.8-0.3,1.7-0.5,2.6-0.7c0.9-0.2,1.8-0.3,2.7-0.3c0.9,0,1.8,0.1,2.8,0.2
			c1,0.1,1.9,0.4,2.8,0.7c0.9,0.3,1.8,0.8,2.5,1.3c0.8,0.5,1.4,1.2,1.8,2l-3.6,1.9c-0.3-0.5-0.8-1-1.4-1.4s-1.2-0.6-1.8-0.8
			c-0.5-0.1-1.2-0.2-2-0.3c-0.8,0-1.6,0-2.5,0.1c-0.8,0.1-1.6,0.3-2.3,0.6s-1.3,0.7-1.7,1.2c-0.2,0.3-0.3,0.6-0.3,0.9
			c0,0.3,0.1,0.6,0.3,0.9c0.2,0.3,0.5,0.5,0.8,0.7c0.4,0.2,0.9,0.4,1.4,0.6c0.5,0.2,1,0.3,1.5,0.4c1.3,0.2,2.6,0.4,3.9,0.5
			c1.3,0.1,2.6,0.4,3.8,0.8c1.7,0.6,3,1.4,3.8,2.6c0.9,1.1,1.3,2.3,1.4,3.6c0,1.3-0.3,2.5-1.2,3.6c-0.8,1.2-2.1,2.1-3.7,2.7
			c-0.9,0.3-1.9,0.5-2.9,0.6c-1,0.1-2,0.2-2.9,0.2c-1,0-2.2-0.1-3.5-0.3c-1.3-0.2-2.4-0.6-3.5-1.2c-1.1-0.5-2-1.2-2.8-2.1
			s-1.1-1.9-1.1-3.2h4c0,0.5,0.3,1,0.9,1.4s1.2,0.7,2,1c0.8,0.2,1.5,0.4,2.3,0.5C572.2,273.4,572.8,273.5,573.2,273.4z"/>
	</g>
	<g id="XMLID_1773_">
		<path class="st1" d="M154.7,275.8v-63.5h11v25h21.6v-25h11v63.5h-11v-27.8h-21.6v27.8H154.7z"/>
		<path class="st1" d="M211,275.8v-63.5h40.4v10.7H222v14.1h27.4v10.7H222v17.3h30.5v10.7H211z"/>
		<path class="st1" d="M263.4,275.8v-63h11v52.3h27.4v10.7H263.4z"/>
		<path class="st1" d="M360,275.8h-12l-4.8-14.4h-21.8l-4.5,14.4h-11.7l21.2-63.5h11.6L360,275.8z M339.8,250.7l-7.5-23.6l-7.4,23.6
			H339.8z"/>
	</g>
	<g id="XMLID_1758_">
		<path id="XMLID_1772_" class="st1" d="M111,313.7c1.4-1.9-0.2-3.6-0.2-5.3c-0.3-9.6-0.6-19.1-1.2-28.7
			c-1.2-21.6-2.5-43.1-4.2-64.7c-1.1-13.2-1.7-26.5-2.7-39.7c-1.2-16-2.4-31.9-3.9-47.9c-0.6-6.3-0.6-12.6-2-18.9
			c-3-13-9-24.2-18.2-33.8C71.5,67.3,63,62.1,53.8,58c-13.2-5.9-26.2-12-39.3-18.1c-4.8-2.2-9.7-4.4-14.4-7c2.6,0.5,5.3,0.7,7.9,1.5
			c11.6,3.3,23.5,5.9,35.4,7.9c24.3,4,48.7,5.9,73.4,4.1c18.7-1.4,37-4.3,55.1-9.1c14.4-3.8,28.5-8.7,42.2-14.5
			c8.8-3.7,17.4-7.9,26.1-11.9c-4.5,3.9-9.5,7.1-14.4,10.2c-10.9,6.9-21.4,14.3-32,21.7C181.8,51,169.8,59.3,158.1,68
			c-12,9-20,20.9-24.4,35.3c-2.2,7.1-2.6,14.5-3.5,21.8c-2,16.2-4,32.3-5.9,48.5c-1.6,13.3-3,26.5-4.4,39.8c-2,18.7-4,37.5-5.7,56.3
			c-0.9,10.5-2,20.9-2.3,31.5c-0.1,3.4-0.3,6.8-1.3,10.1C110.4,311.9,110.3,312.7,111,313.7z"/>
		<path id="XMLID_1771_" class="st1" d="M112.5-1.9c10.4,0,18.5,8.1,18.6,18.4c0.1,10.6-8.1,18.8-18.8,18.8
			c-10.2,0-18.4-8.4-18.4-18.7C93.9,6.4,102.2-1.9,112.5-1.9z"/>
		<g id="XMLID_1765_">
			<path id="XMLID_1768_" class="st1" d="M221.1,76.8h29.2v90.5h-29.2v-4.7c-6.7,4.5-14.8,6.9-23.1,6.9c-24.7,0-44.8-21.3-44.8-47.5
				c0-26.2,20.1-47.3,44.8-47.3c8.3,0,16.4,2.4,23.1,6.9V76.8z M220.9,112.3c-3.7-6.7-10.1-10.8-17.4-10.8
				c-10.8,0-19.7,9.1-19.7,20.5c0,11.4,8.9,20.7,19.7,20.7c7.3,0,13.8-4.3,17.4-10.8V112.3z"/>
			<path id="XMLID_1766_" class="st1" d="M270.2,50l29-21.1v138.3h-29V50z"/>
		</g>
		<path id="XMLID_1763_" class="st1" d="M482.8,76.8c28.6,0,30.8,24.1,30.8,42.4v50.1h-29.2V129c0-8.1,2-25.4-10.1-25.4
			c-6.3,0-10.3,3.7-15.4,9.1v56.6h-29V78.7h29v11.2C464.7,80.9,471,76.8,482.8,76.8z"/>
		<path id="XMLID_1762_" class="st1" d="M583.4,147.8c-1-2.5-1.8-5-2.5-7.6h-6.3c-9.1,0-13.8,0.2-13.8-7.3v-25.4h20.3
			c1.7-6.2,4.3-12.1,7.7-17.4c2.7-4.2,5.9-8,9.5-11.4h-37.4V45.6l-29.2,21.5v11.6h-11.6v28.8h11.6v28.4c0,28.4,14,33.5,37.7,33.5
			h28.5C591.7,163.3,586.7,156,583.4,147.8z"/>
		<path id="XMLID_1759_" class="st1" d="M657.8,78.9H687v90.5h-29.2v-4.7c-6.7,4.5-14.8,6.9-23.1,6.9c-24.7,0-44.8-21.3-44.8-47.5
			c0-26.2,20.1-47.3,44.8-47.3c8.3,0,16.4,2.4,23.1,6.9V78.9z M657.6,114.4c-3.7-6.7-10.1-10.8-17.4-10.8
			c-10.8,0-19.7,9.1-19.7,20.5c0,11.4,8.9,20.7,19.7,20.7c7.3,0,13.8-4.3,17.4-10.8V114.4z"/>
	</g>
</g>
</svg>
